<?xml version="1.0" encoding="UTF-8" standalone="no"?>
<svg
   version="1.1"
   width="1024"
   height="1024"
   viewBox="0 0 1024 1024"
   xmlns="http://www.w3.org/2000/svg"
   id="svg4">

  <!-- Large purple circle -->
  <circle
     cx="512"
     cy="512"
     r="400"
     fill="#A180E9"
     id="circle1" />

  <!-- Inner white circle -->
  <path
     d="M 0,0 2.7720184,-0.02954102 C 22.987832,-0.20054536 42.461348,0.05516621 62.324219,4.2382812 L 65.03125,4.7734375 C 113.20141,14.407469 161.3443,38.196659 195.32422,74.238281 l 2.5,2.5 2.5,2.5 1.91406,1.808594 c 25.62195,24.671305 45.97771,60.037195 55.49805,94.091305 0.55521,1.98337 1.14094,3.95812 1.72851,5.93213 0.99833,3.37867 1.94187,6.76656 2.85938,10.16797 l 0.80469,2.87109 c 9.12862,64.08113 5.42503,132.59923 5.35978,197.44605 l -0.002,2.52357 c -0.004,4.17876 -0.008,8.35751 -0.0114,12.53627 -0.031,34.54105 -0.0837,69.08203 -0.15097,103.62302 -3.47654,0.035 -6.95303,0.0557 -10.42969,0.0742 l -2.948,0.0301 c -9.13774,0.0363 -17.71825,-1.13869 -26.62231,-3.10437 l -2.38037,-0.52002 c -42.57508,-9.51869 -81.39419,-29.6147 -115.61973,-56.47991 l -2.44922,-1.90234 c -9.293359,-7.31796 -18.675029,-14.85958 -26.865967,-23.41431 -1.715582,-1.71409 -3.502635,-3.27939 -5.348877,-4.85132 -5.262746,-4.57433 -10.097522,-9.54373 -14.980469,-14.51562 -3.231213,-3.26666 -6.461453,-6.45882 -9.964843,-9.4336 -6.024247,-5.18524 -11.556669,-10.9003 -17.164551,-16.52636 -1.981782,-1.98717 -3.968888,-3.96891 -5.956543,-5.9502 -1.272456,-1.27312 -2.544603,-2.54654 -3.816406,-3.82031 l -1.783631,-1.7775 c -3.108634,-3.1263 -6.548368,-7.1677 -9.231983,-10.67774 -7.8944974,8.39832 -4.5037965,3.82577 -6.7385366,6.53703 -3.4536418,4.07711 -7.0995881,7.87811 -10.8825684,11.64868 l -1.9975738,2.00047 c -1.3828008,1.38348 -2.7668432,2.76571 -4.1520842,4.14674 -2.099052,2.0937 -4.192708,4.19268 -6.285889,6.29224 -1.354497,1.35384 -2.709305,2.70736 -4.064453,4.06055 l -1.863144,1.86928 c -3.736637,3.71692 -7.587734,7.24416 -11.591217,10.67245 -3.27661,2.88916 -6.304807,6.02436 -9.362045,9.14186 -4.377657,4.4201 -8.74416,8.76873 -13.503906,12.78125 -2.087496,1.79745 -4.095787,3.6694 -6.105225,5.55322 -16.013767,14.95375 -34.068733,27.99789 -52.890868,39.16553 l -3.25391,2.0625 c -32.92754,20.76132 -75.01849,37.5729 -114.41797,37.03516 l -3.03271,-0.0214 c -2.43197,-0.0182 -4.8636,-0.0437 -7.29541,-0.0763 -0.0229,-34.32778 -0.0405,-68.65555 -0.0511,-102.98334 -0.0504,-204.68329 -0.0876,4.35392 -0.0629,-135.89832 6.3e-4,-3.26911 -8.4e-4,-6.53821 -0.006,-9.80732 -0.0558,-39.41789 -0.0558,-39.41789 3.05671,-52.81102 0.36411,-1.6782 0.7274,-3.35659 1.08984,-5.03516 l 0.51905,-2.34423 c 0.57177,-2.67302 1.0189,-5.35976 1.45361,-8.05811 0.90501,-5.10968 2.40915,-9.97734 3.99219,-14.91406 1.14874,-3.58872 1.14836,-4.64213 3.19922,-10.83203 2.05086,-6.1899 3.97146,-9.89333 6.24609,-14.75391 3.8152,-8.01953 12.74,-28.94695 22.25,-41.3125 1.07483,-1.39757 2.14078,-2.80196 3.21094,-4.20312 l 1.59277,-2.07227 c 1.36572,-1.78737 2.71232,-3.5865 4.04785,-5.396484 l 2.27344,-3.078125 1.95703,-2.65625 c 12.39619,-15.804599 27.10161,-29.840487 43.4043,-41.530273 1.63991,-1.179507 3.25801,-2.389193 4.87304,-3.602539 16.1629,-12.098819 34.23339,-22.188254 52.953129,-29.710938 l 3.144531,-1.414062 C -64.179501,8.5278809 -40.649606,4.1214504 -17.675781,1.2382812 l 3.733642,-0.52832026 C -9.2951604,0.13355795 -4.6784571,0.04132568 0,0 Z"
     fill="#fdfdfd"
     transform="translate(499.67578,214.76172)"
     id="path1" />

  <!-- Purple gradient circle -->
  <path
     d="M 0,0 2.3244934,0.00350952 C 14.064144,0.03851493 25.329842,0.69846461 36.8125,3.3125 l 3.445312,0.7617187 C 43.132246,4.7550056 45.969526,5.5118433 48.8125,6.3125 l 2.28125,0.5742187 c 25.279044,6.7959073 50.94307,20.9810603 69.12817,39.8457033 1.57799,1.567573 3.22249,2.950656 4.96558,4.330078 4.90329,4.137152 8.69405,9.212025 12.625,14.25 l 2.22266,2.78125 c 25.60306,32.87307 35.98168,71.07098 35.89087,112.26636 -2.9e-4,1.80455 -1.3e-4,3.60911 4.4e-4,5.41366 2.8e-4,4.86904 -0.006,9.73805 -0.0126,14.60709 -0.006,5.09955 -0.007,10.1991 -0.008,15.29866 -0.003,9.64341 -0.0113,19.2868 -0.0213,28.9302 -0.0112,10.98433 -0.0167,21.96866 -0.0217,32.95298 -0.0104,22.58328 -0.028,45.16654 -0.0503,67.7498 -1.73117,-1.48344 -3.4622,-2.96705 -5.19295,-4.45098 -1.3268,-1.13735 -2.6543,-2.27388 -3.98219,-3.40995 -4.58604,-3.9644 -8.91961,-8.11416 -13.17642,-12.42813 l -2.00766,-2.01914 c -2.09108,-2.10315 -4.17884,-4.20954 -6.26578,-6.3168 -2.76007,-2.7868 -5.52353,-5.57018 -8.28906,-8.35156 l -1.88492,-1.91007 c -2.78215,-2.79761 -5.56336,-5.45883 -8.64389,-7.92733 l -2.55713,-2.18604 c -3.31157,-3.69916 -5.94606,-5.70528 -8.9473,-8.71352 l -1.46626,-1.46322 c -1.6184,-1.61745 -3.22955,-3.24193 -4.84083,-4.86647 -1.15946,-1.16166 -2.31936,-2.32287 -3.47968,-3.48366 -2.49654,-2.49948 -4.9899,-5.00208 -7.480839,-7.50714 -3.936005,-3.95826 -7.879075,-7.90943 -11.823146,-11.85965 -17.401011,-17.44509 -34.786042,-34.9061 -52.190561,-52.3477 -3.922594,-3.93102 -7.842361,-7.86483 -11.759906,-11.80088 -2.432846,-2.44346 -4.867699,-4.88492 -7.303066,-7.32587 -1.132068,-1.13555 -2.263263,-2.27197 -3.393535,-3.4093 -9.9664065,-9.9527 -0.146396,0.0544 -9.9409357,-9.86101 -14.2158833,13.59617 -5.6346623,5.41627 -20.3447143,19.51147 -1.081558,1.08348 -2.163347,2.16673 -3.245346,3.24977 -2.31545,2.31859 -4.629341,4.63872 -6.942017,6.96008 -3.662993,3.67661 -7.329877,7.34931 -10.99733,11.02147 -7.784511,7.79558 -15.56478,15.59538 -23.344604,23.39563 -8.401204,8.42326 -16.803148,16.84578 -25.209997,25.26341 -3.639575,3.64454 -7.276704,7.29149 -10.911928,10.94036 -2.268075,2.27558 -4.538265,4.54905 -6.809005,6.82197 -1.0457,1.04756 -2.09054,2.09598 -3.13442,3.14536 -5.08994,5.11588 -10.20144,10.15322 -15.70718,14.82628 -3.23553,2.81438 -6.21652,5.88973 -9.22747,8.94012 l -2.06055,2.07202 c -2.14896,2.16105 -4.29462,4.32533 -6.43945,6.49048 -2.83034,2.85716 -5.66413,5.71083 -8.5,8.5625 l -1.91992,1.94507 c -3.79981,3.82024 -7.71741,7.43381 -11.81299,10.93579 -1.63006,1.43593 -3.13984,2.92667 -4.64209,4.49414 -2.125,2.0625 -2.125,2.0625 -4.125,2.0625 -0.0469,-23.10639 -0.0821,-46.21277 -0.10362,-69.3192 -0.0103,-10.73078 -0.0243,-21.46152 -0.0473,-32.19227 -0.02,-9.36225 -0.0329,-18.72447 -0.0373,-28.08674 -0.003,-4.94876 -0.009,-9.89745 -0.0233,-14.84619 -0.14176,-49.68666 -0.14176,-49.68666 4.46146,-67.3681 l 0.65503,-2.61426 c 2.10314,-8.10665 4.80281,-15.87755 8.09497,-23.57324 l 0.88623,-2.09229 c 4.6258,-10.762508 10.24855,-20.427415 17.11377,-29.90771 l 1.21045,-1.686035 c 8.54885,-11.80589 18.36078,-23.212893 29.78955,-32.313965 l 2.84766,-2.320313 C -78.143596,12.986785 -39.908881,-0.18725923 0,0 Z"
     fill="#957bed"
     transform="translate(511.1875,288.6875)"
     id="path2" />

  <!-- Inner small white circle -->
  <path
     d="M0 0 C11.25501934 8.95246576 20.62186703 20.36885299 22.55859375 35.03515625 C23.39813382 47.83100338 22.86710997 59.43642419 16.99609375 71.03515625 C16.64603271 71.72722168 16.29597168 72.41928711 15.93530273 73.13232422 C12.73968506 79.16432661 8.8989587 83.74444924 3.55859375 88.03515625 C2.8728125 88.59460938 2.18703125 89.1540625 1.48046875 89.73046875 C-9.57216452 97.87666882 -23.87547273 101.21622906 -37.44140625 100.03515625 C-54.63406254 97.19527828 -67.46446612 89.60052774 -77.91015625 75.41015625 C-86.17051261 62.59817496 -88.76949364 47.13312621 -85.63671875 32.19921875 C-81.39324832 18.0055418 -73.04084842 5.5962124 -60.04296875 -1.93359375 C-41.1915113 -11.93107379 -18.0602695 -12.63950511 0 0 Z"
     fill="#FDFDFD"
     transform="translate(543.44140625,342.96484375)"
     id="path3" />

  <!-- Accent path -->
  <path
     d="M0 0 C2.3977272 3.59659079 2.27489114 6.1573747 2.24050903 10.30815125 C2.24221788 11.0580046 2.24392673 11.80785796 2.24568737 12.58043414 C2.24898906 15.10018721 2.23796748 17.61967565 2.22705078 20.1394043 C2.22648681 21.94277948 2.22680294 23.74615512 2.22793579 25.54953003 C2.22851087 30.45212861 2.21673148 35.35462982 2.20278788 40.25720572 C2.19030634 45.37815597 2.18911205 50.49910831 2.18673706 55.62007141 C2.1805147 65.32042653 2.16409367 75.02073671 2.14403808 84.72107202 C2.12170258 95.76324685 2.11069157 106.80542381 2.10064721 117.8476156 C2.0797281 140.56510201 2.04453745 163.28254849 2 186 C-0.475 183.525 -0.475 183.525 -3 181 C-2.34 181 -1.68 181 -1 181 C-0.67 121.27 -0.34 61.54 0 0 Z"
     fill="#AB78E2"
     transform="translate(685,448)"
     id="path4" />
</svg>

