<?xml version="1.0" encoding="UTF-8" standalone="no"?>
<svg
   version="1.1"
   width="51"
   height="51"
   viewBox="0 0 51 51"
   fill="none"
   xmlns="http://www.w3.org/2000/svg"
   id="svg4">
  <defs>
    <clipPath id="clip0">
      <rect fill="white" height="50" transform="translate(0.5 0.5)" width="50"></rect>
    </clipPath>
  </defs>
  
  <g clip-path="url(#clip0)">
    <!-- Large purple rounded square -->
    <rect
       x="2.5"
       y="2.5"
       width="46"
       height="46"
       rx="7.65"
       ry="7.65"
       fill="#6d4aff"
       id="roundedRect1" />
    
    <!-- Inner white circle -->
    <path
       d="M 0,0 0.138,-0.001 C 1.145,-0.01 2.115,0.003 3.103,0.211 L 3.238,0.238 C 5.637,0.718 8.035,1.903 9.727,3.698 l 0.125,0.125 0.125,0.125 0.095,0.09 c 1.276,1.229 2.29,2.991 2.765,4.688 0.028,0.099 0.057,0.197 0.086,0.296 0.05,0.168 0.097,0.337 0.142,0.507 l 0.04,0.143 c 0.455,3.193 0.27,6.604 0.267,9.839 l -0.0001,0.126 c -0.0002,0.208 -0.0004,0.416 -0.0006,0.624 -0.002,1.721 -0.004,3.441 -0.008,5.162 -0.173,0.002 -0.346,0.003 -0.519,0.004 l -0.147,0.001 c -0.455,0.002 -0.883,-0.057 -1.326,-0.155 l -0.119,-0.026 c -2.121,-0.474 -4.054,-1.476 -5.758,-2.814 l -0.122,-0.095 c -0.463,-0.364 -0.93,-0.74 -1.338,-1.166 -0.085,-0.085 -0.174,-0.163 -0.266,-0.242 -0.262,-0.228 -0.503,-0.475 -0.746,-0.723 -0.161,-0.163 -0.322,-0.322 -0.496,-0.47 -0.3,-0.258 -0.576,-0.543 -0.855,-0.823 -0.099,-0.099 -0.198,-0.198 -0.297,-0.296 -0.063,-0.063 -0.127,-0.127 -0.19,-0.19 l -0.089,-0.089 c -0.155,-0.156 -0.326,-0.357 -0.46,-0.532 -0.393,0.418 -0.224,0.191 -0.336,0.326 -0.172,0.203 -0.354,0.392 -0.542,0.58 l -0.1,0.1 c -0.069,0.069 -0.138,0.138 -0.207,0.207 -0.105,0.104 -0.209,0.209 -0.313,0.313 -0.067,0.067 -0.135,0.135 -0.202,0.202 l -0.093,0.093 c -0.186,0.185 -0.378,0.361 -0.577,0.532 -0.163,0.144 -0.314,0.3 -0.466,0.455 -0.218,0.22 -0.436,0.437 -0.672,0.637 -0.104,0.089 -0.204,0.183 -0.304,0.277 -0.797,0.745 -1.697,1.394 -2.634,1.95 l -0.162,0.103 c -1.64,1.034 -3.736,1.872 -5.697,1.844 l -0.151,-0.001 c -0.121,-0.001 -0.242,-0.002 -0.363,-0.004 -0.001,-1.71 -0.002,-3.42 -0.003,-5.128 -0.003,-10.196 -0.004,0.217 -0.003,-6.768 0,-0.163 0,-0.326 0,-0.489 -0.003,-1.964 -0.003,-1.964 0.152,-2.631 0.018,-0.084 0.036,-0.167 0.054,-0.251 l 0.026,-0.117 c 0.028,-0.133 0.051,-0.267 0.072,-0.401 0.045,-0.255 0.12,-0.497 0.199,-0.743 0.057,-0.179 0.057,-0.231 0.159,-0.54 0.102,-0.308 0.198,-0.493 0.311,-0.735 0.19,-0.4 0.635,-1.442 1.108,-2.058 0.054,-0.07 0.107,-0.14 0.16,-0.209 l 0.079,-0.103 c 0.068,-0.089 0.135,-0.179 0.202,-0.269 l 0.113,-0.153 0.098,-0.132 c 0.618,-0.787 1.351,-1.486 2.162,-2.069 0.082,-0.059 0.162,-0.119 0.243,-0.18 0.805,-0.602 1.705,-1.105 2.638,-1.48 l 0.157,-0.07 C -3.197,0.424 -2.025,0.205 -0.88,0.062 l 0.186,-0.026 C -0.463,0.007 -0.233,0.002 0,0 Z"
       fill="#fdfdfd"
       transform="translate(24.884,10.698)"
       id="path1" />
    
    <!-- Purple gradient circle -->
    <path
       d="M 0,0 0.116,0.0002 C 0.7,0.002 1.262,0.035 1.834,0.165 l 0.172,0.038 C 2.148,0.237 2.245,0.274 2.432,0.314 l 0.114,0.029 c 1.259,0.339 2.538,1.044 3.444,1.984 0.079,0.078 0.161,0.147 0.247,0.216 0.244,0.206 0.433,0.459 0.629,0.71 l 0.111,0.139 c 1.276,1.637 1.792,3.541 1.788,5.593 0,0.09 0,0.18 0,0.27 0,0.243 0,0.485 -0.001,0.728 0,0.254 0,0.508 0,0.762 0,0.48 -0.001,0.96 -0.001,1.44 -0.001,0.547 -0.001,1.094 -0.001,1.641 -0.001,1.125 -0.001,2.25 -0.003,3.375 -0.086,-0.074 -0.172,-0.148 -0.259,-0.222 -0.066,-0.057 -0.132,-0.113 -0.198,-0.17 -0.228,-0.197 -0.444,-0.404 -0.656,-0.619 l -0.1,-0.101 c -0.104,-0.105 -0.208,-0.21 -0.312,-0.315 -0.137,-0.139 -0.275,-0.277 -0.413,-0.416 l -0.094,-0.095 c -0.139,-0.139 -0.277,-0.272 -0.43,-0.395 l -0.127,-0.109 c -0.165,-0.184 -0.296,-0.284 -0.446,-0.434 l -0.073,-0.073 c -0.081,-0.081 -0.161,-0.161 -0.241,-0.242 -0.058,-0.058 -0.116,-0.116 -0.173,-0.174 -0.124,-0.124 -0.248,-0.249 -0.373,-0.374 -0.196,-0.197 -0.392,-0.394 -0.589,-0.591 -0.867,-0.869 -1.733,-1.738 -2.6,-2.607 -0.195,-0.196 -0.391,-0.392 -0.586,-0.588 -0.121,-0.122 -0.243,-0.243 -0.364,-0.365 -0.056,-0.057 -0.113,-0.113 -0.169,-0.17 -0.496,-0.496 -0.007,0.003 -0.495,-0.491 -0.708,0.678 -0.281,0.27 -1.014,0.972 -0.054,0.054 -0.108,0.108 -0.162,0.162 -0.115,0.115 -0.231,0.231 -0.346,0.347 -0.182,0.183 -0.365,0.366 -0.548,0.549 -0.388,0.388 -0.775,0.776 -1.162,1.164 -0.419,0.42 -0.838,0.839 -1.258,1.258 -0.181,0.182 -0.363,0.363 -0.543,0.545 -0.113,0.113 -0.226,0.227 -0.339,0.34 -0.052,0.052 -0.104,0.104 -0.156,0.157 -0.254,0.255 -0.508,0.506 -0.782,0.738 -0.161,0.14 -0.31,0.293 -0.459,0.445 l -0.103,0.103 c -0.107,0.108 -0.214,0.215 -0.321,0.323 -0.141,0.142 -0.282,0.284 -0.423,0.427 l -0.096,0.097 c -0.189,0.19 -0.384,0.37 -0.588,0.545 -0.081,0.072 -0.156,0.146 -0.231,0.224 -0.106,0.103 -0.106,0.103 -0.205,0.103 -0.002,-1.151 -0.004,-2.302 -0.005,-3.453 -0.001,-0.535 -0.001,-1.069 -0.002,-1.604 -0.001,-0.466 -0.002,-0.933 -0.002,-1.4 0,-0.247 0,-0.493 -0.001,-0.739 -0.007,-2.475 -0.007,-2.475 0.222,-3.356 l 0.033,-0.13 c 0.105,-0.404 0.239,-0.791 0.403,-1.175 l 0.044,-0.104 c 0.231,-0.536 0.51,-1.018 0.853,-1.49 l 0.06,-0.084 c 0.426,-0.588 0.915,-1.156 1.483,-1.609 l 0.142,-0.116 C -3.894,0.647 -1.989,-0.009 0,0 Z"
       fill="#6d4aff"
       transform="translate(25.459,14.384)"
       id="path2" />
    
    <!-- Inner small white circle -->
    <path
       d="M0 0 C0.56 0.446 1.027 1.015 1.123 1.746 C1.166 2.387 1.139 2.962 0.847 3.534 C0.829 3.58 0.811 3.626 0.794 3.673 C0.635 3.942 0.443 4.173 0.177 4.388 C0.143 4.419 0.109 4.45 0.074 4.481 C-0.477 4.88 -1.189 5.045 -1.865 4.987 C-2.722 4.843 -3.36 4.465 -3.882 3.759 C-4.293 3.118 -4.425 2.346 -4.266 1.605 C-4.055 0.897 -3.638 0.279 -2.991 -0.096 C-2.051 -0.594 -0.9 -0.63 0 0 Z"
       fill="#FDFDFD"
       transform="translate(27.059,17.086)"
       id="path3" />
    
    <!-- Accent path -->
    <path
       d="M0 0 C0.119 0.179 0.113 0.307 0.112 0.514 C0.112 0.551 0.112 0.588 0.112 0.627 C0.112 0.753 0.112 0.879 0.111 1.004 C0.111 1.094 0.111 1.184 0.111 1.274 C0.111 1.518 0.111 1.762 0.11 2.006 C0.11 2.261 0.11 2.516 0.109 2.771 C0.109 3.256 0.108 3.741 0.107 4.226 C0.106 4.738 0.105 5.251 0.105 5.763 C0.104 6.968 0.102 8.173 0.1 9.278 C-0.024 9.154 -0.024 9.154 -0.149 9.029 C-0.116 9.029 -0.084 9.029 -0.05 9.029 C-0.033 6.036 -0.017 3.066 0 0 Z"
       fill="#6d4aff"
       transform="translate(34.125,22.325)"
       id="path4" />
  </g>
</svg>