<svg width="137" height="46" viewBox="0 0 137 46" fill="none" xmlns="http://www.w3.org/2000/svg">
<g clip-path="url(#clip0_6593_2418)">
<path fill-rule="evenodd" clip-rule="evenodd" d="M57.644 36.4884L64.0535 12.1852L70.6775 12.1768L70.7023 21.4539L77.2273 12.1768L84.4699 12.1852L79.8669 29.6248H73.6472L75.5445 22.5853L71.1395 29.6248H66.7757L66.7675 22.7948L63.1544 36.5219L57.644 36.4884ZM85.4928 16.1743L96.0763 16.2162L96.4805 16.3168L96.8517 16.5263L97.0084 16.8112V17.0458L96.8517 17.3308L96.5465 17.49L96.1753 17.6157L95.4576 17.6995H85.1216L81.954 29.6248L87.9593 29.6416L90.038 22.2668L95.4411 36.5135H101.578L96.3403 22.0573L98.6748 21.2193C100.63 20.2891 101.603 18.8393 101.603 16.8782C101.603 16.124 101.463 15.3111 101.191 14.4312C100.787 13.1573 99.7306 12.4366 98.0231 12.2774L96.9837 12.1852H86.6312L85.4928 16.1743ZM100.589 29.6248L103.731 17.7247H109.333L107.509 24.7474H110.685L112.533 17.7247H118.2L115.041 29.6164L100.589 29.6248ZM112.929 16.2162H118.604L119.652 12.1685L113.985 12.1768L112.929 16.2162ZM104.136 16.2162H109.77L110.809 12.1685L105.208 12.1768L104.136 16.2162ZM124.173 17.7163L121.005 29.6164H127.134L130.269 17.7163H124.173ZM119.223 16.2162L120.304 12.1852L137 12.1768L135.927 16.2246H119.223V16.2162Z" fill="#2BA7DF"/>
<path fill-rule="evenodd" clip-rule="evenodd" d="M62.3789 45.8326V37.8545H70.6857V39.2037H64.6474V40.972H70.2567V42.3212H64.6474V44.4834H70.9002V45.8326H62.3789ZM74.6947 45.8326V37.8545H76.8972L81.5167 43.2012V37.8545H83.6202V45.8326H81.3517L76.7982 40.5948V45.8326H74.6947ZM87.8767 45.8326V37.8545H96.1835V39.2037H90.1452V40.972H95.7545V42.3212H90.1452V44.4834H96.3979V45.8326H87.8767ZM100.192 45.8326V37.8545H104.969C106.165 37.8545 107.039 37.9299 107.584 38.0723C108.128 38.2148 108.565 38.4662 108.887 38.835C109.217 39.2037 109.382 39.6227 109.382 40.092C109.382 40.6954 109.134 41.1899 108.639 41.5754C108.145 41.9692 107.41 42.2123 106.429 42.3128C106.915 42.514 107.32 42.7402 107.633 42.9833C107.955 43.2263 108.376 43.6621 108.92 44.2822L110.289 45.841H107.575L105.95 44.0979C105.365 43.4777 104.969 43.0922 104.754 42.9246C104.54 42.7654 104.309 42.6564 104.07 42.5894C103.83 42.5307 103.443 42.4972 102.923 42.4972H102.461V45.8242H100.192V45.8326ZM102.461 41.2318H104.136C105.224 41.2318 105.901 41.1982 106.173 41.1312C106.445 41.0642 106.66 40.9552 106.808 40.796C106.965 40.6368 107.039 40.4356 107.039 40.1926C107.039 39.9244 106.94 39.7065 106.734 39.5389C106.536 39.3713 106.247 39.2707 105.884 39.2288C105.695 39.2121 105.15 39.2037 104.226 39.2037H102.461V41.2318ZM118.588 42.9078V41.5586H123.463V44.7431C122.993 45.07 122.3 45.3633 121.401 45.6063C120.502 45.8577 119.586 45.9751 118.662 45.9751C117.491 45.9751 116.468 45.7991 115.593 45.4471C114.719 45.0951 114.067 44.5923 113.63 43.9386C113.193 43.285 112.97 42.5726 112.97 41.81C112.97 40.9803 113.218 40.2429 113.704 39.5892C114.191 38.9439 114.909 38.4495 115.857 38.0975C116.583 37.8293 117.474 37.7036 118.547 37.7036C119.941 37.7036 121.03 37.9131 121.813 38.3238C122.597 38.7428 123.1 39.3126 123.323 40.0501L121.063 40.3518C120.906 39.9579 120.609 39.6479 120.172 39.4216C119.734 39.1953 119.19 39.0864 118.538 39.0864C117.548 39.0864 116.765 39.3126 116.179 39.7568C115.593 40.201 115.305 40.863 115.305 41.743C115.305 42.69 115.602 43.4023 116.196 43.8716C116.79 44.3409 117.565 44.5839 118.522 44.5839C118.992 44.5839 119.47 44.5169 119.949 44.3828C120.427 44.2487 120.832 44.0895 121.178 43.8967V42.9078H118.588ZM130.367 45.8326V42.4804L126.251 37.8628H128.907L131.564 41.0223L134.146 37.8628H136.752L132.636 42.4888V45.8326H130.367Z" fill="#2BA7DF"/>
<path fill-rule="evenodd" clip-rule="evenodd" d="M14.5182 24.3532C21.5217 26.4232 19.2449 37.7284 12.6952 35.7338C10.336 35.0131 8.25723 32.147 8.54594 28.8368C8.80991 25.8114 11.2434 23.3895 14.5182 24.3532Z" fill="#F1A71F"/>
<path fill-rule="evenodd" clip-rule="evenodd" d="M20.7708 13.9952C27.7082 15.3696 24.3178 26.3395 17.6279 24.6132C15.0707 23.9595 13.2394 21.152 14.3035 17.9507C15.0212 15.7886 17.7104 13.3834 20.7708 13.9952Z" fill="#42BBDE"/>
<path fill-rule="evenodd" clip-rule="evenodd" d="M19.7316 5.93324C24.78 6.93051 18.7417 15.797 13.553 14.1544C10.6494 13.2326 11.994 9.77146 13.3798 8.33842C14.5347 7.15678 17.3724 5.46394 19.7316 5.93324Z" fill="#96BC40"/>
<path fill-rule="evenodd" clip-rule="evenodd" d="M4.85048 24.5962C9.28022 26.6075 8.71928 37.5356 4.2978 35.6332C0.280517 33.9152 0.651724 22.6939 4.85048 24.5962Z" fill="#E54E8B"/>
<path fill-rule="evenodd" clip-rule="evenodd" d="M12.489 5.76582C13.0416 6.0759 12.6952 5.54793 12.9427 6.34407C13.0499 6.70443 12.9921 7.00612 12.9179 7.3581C12.324 10.1404 7.24257 15.5206 5.22155 14.2133C2.73859 12.6042 9.86576 4.29087 12.489 5.76582Z" fill="#EEDC12"/>
<path fill-rule="evenodd" clip-rule="evenodd" d="M0.47843 25.5349C-0.428964 23.6828 0.115473 20.8251 0.791894 18.8138C1.36108 17.1294 2.16948 14.2465 4.23174 14.2716C5.4856 16.9282 4.03377 21.2777 2.71392 23.8085C2.16948 24.8309 1.83127 25.6019 0.47843 25.5349Z" fill="#F1A71F"/>
<path fill-rule="evenodd" clip-rule="evenodd" d="M20.0451 36.3627C24.6068 37.6616 23.2788 43.7207 18.882 42.3966C14.8647 41.1814 15.6731 35.114 20.0451 36.3627Z" fill="#EC7626"/>
<path fill-rule="evenodd" clip-rule="evenodd" d="M30.5792 15.8388C34.0355 17.5149 31.6186 23.6745 27.7745 21.8308C26.4877 21.2107 25.572 19.367 26.4134 17.5736C26.9661 16.4171 28.8304 14.9924 30.5792 15.8388Z" fill="#42BBDE"/>
<path fill-rule="evenodd" clip-rule="evenodd" d="M28.3186 3.14282C28.2114 4.60939 27.4772 4.85242 26.1161 5.53124C25.2582 5.95864 23.031 6.76315 22.3298 5.66532C21.1089 3.75459 26.8668 2.15394 28.3186 3.14282Z" fill="#96BC40"/>
<path fill-rule="evenodd" clip-rule="evenodd" d="M5.53482 42.0023C4.37996 42.1867 3.984 41.5414 3.15085 39.7899C2.61466 38.667 2.22696 37.368 2.55692 36.1528C4.50369 36.2953 5.92253 39.7815 5.53482 42.0023Z" fill="#DF2C66"/>
<path fill-rule="evenodd" clip-rule="evenodd" d="M9.80811 5.52251C10.1876 4.56714 11.3507 3.87157 12.1921 3.35198C13.116 2.77374 14.2131 1.98598 15.5412 1.86865C15.2277 3.07543 11.1609 5.47222 9.80811 5.52251Z" fill="#EEDC12"/>
<path fill-rule="evenodd" clip-rule="evenodd" d="M30.7192 2.52274C31.5194 1.85231 32.2866 2.01153 33.5404 2.08696C32.7815 2.98366 31.2802 2.74901 31.0822 2.69873L30.7192 2.52274Z" fill="#96BC40"/>
<path fill-rule="evenodd" clip-rule="evenodd" d="M6.90433 45.9999C6.00518 45.5642 5.42775 44.7848 5.19678 43.7456C5.98044 44.0222 6.51662 45.0865 6.90433 45.9999Z" fill="#DF2C66"/>
<path fill-rule="evenodd" clip-rule="evenodd" d="M16.5889 1.13135L17.224 0.687193C17.3643 0.611769 17.7355 0.469302 17.9005 0.410639C18.4284 0.21789 18.9316 0.083804 19.41 0C18.5356 0.611769 17.95 0.963746 16.5889 1.13135Z" fill="#F1E24C"/>
<path fill-rule="evenodd" clip-rule="evenodd" d="M35.8501 23.9178L23.6333 45.9834L35.2067 46.0001L42.2019 32.3149H45.6087L46.7554 45.9834H57.6441L54.5754 22.954H36.5018L35.8501 23.9178ZM37.6072 19.9706L41.9132 12.1685H52.9256L54.163 19.9706H37.6072Z" fill="#2BA7DF"/>
</g>
<defs>
<clipPath id="clip0_6593_2418">
<rect width="137" height="46" fill="white"/>
</clipPath>
</defs>
</svg>
