<?xml version="1.0" encoding="UTF-8"?>
<svg id="Layer_1" xmlns="http://www.w3.org/2000/svg" version="1.1" viewBox="0 0 141.14 42.59">
  <!-- Generator: Adobe Illustrator 29.8.1, SVG Export Plug-In . SVG Version: 2.1.1 Build 2)  -->
  <defs>
    <style>
      .st0 {
        fill: #f36c24;
      }

      .st1 {
        fill: #fff;
      }
    </style>
  </defs>
  <polygon class="st1" points="141.14 6.19 137.28 31.06 124.02 42.59 7.1 42.59 7.1 6.23 141.14 6.19"/>
  <polygon class="st0" points="54.73 0 50.21 36.23 0 36.13 4.51 0 54.73 0"/>
  <polygon class="st0" points="108.51 29.77 108.23 32.02 107.25 32.87 105.04 32.87 105.43 29.77 108.51 29.77"/>
  <polygon class="st0" points="104.35 29.78 103.96 32.88 16.7 32.88 17.1 29.78 104.35 29.78"/>
  <path class="st1" d="M19.86,14.16c-.28.86-.51,1.71-.71,2.53-.2.82-.35,1.67-.46,2.53l-.76,6.1h1.84l-.28,2.36-.86.74h-4.36l-.13-2.91c-.44.88-1.04,1.65-1.8,2.28s-1.72.95-2.88.95c-1.56,0-2.73-.59-3.51-1.77-.78-1.18-1.17-2.63-1.17-4.33,0-1.28.23-2.6.7-3.95.46-1.35,1.18-2.49,2.14-3.42.96-.93,2.21-1.39,3.75-1.39,2.07,0,3.42.88,4.05,2.66.11-.4.21-.79.3-1.19.1-.39.22-.78.36-1.19h3.8ZM11.45,16.98c-1.01,0-1.76.53-2.25,1.6-.48,1.06-.73,2.26-.73,3.59,0,2.32.68,3.48,2.02,3.48.86,0,1.6-.41,2.21-1.23.61-.82,1.01-1.7,1.2-2.63l.13-1.08c.13-1.18-.09-2.1-.65-2.75s-1.21-.98-1.94-.98h0Z"/>
  <path class="st1" d="M36.15,27.58l-.98.85h-7.37l.28-2.25.98-.85h.82l-1.99-2.56c-1.25.86-2,1.78-2.26,2.74s-.25,1.93.05,2.92h-4.4c-.55-1.5-.24-2.75.93-3.76,1.17-1.01,2.61-2.1,4.32-3.26l-3.61-4.14h-1.65l.28-2.25.98-.85h7.12l-.28,2.25-.98.85h-.88l1.74,2.25c1.08-.93,1.76-1.82,2.06-2.67.29-.85.33-1.75.1-2.67h4.4c.34.99.22,1.89-.35,2.69s-1.32,1.54-2.25,2.21c-.93.68-1.75,1.28-2.47,1.8l3.73,4.46h1.96l-.28,2.25h0Z"/>
  <path class="st1" d="M43.77,25.65c1.08,0,1.77-.3,2.09-.9.32-.6.53-1.08.63-1.44h3.36c-.12,1.32-1.04,2.99-2.17,3.97-1.13.98-2.63,1.47-4.51,1.47-1.69,0-3.13-.51-4.33-1.52-1.2-1.01-1.8-2.64-1.8-4.87s.68-4.26,2.02-5.95c1.35-1.69,3.25-2.53,5.69-2.53,1.52,0,2.76.36,3.73,1.08s1.45,1.67,1.45,2.85c0,1.05-.37,1.95-1.11,2.7-.74.75-2.07,1.32-3.98,1.72-1.1.23-2.28.41-3.54.54.06.91.27,1.61.63,2.12.36.51.97.76,1.84.76h0ZM42.79,20.17c1.27-.23,2.09-.54,2.47-.92s.57-.78.57-1.2c0-.53-.17-.9-.51-1.11-.34-.21-.71-.32-1.11-.32-.88,0-1.54.38-1.98,1.15s-.71,1.64-.84,2.61c.25-.04.5-.08.73-.11s.45-.07.66-.11h0Z"/>
  <path class="st0" d="M70.25,15.15l1.08-.98h.92l.38-3.07,1.23-1.27h2.85l-.54,4.33h3.86c.24,0,.43.21.4.46l-.22,1.63-1.08,1.01h-3.34l-.79,6.52c-.15,1.25.17,1.86.95,1.86.34,0,.67-.15,1-.46s.63-.77.9-1.87h2.42c.25,0,.45.23.39.48-.35,1.59-1.13,3.12-1.84,3.8-.78.76-1.88,1.14-3.29,1.14-1.52,0-2.69-.39-3.53-1.19-.83-.79-1.17-1.92-1-3.4l.85-6.9h-1.9l.28-2.12h0Z"/>
  <path class="st0" d="M81.72,22.29c0-2.17.63-4.12,1.9-5.84,1.27-1.72,3.22-2.58,5.85-2.58,2.17,0,3.76.62,4.78,1.86,1.01,1.25,1.52,2.83,1.52,4.74,0,2.47-.72,4.46-2.17,5.98-1.44,1.52-3.34,2.28-5.68,2.28-1.94,0-3.46-.55-4.55-1.66-1.1-1.11-1.65-2.7-1.65-4.79h0ZM85.99,21.95c0,1.14.15,2.04.46,2.7.3.66.92,1,1.85,1,1.2,0,2.05-.5,2.53-1.49s.73-2.17.73-3.54c0-2.42-.83-3.64-2.5-3.64-2.05,0-3.07,1.66-3.07,4.97h0Z"/>
  <path class="st0" d="M98.43,14.16h4.08l-.23,2.67c1.25-2.22,2.09-2.55,4.97-2.57.25,0,.44.22.4.46l-.4,2.62c-2.98-.85-4.16,1.37-4.46,3.29l-.7,4.7h2.76s-.4,3.1-.4,3.1h-8.52l.28-2.25.98-.85h.95l.98-8.07h-1.96l.28-2.25.98-.85h0Z"/>
  <g>
    <path class="st0" d="M114.69,21.14h.25c1.65,0,3.06.66,4.24,1.99v.13c-.29.33-1.08,1.04-2.37,2.16h-.13c-.59-.54-1.14-.81-1.65-.81h-.38c-.9,0-1.59.52-2.07,1.57-.08.23-.13.44-.13.64v.34c0,.87.48,1.55,1.44,2.03.28.14.62.21,1.02.21.7,0,1.35-.35,1.95-1.06h.08c1.43.97,2.3,1.61,2.63,1.9v.17c-1.28,1.64-2.85,2.46-4.7,2.46s-3.52-.83-4.83-2.5c-.7-1.04-1.06-2.17-1.06-3.39,0-2.44,1.2-4.24,3.6-5.38.75-.31,1.45-.47,2.12-.47h0Z"/>
    <path class="st0" d="M126,21.19h.08c2.2,0,3.92,1.06,5.17,3.18.42.85.64,1.73.64,2.63v.08c0,2.2-1.06,3.92-3.18,5.17-.87.42-1.74.64-2.63.64h-.08c-2.2,0-3.92-1.06-5.17-3.18-.42-.85-.64-1.72-.64-2.63v-.08c0-2.21,1.06-3.93,3.18-5.17.85-.42,1.72-.64,2.63-.64ZM123.67,26.9v.34c0,.91.58,1.62,1.74,2.12l.51.04h.25c1.04,0,1.78-.61,2.2-1.82.03-.15.04-.29.04-.42v-.25c0-1.06-.64-1.81-1.9-2.24h-.68c-.91,0-1.62.58-2.12,1.74l-.04.51Z"/>
  </g>
  <path class="st0" d="M55.11,14.18h3.96c.24,0,.42.2.4.44l-.19,2.13c.48-.91,1.9-2.53,4.94-2.53,1.28,0,2.28.25,3.13,1.05.85.8,1.28,1.88,1.08,3.57l-.79,6.52h1.38c.24,0,.43.21.4.45l-.23,1.86-.87.79h-4.95l.98-8.03c.15-1.22.06-2.1-.27-2.63-.33-.53-.88-.79-1.66-.79-.88,0-1.57.28-2.06.82-.48.55-.8,1.28-.95,2.18l-1.01,8.44h-3.92l1.36-11.17h-1.99l.28-2.25.98-.85h0Z"/>
</svg>