<svg width="324" height="105" viewBox="0 0 324 105" fill="none" xmlns="http://www.w3.org/2000/svg">
<path d="M162.216 78.8203C157.636 78.8203 153.523 77.7607 149.877 75.6416C146.231 73.5225 143.349 70.5033 141.229 66.584C139.11 62.6647 138.051 57.9935 138.051 52.5703C138.051 47.1016 139.099 42.4076 141.195 38.4883C143.314 34.5462 146.197 31.527 149.843 29.4307C153.511 27.3115 157.636 26.252 162.216 26.252C165.246 26.252 168.049 26.7077 170.624 27.6191C173.222 28.5306 175.512 29.818 177.494 31.4814C179.499 33.1449 181.14 35.1387 182.416 37.4629C183.692 39.7871 184.524 42.362 184.911 45.1875H173.803C173.529 43.7747 173.051 42.4987 172.367 41.3594C171.706 40.2201 170.875 39.2516 169.872 38.4541C168.892 37.6338 167.764 37.0072 166.488 36.5742C165.235 36.1413 163.868 35.9248 162.387 35.9248C159.63 35.9248 157.26 36.6084 155.277 37.9756C153.318 39.32 151.802 41.234 150.731 43.7178C149.66 46.2015 149.125 49.1523 149.125 52.5703C149.125 55.9655 149.649 58.9049 150.697 61.3887C151.768 63.8496 153.295 65.7637 155.277 67.1309C157.26 68.4753 159.63 69.1475 162.387 69.1475C163.868 69.1475 165.235 68.931 166.488 68.498C167.742 68.0651 168.858 67.4499 169.838 66.6523C170.84 65.832 171.672 64.8636 172.333 63.7471C173.017 62.6077 173.507 61.3431 173.803 59.9531H184.911C184.524 62.7786 183.692 65.3535 182.416 67.6777C181.14 69.9792 179.499 71.9616 177.494 73.625C175.512 75.2884 173.222 76.5758 170.624 77.4873C168.049 78.376 165.246 78.8203 162.216 78.8203ZM199.571 27.0723V78H189.043V27.0723H199.571ZM221.921 78.8203C218.252 78.8203 215.028 78.0456 212.248 76.4961C209.468 74.9238 207.292 72.7249 205.719 69.8994C204.17 67.0739 203.395 63.7699 203.395 59.9873C203.395 56.2048 204.17 52.9007 205.719 50.0752C207.292 47.2269 209.468 45.0166 212.248 43.4443C215.028 41.8721 218.252 41.0859 221.921 41.0859C225.612 41.0859 228.836 41.8721 231.593 43.4443C234.373 45.0166 236.538 47.2269 238.088 50.0752C239.66 52.9007 240.446 56.2048 240.446 59.9873C240.446 63.7699 239.66 67.0739 238.088 69.8994C236.538 72.7249 234.373 74.9238 231.593 76.4961C228.836 78.0456 225.612 78.8203 221.921 78.8203ZM221.921 70.3096C223.493 70.3096 224.86 69.9108 226.022 69.1133C227.207 68.293 228.13 67.1081 228.791 65.5586C229.452 64.0091 229.782 62.152 229.782 59.9873C229.782 57.777 229.452 55.9085 228.791 54.3818C228.13 52.8324 227.207 51.6475 226.022 50.8271C224.86 50.0068 223.493 49.5967 221.921 49.5967C220.371 49.5967 219.004 50.0068 217.819 50.8271C216.634 51.6475 215.711 52.8324 215.051 54.3818C214.39 55.9085 214.059 57.777 214.059 59.9873C214.059 62.152 214.39 64.0091 215.051 65.5586C215.711 67.1081 216.634 68.293 217.819 69.1133C219.004 69.9108 220.371 70.3096 221.921 70.3096ZM268.914 62.3457V41.9062H279.441V78H269.017V71.5742H268.914C268.094 73.6934 266.727 75.4251 264.813 76.7695C262.921 78.0911 260.586 78.752 257.806 78.752C255.231 78.752 252.918 78.1823 250.867 77.043C248.839 75.8809 247.233 74.2402 246.048 72.1211C244.863 69.9792 244.271 67.4499 244.271 64.5332V41.9062H254.798V62.6875C254.798 65.0345 255.425 66.846 256.678 68.1221C257.931 69.3981 259.606 70.0361 261.702 70.0361C263.092 70.0361 264.323 69.7513 265.394 69.1816C266.487 68.612 267.342 67.7575 267.957 66.6182C268.595 65.4561 268.914 64.0319 268.914 62.3457ZM298.92 78.752C295.799 78.752 293.064 77.9772 290.717 76.4277C288.37 74.8555 286.547 72.6566 285.248 69.8311C283.95 66.9827 283.3 63.6787 283.3 59.9189C283.3 56.2048 283.961 52.9463 285.283 50.1436C286.604 47.318 288.427 45.1191 290.751 43.5469C293.098 41.9518 295.799 41.1543 298.852 41.1543C300.424 41.1543 301.86 41.3594 303.159 41.7695C304.48 42.1797 305.654 42.8063 306.679 43.6494C307.705 44.4697 308.582 45.5065 309.311 46.7598H309.448V27.0723H319.975V78H309.584V72.5996H309.482C308.798 73.9668 307.932 75.1061 306.884 76.0176C305.836 76.929 304.64 77.6126 303.295 78.0684C301.974 78.5241 300.515 78.752 298.92 78.752ZM301.723 70.2412C303.364 70.2412 304.799 69.8197 306.03 68.9766C307.26 68.1107 308.217 66.903 308.901 65.3535C309.584 63.804 309.926 61.9925 309.926 59.9189C309.926 57.8226 309.584 56.0111 308.901 54.4844C308.217 52.9349 307.26 51.7386 306.03 50.8955C304.799 50.0524 303.364 49.6309 301.723 49.6309C300.151 49.6309 298.784 50.041 297.622 50.8613C296.459 51.6589 295.559 52.821 294.921 54.3477C294.283 55.8743 293.964 57.7314 293.964 59.9189C293.964 62.0837 294.283 63.9408 294.921 65.4902C295.559 67.0169 296.459 68.1904 297.622 69.0107C298.784 69.8311 300.151 70.2412 301.723 70.2412Z" fill="#1D1D1D"/>
<path d="M83.8558 0H21.1442C9.46657 0 0 9.46657 0 21.1442V83.8558C0 95.5334 9.46657 105 21.1442 105H83.8558C95.5334 105 105 95.5334 105 83.8558V21.1442C105 9.46657 95.5334 0 83.8558 0Z" fill="#25B9FF"/>
<path d="M84.7444 43.9503C80.5519 37.9207 73.486 34.4348 66.1374 34.9059C62.9812 29.206 57.1401 25.4375 50.3096 25.0136C45.5519 24.7309 40.7471 26.3796 37.0257 29.5829C34.4819 31.7969 32.6448 34.3406 31.5142 37.2141C30.8547 38.9099 29.3473 39.9934 27.7457 39.9934H16.4873V49.4146H27.7457C33.2572 49.4146 38.2033 45.9759 40.276 40.6529C40.8413 39.1926 41.7834 37.9207 43.1966 36.6959C45.0337 35.0943 47.4362 34.2464 49.6973 34.3877C53.0889 34.6233 55.4913 36.1778 56.9987 38.1091C58.6004 39.8992 59.4954 42.6784 60.0135 45.4577C63.0284 44.6098 66.3258 43.9032 69.4819 44.4214C72.0728 44.8453 74.4752 46.2114 76.2181 48.237C76.5008 48.5667 76.7834 48.8965 77.0189 49.2733C79.28 52.5237 79.704 56.5277 78.1966 60.4846C76.8305 64.1589 71.7901 67.5035 67.5977 67.5035H34.8117C30.3366 67.5035 26.6623 64.1589 26.097 59.8722H16.6757C17.2881 69.3877 25.1549 76.9247 34.8117 76.9247H67.6448C75.7471 76.9247 84.2733 71.1778 87.0526 63.8292C89.6434 56.9517 88.7955 49.6973 84.7915 43.9032L84.7444 43.9503Z" fill="white"/>
</svg>
