<svg width="44" height="20" viewBox="0 0 44 20" fill="none" xmlns="http://www.w3.org/2000/svg">
<line y1="1.48184" x2="43.6856" y2="1.48184" stroke="#D0CFCF" stroke-width="1.03631"/>
<line y1="19.1239" x2="43.6856" y2="19.1239" stroke="#D0CFCF" stroke-width="1.03631"/>
<line y1="4.35196" x2="13.1617" y2="4.35196" stroke="#D0CFCF" stroke-width="1.03631"/>
<line x1="3.01172" y1="7.3627" x2="10.2227" y2="7.3627" stroke="#D0CFCF" stroke-width="1.03631"/>
<line x1="5.80859" y1="10.1625" x2="9.58908" y2="10.1625" stroke="#D0CFCF" stroke-width="1.03631"/>
<line x1="20.4375" y1="10.1625" x2="24.218" y2="10.1625" stroke="#D0CFCF" stroke-width="1.03631"/>
<line x1="34.8633" y1="10.1625" x2="38.6438" y2="10.1625" stroke="#D0CFCF" stroke-width="1.03631"/>
<line x1="5.80859" y1="13.2431" x2="13.1595" y2="13.2431" stroke="#D0CFCF" stroke-width="1.03631"/>
<line x1="20.4375" y1="13.2431" x2="27.7184" y2="13.2431" stroke="#D0CFCF" stroke-width="1.03631"/>
<line x1="34.8633" y1="13.2431" x2="42.1442" y2="13.2431" stroke="#D0CFCF" stroke-width="1.03631"/>
<line x1="17.5" y1="7.3627" x2="24.7109" y2="7.3627" stroke="#D0CFCF" stroke-width="1.03631"/>
<line x1="31.9922" y1="7.3627" x2="39.3431" y2="7.3627" stroke="#D0CFCF" stroke-width="1.03631"/>
<line x1="0.518155" y1="3.75" x2="0.518156" y2="16.6317" stroke="#D0CFCF" stroke-width="1.03631"/>
<line x1="12.2057" y1="3.75" x2="12.2057" y2="13.7613" stroke="#D0CFCF" stroke-width="1.03631"/>
<line x1="3.52987" y1="6.62061" x2="3.52987" y2="16.6319" stroke="#D0CFCF" stroke-width="1.03631"/>
<line x1="9.27206" y1="6.62061" x2="9.27206" y2="10.6811" stroke="#D0CFCF" stroke-width="1.03631"/>
<line x1="23.7642" y1="6.62061" x2="23.7642" y2="10.6811" stroke="#D0CFCF" stroke-width="1.03631"/>
<line x1="38.3971" y1="6.62061" x2="38.3971" y2="10.6811" stroke="#D0CFCF" stroke-width="1.03631"/>
<line x1="17.9478" y1="6.62061" x2="17.9478" y2="16.6319" stroke="#D0CFCF" stroke-width="1.03631"/>
<line x1="32.5103" y1="6.62061" x2="32.5103" y2="16.6319" stroke="#D0CFCF" stroke-width="1.03631"/>
<line x1="26.7721" y1="3.75" x2="26.7721" y2="13.7613" stroke="#D0CFCF" stroke-width="1.03631"/>
<line x1="41.4049" y1="3.75" x2="41.4049" y2="13.7613" stroke="#D0CFCF" stroke-width="1.03631"/>
<line x1="6.32675" y1="9.70117" x2="6.32675" y2="13.3416" stroke="#D0CFCF" stroke-width="1.03631"/>
<line x1="20.9557" y1="9.70117" x2="20.9557" y2="13.3416" stroke="#D0CFCF" stroke-width="1.03631"/>
<line x1="35.3814" y1="9.70117" x2="35.3814" y2="13.3416" stroke="#D0CFCF" stroke-width="1.03631"/>
<line x1="15.2174" y1="3.75" x2="15.2174" y2="16.6317" stroke="#D0CFCF" stroke-width="1.03631"/>
<line x1="29.7096" y1="3.75" x2="29.7096" y2="16.6317" stroke="#D0CFCF" stroke-width="1.03631"/>
<line x1="3.01172" y1="16.1142" x2="16.1734" y2="16.1142" stroke="#D0CFCF" stroke-width="1.03631"/>
<line x1="17.4297" y1="16.1142" x2="30.5914" y2="16.1142" stroke="#D0CFCF" stroke-width="1.03631"/>
<line x1="31.9922" y1="16.1142" x2="43.6837" y2="16.1142" stroke="#D0CFCF" stroke-width="1.03631"/>
<line x1="14.6992" y1="4.35196" x2="27.7209" y2="4.35196" stroke="#D0CFCF" stroke-width="1.03631"/>
<line x1="29.1914" y1="4.35196" x2="42.3531" y2="4.35196" stroke="#D0CFCF" stroke-width="1.03631"/>
</svg>
