<svg width="40" height="40" viewBox="0 0 40 40" fill="none" xmlns="http://www.w3.org/2000/svg">
<g id="Group 482500">
<path id="Ellipse 2874" d="M40 20C40 31.0457 31.0457 40 20 40C8.95431 40 0 31.0457 0 20C0 8.95431 8.95431 0 20 0C31.0457 0 40 8.95431 40 20Z" fill="#F8F8F8"/>
<g id="Group 8">
<path id="Vector" d="M29.9434 9.72705L29.2547 14.4069L14.2841 29.3874C13.7443 29.9282 12.8029 29.9282 12.2625 29.3874L10.2964 27.4193C10.0263 27.1491 9.87744 26.79 9.87744 26.408C9.87744 26.0259 10.0263 25.6669 10.2964 25.3967L25.267 10.4162L29.9434 9.72705ZM28.1934 13.8731L28.6063 11.0653L25.8004 11.4785L11.0933 26.1954C11.0363 26.2524 11.0049 26.328 11.0049 26.4086C11.0049 26.4892 11.0363 26.5648 11.0933 26.6215L13.0601 28.5896C13.174 28.7036 13.3726 28.7036 13.486 28.5896L28.1934 13.8731Z" fill="#1F272E"/>
<path id="Vector_2" d="M27.2343 15.5254L24.1397 12.4308L24.9132 11.6573L28.0078 14.7519L27.2343 15.5254Z" fill="#1F272E"/>
<path id="Vector_3" d="M15.1 27.8574L11.812 24.5694L12.6339 23.7475L15.9219 27.0355L15.1 27.8574Z" fill="#1F272E"/>
<path id="Vector_4" d="M13.8775 8.99979L19.5469 14.6213L18.7448 15.416L13.8776 10.5891L10.2704 14.1662L15.2297 19.0841L14.4282 19.8789L8.66776 14.1662L13.8775 8.99979Z" fill="#1F272E"/>
<path id="Vector_5" d="M24.9216 19.8791L30.668 25.7345L25.5004 31L19.7889 25.1808L20.5838 24.3708L25.5004 29.3803L29.0784 25.7345L24.1267 20.6889L24.9216 19.8791Z" fill="#1F272E"/>
<path id="Vector_6" d="M23.8991 28.582L23.1738 27.7762L24.6243 26.1644L25.3496 26.9703L23.8991 28.582Z" fill="#1F272E"/>
<path id="Vector_7" d="M21.5601 26.1641L20.7543 25.3582L22.366 23.7465L23.1719 24.5523L21.5601 26.1641Z" fill="#1F272E"/>
<path id="Vector_8" d="M14.3101 18.9141L13.5043 18.1082L15.116 16.4965L15.9219 17.3023L14.3101 18.9141Z" fill="#1F272E"/>
<path id="Vector_9" d="M11.8922 16.4961L11.0863 15.6902L12.6981 14.0785L13.5039 14.8844L11.8922 16.4961Z" fill="#1F272E"/>
</g>
</g>
</svg>
