<svg width="40" height="40" viewBox="0 0 40 40" fill="none" xmlns="http://www.w3.org/2000/svg">
<g id="Group 482501">
<circle id="Ellipse 2874" cx="20" cy="20" r="20" fill="#F8F8F8"/>
<g id="Group 6">
<path id="Vector" d="M23.1095 17.9181H22.087V11.5216C22.087 11.3363 21.9864 11.1649 21.8231 11.0713C21.6591 10.9777 21.4572 10.976 21.2924 11.0675L13.457 17.2596H8.77374C7.42762 17.2596 6.33203 18.3314 6.33203 19.6491V20.1961C6.33203 21.5135 7.42743 22.5852 8.77374 22.5852H9.04801L10.3339 27.3048C10.3961 27.5332 10.6074 27.692 10.8485 27.692H13.3732C13.3757 27.692 13.3782 27.6918 13.3804 27.692C13.6748 27.692 13.9131 27.4588 13.9131 27.1707C13.9131 27.0946 13.8965 27.0219 13.8665 26.9566L12.6753 22.5852H13.4553L21.2907 28.8315C21.3725 28.877 21.4634 28.8996 21.5543 28.8996C21.647 28.8996 21.7394 28.8761 21.8222 28.829C21.9862 28.7354 22.087 28.5638 22.087 28.3783V21.9812H23.1095C24.109 21.9812 24.9224 21.1851 24.9224 20.207V19.693C24.9224 18.7144 24.109 17.9181 23.1095 17.9181ZM11.2578 26.6491L10.1954 22.75H11.6176L12.68 26.6491H11.2578ZM7.39745 20.1961V19.6491C7.39745 18.9067 8.01488 18.3025 8.77351 18.3025H13.0081V21.5426H8.77351C8.01485 21.5426 7.39745 20.9383 7.39745 20.1961ZM21.0213 27.4815L14.0732 21.7297V18.1164L21.0207 12.4148V27.4815H21.0213ZM23.857 20.2067C23.857 20.6102 23.5217 20.938 23.1097 20.938H22.0872V18.9609H23.1097C23.5218 18.9609 23.857 19.2889 23.857 19.6921V20.2067Z" fill="#1F272E"/>
<path id="Vector_2" d="M26.1968 17.9158C26.3323 17.9158 26.4676 17.8601 26.5709 17.7481L30.3932 13.6055C30.5998 13.3819 30.5998 13.0186 30.3932 12.7949C30.1866 12.571 29.8518 12.571 29.6452 12.7949L25.8229 16.9374C25.6163 17.1611 25.6163 17.5244 25.8229 17.7481C25.926 17.8598 26.0613 17.9158 26.1968 17.9158H26.1968Z" fill="#1F272E"/>
<path id="Vector_3" d="M26.5711 22.5456C26.3645 22.339 26.0296 22.339 25.823 22.5456C25.6163 22.7521 25.6163 23.0872 25.823 23.2939L29.6463 27.1176C29.7496 27.2209 29.8852 27.2723 30.0205 27.2723C30.156 27.2723 30.2913 27.2209 30.3947 27.1176C30.6013 26.9111 30.6013 26.576 30.3947 26.3693L26.5711 22.5456Z" fill="#1F272E"/>
<path id="Vector_4" d="M32.8766 19.543H27.0006C26.7134 19.543 26.4805 19.725 26.4805 19.9498C26.4805 20.1746 26.7134 20.3566 27.0006 20.3566H32.8761C33.1632 20.3566 33.3962 20.1746 33.3962 19.9498C33.3962 19.725 33.1637 19.543 32.8766 19.543H32.8766Z" fill="#1F272E"/>
</g>
</g>
</svg>
