<svg width="17" height="17" viewBox="0 0 17 17" fill="none" xmlns="http://www.w3.org/2000/svg">
<g id="Group 1318">
<circle id="Ellipse 113" cx="8.69883" cy="8.30234" r="7.4" stroke="#525252"/>
<g id="Mask group">
<mask id="mask0_4726_18010" style="mask-type:alpha" maskUnits="userSpaceOnUse" x="0" y="0" width="17" height="17">
<circle id="Ellipse 114" cx="8.69883" cy="8.30234" r="7.4" fill="white" stroke="#171B1F"/>
</mask>
<g mask="url(#mask0_4726_18010)">
<path id="Rectangle 1985" d="M1.29883 9.29297H7.0215C7.6754 9.29297 8.2055 9.82306 8.2055 10.477V15.7063V15.7063C4.72376 15.4162 1.88326 12.7995 1.30888 9.35327L1.29883 9.29297Z" stroke="#525252"/>
<path id="Rectangle 1986" d="M8.20703 11.4613C8.20703 10.8074 8.73713 10.2773 9.39103 10.2773H15.607V10.2773C14.7141 13.2536 12.0909 15.3804 8.99427 15.6384L8.20703 15.704V11.4613Z" stroke="#525252"/>
</g>
</g>
<path id="Vector" d="M6.23701 7.81581C7.32685 7.81581 8.21034 6.93232 8.21034 5.84247C8.21034 4.75263 7.32685 3.86914 6.23701 3.86914C5.14716 3.86914 4.26367 4.75263 4.26367 5.84247C4.26367 6.93232 5.14716 7.81581 6.23701 7.81581Z" stroke="#525252" stroke-miterlimit="10"/>
<path id="Vector_2" d="M11.4161 8.78732C12.3697 8.78732 13.1428 8.01426 13.1428 7.06065C13.1428 6.10704 12.3697 5.33398 11.4161 5.33398C10.4625 5.33398 9.68945 6.10704 9.68945 7.06065C9.68945 8.01426 10.4625 8.78732 11.4161 8.78732Z" stroke="#525252" stroke-miterlimit="10"/>
</g>
</svg>
