<svg width="40" height="40" viewBox="0 0 40 40" fill="none" xmlns="http://www.w3.org/2000/svg">
<g id="Group 482500">
<path id="Ellipse 2874" d="M40 20C40 31.0457 31.0457 40 20 40C8.95431 40 0 31.0457 0 20C0 8.95431 8.95431 0 20 0C31.0457 0 40 8.95431 40 20Z" fill="#F8F8F8"/>
<path id="Vector" d="M19.652 11.181L19.6523 11.1812C19.7554 11.2592 19.9019 11.3048 20.066 11.3048C20.0887 11.3048 20.1112 11.3061 20.1342 11.3101C20.8921 11.3669 21.3798 11.9036 21.3796 12.5138L19.652 11.181ZM19.652 11.181C19.5866 11.1321 19.5485 11.0795 19.5485 11.0243C19.5485 10.9695 19.5869 10.9183 19.6525 10.8672C19.7557 10.7894 19.9021 10.7438 20.066 10.7438C20.2766 10.7438 20.4567 10.8155 20.5471 10.9335C20.7026 11.1369 20.9936 11.1765 21.1972 11.021C21.4007 10.8655 21.4403 10.5744 21.2848 10.3708L21.2848 10.3708M19.652 11.181L21.2848 10.3708M21.2848 10.3708C21.1033 10.1334 20.8124 9.94602 20.4639 9.86297V9.60405C20.4639 9.3481 20.2561 9.14044 20.0003 9.14044C19.7444 9.14044 19.5367 9.34831 19.5367 9.60405V9.90044C18.9939 10.0811 18.6212 10.531 18.6212 11.0241C18.6212 11.6274 19.1811 12.169 19.9311 12.2266C19.952 12.2291 19.9746 12.2318 20.0003 12.2318C20.132 12.2318 20.2476 12.2607 20.3285 12.3109C20.4082 12.3604 20.4522 12.4285 20.4522 12.5123C20.4522 12.5672 20.4146 12.6185 20.3484 12.6692C20.2452 12.7471 20.0987 12.7927 19.9347 12.7927C19.7242 12.7927 19.5441 12.7211 19.4537 12.603C19.2982 12.3996 19.0071 12.36 18.8034 12.517C18.6001 12.6724 18.5605 12.9634 18.716 13.167L18.716 13.167M21.2848 10.3708L18.716 13.167M18.716 13.167C18.8975 13.4045 19.1894 13.5918 19.5368 13.6748M18.716 13.167L19.5368 13.6748M19.5368 13.6748V13.9338C19.5368 14.1897 19.7447 14.3974 20.0005 14.3974C20.2564 14.3974 20.4641 14.1895 20.4641 13.9338V13.6374C21.0069 13.4566 21.3796 13.0055 21.3796 12.5138L19.5368 13.6748ZM30.344 15.8131H31.5861C31.8429 15.8131 32.0513 16.0207 32.05 16.2769C32.05 16.277 32.05 16.2771 32.05 16.2772M30.344 15.8131L23.3111 26.208C25.615 26.208 27.8257 25.2925 29.4551 23.6631C31.0845 22.0338 32 19.8232 32 17.5191V16.2769L32.05 16.2772M30.344 15.8131C28.0267 15.8131 25.8033 16.7339 24.1645 18.3726C22.5258 20.0113 21.6051 22.2347 21.6051 24.552V25.6261L20.4642 26.9953V15.5581C22.3532 15.3296 23.8188 13.7181 23.8188 11.7682C23.8188 9.66101 22.1078 7.95 20.0006 7.95C17.8935 7.95 16.1824 9.66101 16.1824 11.7682C16.1824 13.7194 17.648 15.3297 19.537 15.5581V23.5908L18.3834 22.6741V21.6667C18.3834 19.3495 17.4626 17.1261 15.8239 15.4873C14.185 13.8484 11.9629 12.9276 9.64447 12.9276H8.41362C8.15766 12.9276 7.95 13.1355 7.95 13.3912V14.6221C7.95 16.9393 8.87078 19.1627 10.5095 20.8015C12.1482 22.4402 14.3716 23.361 16.6889 23.361H17.7573L19.5357 24.7752V31.1228H13.3797C13.1237 31.1228 12.9161 31.3306 12.9161 31.5864C12.9161 31.8423 13.1239 32.05 13.3797 32.05H26.6213C26.8772 32.05 27.0849 31.8421 27.0849 31.5864C27.0849 31.3304 26.877 31.1228 26.6213 31.1228H20.4643V28.4443L22.2865 26.258M30.344 15.8131L22.2865 26.258M32.05 16.2772L32.05 17.5191C32.05 19.8364 31.1292 22.0598 29.4905 23.6985C27.8517 25.3372 25.6283 26.258 23.3111 26.258H22.2865M32.05 16.2772L22.2865 26.258M11.0959 16.6928L11.0956 16.6929C10.8694 16.8116 10.7817 17.0916 10.9005 17.319L10.9005 17.319C12.1324 19.6723 14.6712 21.4296 16.2753 22.4221C14.3552 22.3207 12.5338 21.5126 11.1655 20.1455C9.70076 18.6808 8.8788 16.6934 8.8788 14.6218V13.8546H9.64604C11.7173 13.8546 13.7049 14.6779 15.1698 16.1426C16.6347 17.6073 17.4578 19.5947 17.4578 21.6663V22.0685C16.7506 21.6541 15.6745 21.0103 14.6044 20.1603C13.4961 19.2799 12.3974 18.1807 11.7217 16.8893C11.6029 16.6616 11.323 16.5756 11.0959 16.6928ZM27.4723 20.1628C25.5453 23.136 23.5217 24.5165 22.5325 25.0598V24.5523C22.5325 22.481 23.3557 20.4935 24.8205 19.0285C26.2853 17.5638 28.2727 16.7405 30.3442 16.7405H31.1228L31.1226 17.519C31.1226 19.5902 30.2994 21.5778 28.8346 23.0427C27.5072 24.3701 25.7519 25.1702 23.892 25.3093C25.063 24.5039 26.6915 23.0745 28.251 20.6674L28.2511 20.6673C28.3895 20.4524 28.3287 20.1657 28.114 20.0258L28.1138 20.0257C27.899 19.8872 27.6123 19.9481 27.4724 20.1627L27.4723 20.1628ZM20.0005 14.6592C18.4051 14.6592 17.1096 13.3638 17.1096 11.7683C17.1096 10.1729 18.405 8.87736 20.0005 8.87736C21.596 8.87736 22.8915 10.1728 22.8915 11.7683C22.8915 13.3637 21.596 14.6592 20.0005 14.6592Z" fill="#1F272E" stroke="#1F272E" stroke-width="0.1"/>
</g>
</svg>
