<?xml version="1.0" encoding="UTF-8"?>
<svg xmlns="http://www.w3.org/2000/svg" id="Layer_1" data-name="Layer 1" viewBox="0 0 45 45">
  <defs>
    <style>.cls-1{fill:#f2f2f2;}.cls-2{fill:#078d44;}</style>
  </defs>
  <circle class="cls-1" cx="22.5" cy="22.5" r="20"></circle>
  <g id="LWPOLYLINE">
    <path class="cls-2" d="M28.4,21.23l5.4-9.37a15.1,15.1,0,0,0-2.93-2.42l-4.15,7.2a1.68,1.68,0,0,0,0,1.68Z"></path>
  </g>
  <g id="LWPOLYLINE-2" data-name="LWPOLYLINE">
    <path class="cls-2" d="M25.5,18.75l8.3,14.39a15.1,15.1,0,0,1-2.93,2.42l-7-12.22a1.68,1.68,0,0,1,0-1.68Z"></path>
  </g>
  <g id="LWPOLYLINE-3" data-name="LWPOLYLINE">
    <path class="cls-2" d="M16.89,21l1.66-2.88H7.81a15.14,15.14,0,0,0-.61,3.72h8.23A1.69,1.69,0,0,0,16.89,21Z"></path>
  </g>
  <g id="LWPOLYLINE-4" data-name="LWPOLYLINE">
    <path class="cls-2" d="M17.9,21.89,26.21,7.5a15.61,15.61,0,0,1,3.56,1.34L22.71,21.05a1.67,1.67,0,0,1-1.45.84Z"></path>
  </g>
  <g id="LWPOLYLINE-5" data-name="LWPOLYLINE">
    <path class="cls-2" d="M26.21,37.5a15.61,15.61,0,0,0,3.56-1.34L25.61,29a1.67,1.67,0,0,0-1.45-.84H20.8Z"></path>
  </g>
  <g id="LWPOLYLINE-6" data-name="LWPOLYLINE">
    <path class="cls-2" d="M24.33,26.87H7.83a15.63,15.63,0,0,1-.61-3.72h14a1.7,1.7,0,0,1,1.46.84Z"></path>
  </g>
</svg>
