<?xml version="1.0" encoding="UTF-8"?>
<svg id="Layer_1" xmlns="http://www.w3.org/2000/svg" version="1.1" viewBox="0 0 3011.14 716.72">
  <!-- Generator: Adobe Illustrator 29.8.1, SVG Export Plug-In . SVG Version: 2.1.1 Build 2)  -->
  <defs>
    <style>
      .st0 {
        fill: #f9ad42;
      }

      .st1 {
        fill: #e7262b;
      }

      .st2 {
        fill: #fff;
      }
    </style>
  </defs>
  <g id="Layer_2">
    <g id="Layer_1-2">
      <g id="_Group_3">
        <path id="_Path_" class="st1" d="M427.66,118.84c.03,12.73-3.69,25.19-10.7,35.81l78.05,101.67v-93.57c-.1-36-27.75-65.12-61.89-65.22h-9c2.35,6.86,3.55,14.06,3.54,21.31h0Z"/>
        <path id="_Path_2" class="st1" d="M80.62,244.22c-6.32-26.61,9-53.58,34.27-60.24,25.27-6.66,50.84,9.51,57.16,36.11,3.86,16.07-.2,33.01-10.93,45.58l55.24,106.92c14.12-4.99,29.34-6.01,44-2.95l73.16-199.89c-21.67-16.29-30.36-45.82-21.23-72.17H61.89C27.76,97.68.12,126.79,0,162.75v137.11l80.62-55.64h0Z"/>
        <path id="_Path_3" class="st1" d="M393.6,175.46c-7.9,3.98-16.62,6.06-25.47,6.07-2.04,0-4.08-.11-6.11-.32l-73.2,200.07c41,26.32,54,82.7,29.06,125.93s-78.45,56.94-119.45,30.63-54-82.7-29.06-125.93c5.27-9.14,12.09-17.3,20.17-24.09l-55.46-106.69c-13.19,2.44-26.77-1.17-37-9.85L0,338.39v215.54c.1,36,27.75,65.12,61.89,65.22h216.89c-4.37,52.51-73,97.57-71.89,97.57,90.84.42,157.23-40.13,188.1-97.57h38c34.14-.1,61.8-29.24,61.89-65.22v-246.33l-101.28-132.14h0Z"/>
      </g>
      <g id="_Group_4">
        <path id="_Path_4" class="st0" d="M572.97,409.22v144.78c.09,36,27.75,65.12,61.89,65.22h11.39c-11.12-31.9-4.88-67.65,16.29-93.29l-89.57-116.71h0Z"/>
        <path id="_Path_5" class="st0" d="M1006.09,97.58h-216.89C793.57,45.06,862.18,0,861.09,0c-90.84-.41-157.23,40.14-188.11,97.58h-38c-34.14.1-61.79,29.24-61.88,65.22v195.2l113,147.29c13.18-7.94,28.28-12.16,43.67-12.2,1.87-.05,3.74.05,5.59.28l40-176.93c-22-14.75-28.44-45.47-14.45-68.63s43.16-30,65.13-15.22c19.69,13.22,27.25,39.64,17.75,62.13l84.34,83.9c15.06-10.17,33.99-12.75,51.23-7l52.41-88.88c-14.28-19.82-10.61-48.08,8.2-63.13,7.33-5.92,16.45-9.16,25.87-9.18h2.27v-47.86c-.22-35.94-27.91-64.97-62.02-64.99h0Z"/>
        <path id="_Path_6" class="st0" d="M1057.54,300l-52.41,88.87c23.5,25.81,22.7,66.8-1.79,91.57s-63.38,23.92-86.88-1.89c-18.7-20.53-22.49-51.52-9.34-76.38l-84-83.72c-5.53,3.15-11.66,5.1-18,5.71l-40,176.74c43.34,19.71,64.45,71.73,48,118.38h192.74c34.14-.1,61.79-29.24,61.88-65.22v-253.18h-2.27c-2.67-.04-5.32-.33-7.93-.88h0Z"/>
      </g>
      <path id="_Compound_Path_" class="st2" d="M1326.04,563.29v48.49c.27,2.17-1.26,4.14-3.42,4.44-.35.06-.71.06-1.05,0h-129.4c-1.8.02-3.59-.12-5.36-.45-24.68-2.04-42.24-9.17-52.67-21.37-10.44-12.2-15.63-30.68-15.59-55.4v-234.49c-.27-2.17,1.26-4.15,3.42-4.45.35-.05.71-.05,1.05,0h55.79c2.09-.34,4.06,1.07,4.41,3.16,0,.04.02.09.02.13.06.37.06.75,0,1.12v239.84c0,9.79,5.81,14.68,17.43,14.68h120.88c2.11-.32,4.08,1.12,4.41,3.23,0,.03,0,.06.02.1.06.32.1.66.1.99h0Z"/>
      <path id="_Compound_Path_2" class="st2" d="M2259.43,563.29v48.49c.27,2.17-1.26,4.14-3.42,4.44-.35.06-.71.06-1.05,0h-129.39c-1.8.02-3.59-.12-5.36-.45-24.68-2.04-42.24-9.17-52.67-21.37-10.44-12.2-15.65-30.64-15.63-55.32v-234.57c-.27-2.17,1.26-4.15,3.42-4.45.35-.05.71-.05,1.05,0h55.77c2.09-.34,4.06,1.07,4.41,3.16,0,.04.02.09.02.13.06.37.06.75,0,1.12v239.84c0,9.79,5.81,14.68,17.43,14.68h121.01c2.11-.32,4.08,1.12,4.41,3.23,0,.03,0,.06.02.1.03.33.03.66,0,.99h0Z"/>
      <path id="_Compound_Path_2-2" class="st2" d="M1360.33,386.49h125.48c10.08-.28,20.02,2.26,28.73,7.34,7.72,4.71,14.27,11.12,19.16,18.74,5.01,7.84,8.64,16.48,10.74,25.54,2.26,9.24,3.42,18.72,3.48,28.23v145.46c.28,2.17-1.24,4.15-3.4,4.45-.35.05-.71.05-1.05,0h-155.45c-8.1.32-15.98-2.62-21.9-8.15-5.65-5.42-10.13-11.94-13.17-19.16-3.04-7.05-5.22-14.45-6.48-22.03-1.02-5.53-1.63-11.14-1.82-16.76.08-7.85.97-15.68,2.65-23.35,1.69-8.23,4.55-16.18,8.51-23.59,3.76-7.07,8.93-13.3,15.2-18.3,6.49-5.01,14.53-7.61,22.73-7.34h74.53c6.63.36,13.18-1.58,18.53-5.51,4.28-2.96,6.88-7.8,6.98-13.01-.13-4.49-1.69-8.8-4.45-12.34-2.56-3.89-6.92-6.21-11.57-6.17h-117.4c-2.11.33-4.09-1.1-4.42-3.21,0-.05-.02-.09-.02-.14-.04-.37-.04-.75,0-1.12v-44.96c-.37-2.15,1.05-4.21,3.19-4.63.41-.07.84-.07,1.24,0h-.02ZM1489.29,564.57c2.1.33,4.07-1.1,4.41-3.19,0-.04,0-.07.02-.11.05-.37.05-.74,0-1.1v-26.45c.27-2.16-1.24-4.14-3.4-4.45-.35-.05-.71-.05-1.05,0h-79.38c-4.03-.06-7.85,1.82-10.25,5.06-2.59,3.15-4.02,7.1-4.04,11.17-.08,4.79,1.49,9.46,4.45,13.23,2.99,3.82,7.63,5.96,12.49,5.73h76.76v.11h0Z"/>
      <path id="_Compound_Path_3" class="st2" d="M1716.41,594.09c-6.22,16.76-19.47,25.13-39.75,25.13-20.27,0-33.35-8.39-39.25-25.13l-77.16-204.96v-1.6c-.15-1.05.55-2.04,1.6-2.23.2-.03.41-.03.61,0h51.32c1.26-.15,2.52.16,3.56.88.84,1.04,1.45,2.24,1.8,3.53l51.73,139.59,2.23,4.79c-.43,1.98.8,3.93,2.77,4.41,1.93.37,3.8-.9,4.16-2.83,0-.03.02-.07.02-.11.1-.49.1-.98,0-1.47l2.23-4.79,52.67-139.59c.35-1.29.97-2.49,1.8-3.53,1.04-.72,2.3-1.03,3.56-.88h51.3c1.02-.19,2.01.48,2.2,1.5,0,.03,0,.06.02.1.03.22.03.44,0,.66v1.32l-77.45,205.22h.02,0Z"/>
      <path id="_Compound_Path_4" class="st2" d="M1833.73,386.49h125.49c10.08-.28,20.02,2.26,28.73,7.34,7.72,4.71,14.27,11.12,19.16,18.74,5,7.85,8.62,16.48,10.73,25.54,2.21,9.24,3.33,18.7,3.35,28.2v145.46c.27,2.17-1.26,4.15-3.42,4.45-.35.05-.71.05-1.05,0h-155.31c-8.1.32-15.97-2.61-21.88-8.15-5.65-5.42-10.14-11.93-13.18-19.16-3.03-7.06-5.22-14.45-6.48-22.03-1.02-5.53-1.63-11.14-1.8-16.76.07-7.85.97-15.68,2.65-23.35,1.69-8.23,4.54-16.18,8.49-23.59,3.77-7.07,8.94-13.29,15.2-18.3,6.49-5.01,14.53-7.61,22.73-7.34h74.53c6.63.36,13.18-1.59,18.55-5.51,4.28-2.97,6.86-7.8,6.98-13.01-.14-4.49-1.7-8.81-4.47-12.34-2.56-3.89-6.92-6.21-11.57-6.17h-117.4c-2.1.33-4.07-1.1-4.41-3.2,0-.04-.02-.08-.02-.12-.06-.37-.06-.75,0-1.12v-44.96c-.39-2.16,1.04-4.23,3.19-4.63.41-.07.82-.07,1.23,0h0ZM1962.7,564.57c2.1.33,4.07-1.1,4.41-3.19,0-.04,0-.07.02-.11.05-.37.05-.74,0-1.1v-26.45c.27-2.17-1.26-4.15-3.42-4.45-.35-.05-.71-.05-1.05,0h-79.43c-4.03-.06-7.85,1.82-10.25,5.06-2.59,3.15-4.02,7.1-4.04,11.17-.08,4.79,1.49,9.46,4.45,13.23,2.99,3.82,7.64,5.96,12.49,5.73h76.82v.11h0Z"/>
      <path id="_Compound_Path_6" class="st2" d="M2513.95,527.1c.34,14.68-1.23,29.35-4.66,43.64-2.34,10.11-7.13,19.5-13.95,27.32-6.62,6.9-15.05,11.78-24.32,14.09-11.54,2.86-23.39,4.19-35.28,3.98h-79.81c-11.73.41-23.38-2.11-33.89-7.34-8.55-4.52-15.89-11.02-21.4-18.96-5.45-7.98-9.25-16.97-11.17-26.45-2.12-9.92-3.19-20.04-3.19-30.18v-77.51c-.37-18.94,7.1-37.18,20.64-50.42,6.34-6.08,13.86-10.81,22.09-13.89,8.62-3.24,17.78-4.86,26.99-4.79h90.14c8.31.02,16.55,1.48,24.36,4.31,8.07,2.87,15.5,7.29,21.88,13.01,6.47,5.73,11.8,12.63,15.69,20.35,4.15,8.74,6.21,18.33,6,28v74.86l-.11-.02h0ZM2459.32,462.3c0-3.45-1.18-6.8-3.35-9.48-2.37-3.02-5.34-5.52-8.71-7.34-3.79-1.99-7.85-3.39-12.05-4.18-4.41-.88-8.89-1.32-13.39-1.32h-48.87c-3.89,0-7.76.37-11.57,1.1-3.67.67-7.2,1.94-10.46,3.75-3.12,1.83-5.79,4.34-7.8,7.34-2.16,3.1-3.28,6.81-3.19,10.58v70.52c-.24,5.17,1.07,10.29,3.76,14.7,2.42,3.74,5.7,6.84,9.57,9.04,3.85,2.21,8.08,3.7,12.47,4.41,4.12.7,8.3,1.07,12.49,1.1h41.21c9.81.29,19.49-2.26,27.88-7.34,7.08-3.74,11.59-11.01,11.8-19.01v-73.42l.23-.43h-.02Z"/>
      <path id="_Compound_Path_7" class="st2" d="M2768.69,527.1c.34,14.68-1.23,29.36-4.67,43.64-2.33,10.12-7.12,19.5-13.94,27.32-6.62,6.9-15.05,11.78-24.32,14.09-11.54,2.86-23.39,4.19-35.28,3.98h-79.68c-11.73.41-23.38-2.11-33.89-7.34-8.55-4.52-15.89-11.02-21.4-18.96-5.46-7.98-9.26-16.97-11.17-26.45-2.13-9.92-3.2-20.04-3.19-30.18v-77.51c-.39-18.93,7.06-37.17,20.57-50.42,6.34-6.08,13.87-10.81,22.11-13.89,8.62-3.24,17.77-4.86,26.98-4.79h90.14c8.3.05,16.53,1.54,24.32,4.41,8.07,2.87,15.51,7.29,21.9,13.01,6.48,5.86,11.78,12.9,15.61,20.75,4.15,8.74,6.2,18.33,5.99,28v74.49l-.06-.15h0ZM2713.83,462.3c0-3.45-1.18-6.8-3.35-9.48-2.37-3.02-5.34-5.52-8.71-7.34-3.79-1.99-7.85-3.4-12.05-4.18-4.41-.88-8.89-1.32-13.39-1.32h-48.79c-3.89,0-7.76.37-11.57,1.1-3.67.67-7.2,1.94-10.46,3.75-3.12,1.83-5.79,4.34-7.8,7.34-2.16,3.1-3.28,6.81-3.19,10.58v70.52c-.24,5.17,1.07,10.29,3.76,14.7,2.42,3.74,5.7,6.84,9.57,9.04,3.85,2.21,8.08,3.7,12.47,4.41,4.12.7,8.3,1.07,12.49,1.1h41.07c9.81.29,19.49-2.26,27.88-7.34,7.14-3.7,11.71-10.98,11.94-19.01v-73.42l.15-.43h-.02Z"/>
      <path id="_Compound_Path_8" class="st2" d="M2855.69,602.03c1.22,6.4-2.88,12.6-9.24,14-1.05.19-2.13.23-3.19.11h-29.91c-3.82.2-7.4-1.87-9.13-5.28-2.01-3.81-3.02-8.06-2.92-12.36v-182.92c.12-7.67,3.43-14.94,9.13-20.06,6.25-6.08,14.7-9.35,23.41-9.04h100.88c10.32-.09,20.53,2.09,29.91,6.39,9.09,4.04,17.38,9.69,24.47,16.66,6.9,6.98,12.41,15.2,16.23,24.24,3.83,8.92,5.8,18.51,5.79,28.22v149.42c.19,2.3-1.52,4.31-3.81,4.5-.36.02-.72,0-1.07-.08h-45.03c-2.12.33-4.1-1.12-4.43-3.24,0-.02,0-.04,0-.06-.04-.37-.04-.75,0-1.12v-139.85c.23-6.2-.92-12.36-3.33-18.07-2.04-4.47-5.27-8.29-9.35-11.03-4.24-2.73-8.97-4.6-13.94-5.51-5.74-1.08-11.59-1.61-17.43-1.6h-43.29c-3.37.04-6.61,1.29-9.13,3.53-2.46,1.68-4.02,4.37-4.26,7.34v155.74l-.35.06h0Z"/>
    </g>
  </g>
</svg>