<svg width="346" height="108" viewBox="0 0 346 108" fill="none" xmlns="http://www.w3.org/2000/svg">
<path d="M221.512 84.1694C216.182 84.1694 211.994 86.4286 211.994 89.3006V101.209C211.994 104.119 216.182 106.379 221.512 106.379C226.842 106.379 231.031 104.12 231.031 101.248V89.3006C231.031 86.4287 226.842 84.1694 221.512 84.1694ZM230.269 101.248C230.269 103.622 226.272 105.613 221.512 105.613C216.753 105.613 212.755 103.621 212.755 101.248V97.3417C214.202 99.1797 217.515 100.443 221.512 100.443C225.51 100.443 228.823 99.1796 230.269 97.3417V101.248ZM230.269 95.2741C230.269 97.6482 226.272 99.6392 221.512 99.6392C216.753 99.6392 212.755 97.648 212.755 95.2741V91.3682C214.202 93.2062 217.515 94.4698 221.512 94.4698C225.51 94.4698 228.823 93.2062 230.269 91.3682V95.2741ZM221.512 93.7041C216.753 93.7041 212.755 91.713 212.755 89.339C212.755 86.9651 216.753 84.9355 221.512 84.9355C226.272 84.9355 230.269 86.9266 230.269 89.3006C230.269 91.6745 226.272 93.7041 221.512 93.7041Z" fill="#C7C7C7" stroke="#C7C7C7" stroke-width="1.22816"/>
<path d="M215.727 57.4815H187.892C187.638 57.4815 187.431 57.2738 187.431 57.0199V35.7863C187.431 35.5324 187.638 35.3247 187.892 35.3247H210.718C210.972 35.3247 211.18 35.5324 211.18 35.7863V39.8484H215.704C215.957 39.8484 216.165 40.0561 216.165 40.31V57.0199C216.188 57.2968 215.98 57.4815 215.727 57.4815ZM188.354 56.5583H215.242V40.7716H210.718C210.464 40.7716 210.257 40.5639 210.257 40.31V36.2479H188.354V56.5583Z" fill="#C7C7C7" stroke="#C7C7C7" stroke-width="1.22816"/>
<path d="M215.727 40.379C215.611 40.379 215.496 40.3328 215.427 40.2636L210.857 36.1322C210.672 35.9707 210.649 35.6706 210.834 35.486C210.995 35.3014 211.295 35.2783 211.48 35.4629L216.05 39.5942C216.234 39.7558 216.258 40.0558 216.073 40.2405C215.981 40.3328 215.842 40.379 215.727 40.379Z" fill="#C7C7C7" stroke="#C7C7C7" stroke-width="0.872843"/>
<path d="M197.24 50.2343C197.124 50.2343 197.009 50.1882 196.917 50.0958L193.524 46.7262C193.432 46.6339 193.385 46.5185 193.385 46.4031C193.385 46.2877 193.432 46.1723 193.524 46.0799L196.894 42.7103C197.078 42.5256 197.355 42.5256 197.54 42.7103C197.725 42.8949 197.725 43.1719 197.54 43.3565L194.516 46.4031L197.563 49.4496C197.748 49.6342 197.748 49.9112 197.563 50.0958C197.471 50.1882 197.355 50.2343 197.24 50.2343Z" fill="#C7C7C7" stroke="#C7C7C7" stroke-width="1.22816"/>
<path d="M200.332 51.4806C200.286 51.4806 200.24 51.4806 200.194 51.4576C199.94 51.3883 199.825 51.1114 199.894 50.8806L202.848 41.6255C202.917 41.3716 203.194 41.2562 203.425 41.3255C203.679 41.3947 203.794 41.6717 203.725 41.9025L200.771 51.1575C200.702 51.3652 200.517 51.4806 200.332 51.4806Z" fill="#C7C7C7" stroke="#C7C7C7" stroke-width="1.22816"/>
<path d="M206.379 50.2343C206.264 50.2343 206.149 50.1882 206.056 50.0958C205.872 49.9112 205.872 49.6342 206.056 49.4496L209.103 46.4031L206.056 43.3565C205.872 43.1719 205.872 42.8949 206.056 42.7103C206.241 42.5256 206.518 42.5256 206.702 42.7103L210.072 46.0799C210.164 46.1723 210.211 46.2877 210.211 46.4031C210.211 46.5185 210.164 46.6339 210.072 46.7262L206.726 50.0958C206.633 50.1882 206.495 50.2343 206.379 50.2343Z" fill="#C7C7C7" stroke="#C7C7C7" stroke-width="1.22816"/>
<path d="M334.121 42.4116H301.112C294.965 42.4116 289.983 47.3943 289.983 53.5408V86.5489C289.983 92.6954 294.965 97.6781 301.112 97.6781H334.121C340.267 97.6781 345.25 92.6954 345.25 86.5489V53.5408C345.25 47.3943 340.267 42.4116 334.121 42.4116Z" fill="url(#paint0_radial_57_814)"/>
<path d="M334.592 65.5452C332.385 62.3716 328.666 60.5368 324.798 60.7847C323.137 57.7846 320.062 55.8011 316.467 55.5779C313.963 55.4292 311.434 56.297 309.475 57.983C308.136 59.1483 307.169 60.4872 306.574 61.9997C306.227 62.8923 305.434 63.4625 304.59 63.4625H298.665V68.4214H304.59C307.491 68.4214 310.095 66.6114 311.186 63.8096C311.483 63.041 311.979 62.3716 312.723 61.7269C313.69 60.8839 314.955 60.4376 316.145 60.512C317.93 60.636 319.195 61.4542 319.988 62.4707C320.831 63.4129 321.302 64.8758 321.575 66.3387C323.162 65.8924 324.897 65.5204 326.559 65.7932C327.922 66.0163 329.187 66.7354 330.104 67.8015C330.253 67.9751 330.402 68.1486 330.526 68.347C331.716 70.0578 331.939 72.1653 331.146 74.248C330.427 76.182 327.774 77.9424 325.567 77.9424H308.31C305.954 77.9424 304.02 76.182 303.723 73.9257H298.764C299.086 78.9342 303.227 82.9013 308.31 82.9013H325.592C329.856 82.9013 334.344 79.8763 335.807 76.0084C337.171 72.3885 336.724 68.5701 334.617 65.5204L334.592 65.5452Z" fill="#FFFAE9"/>
<path fill-rule="evenodd" clip-rule="evenodd" d="M180.114 83.5797L191.031 88.3225C191.142 88.3708 191.211 88.4816 191.204 88.6024L191.084 101.435C191.082 101.547 191.015 101.648 190.914 101.693L179.667 106.728C179.587 106.763 179.496 106.761 179.42 106.722L168.684 101.693C168.582 101.645 168.517 101.542 168.519 101.429L168.484 88.7845C168.475 88.6596 168.548 88.5428 168.666 88.4985L179.884 83.5793C179.958 83.5471 180.04 83.5471 180.114 83.5793L180.114 83.5797ZM179.263 106.017V93.9477L169.058 89.2149L169.091 101.251L179.263 106.016L179.263 106.017ZM190.628 89.0296L179.837 93.842V106.026L190.513 101.247L190.627 89.0288L190.628 89.0296ZM190.207 88.5896L179.999 84.1538L169.467 88.7728L179.433 93.395L190.207 88.5896Z" fill="#C7C7C7" stroke="#C7C7C7" stroke-width="1.36506"/>
<mask id="path-10-inside-1_57_814" fill="white">
<rect x="0.75" y="0.654297" width="150.45" height="90.6081" rx="1.22816"/>
</mask>
<rect x="0.75" y="0.654297" width="150.45" height="90.6081" rx="1.22816" stroke="#C7C7C7" stroke-width="4.91265" mask="url(#path-10-inside-1_57_814)"/>
<mask id="path-11-inside-2_57_814" fill="white">
<rect x="13.9528" y="52.4492" width="43.5998" height="22.721" rx="1.84225"/>
</mask>
<rect x="13.9528" y="52.4492" width="43.5998" height="22.721" rx="1.84225" stroke="#C7C7C7" stroke-width="4.91265" mask="url(#path-11-inside-2_57_814)"/>
<circle cx="128.886" cy="9.44436" r="1.69045" fill="#C7C7C7"/>
<circle cx="135.648" cy="9.44436" r="1.69045" fill="#C7C7C7"/>
<circle cx="142.41" cy="9.44436" r="1.69045" fill="#C7C7C7"/>
<path d="M140.719 24.9966L15.6259 24.9966" stroke="#C7C7C7" stroke-width="2.45633" stroke-linecap="round"/>
<path d="M268.797 72.7139L115.276 72.7139" stroke="white" stroke-width="12.2816" stroke-linecap="round"/>
<path d="M268.797 72.7139L117.733 72.7139" stroke="#171717" stroke-width="2.45633" stroke-linecap="round"/>
<path d="M108.939 34.4634L15.6259 34.4634" stroke="#C7C7C7" stroke-width="2.45633" stroke-linecap="round"/>
<path d="M108.939 43.9297L15.6259 43.9297" stroke="#C7C7C7" stroke-width="2.45633" stroke-linecap="round"/>
<path d="M277.341 73.3704C277.821 72.8908 277.821 72.1131 277.341 71.6335L269.525 63.8175C269.046 63.3379 268.268 63.3379 267.788 63.8175C267.309 64.2972 267.309 65.0748 267.788 65.5544L274.736 72.502L267.788 79.4495C267.309 79.9291 267.309 80.7068 267.788 81.1864C268.268 81.666 269.046 81.666 269.525 81.1864L277.341 73.3704ZM276.473 71.2738L274.631 71.2738L274.631 73.7301L276.473 73.7301L276.473 71.2738Z" fill="#171717"/>
<defs>
<radialGradient id="paint0_radial_57_814" cx="0" cy="0" r="1" gradientUnits="userSpaceOnUse" gradientTransform="translate(276.523 15.0214) rotate(54.3345) scale(98.8163 98.8168)">
<stop stop-color="#40D1FF"/>
<stop offset="1" stop-color="#0097FF"/>
</radialGradient>
</defs>
</svg>
