<svg width="500" height="500" viewBox="0 0 500 500" fill="none" xmlns="http://www.w3.org/2000/svg">
<rect width="500" height="500" fill="white"/>
<path fill-rule="evenodd" clip-rule="evenodd" d="M75 225.05H108.432V233.893H75V225.05ZM75 275.332V247.612H106.215V256.471H85.671V275.332H75Z" fill="#2490EF"/>
<path d="M163.95 225.545V275H155.982L132.679 241.314H132.269V275H123.31V225.545H131.327L154.605 259.256H155.04V225.545H163.95ZM188.825 275.724C185.203 275.724 182.063 274.928 179.407 273.334C176.751 271.74 174.69 269.51 173.225 266.645C171.776 263.779 171.052 260.431 171.052 256.599C171.052 252.768 171.776 249.411 173.225 246.53C174.69 243.648 176.751 241.411 179.407 239.817C182.063 238.223 185.203 237.426 188.825 237.426C192.447 237.426 195.586 238.223 198.242 239.817C200.899 241.411 202.951 243.648 204.4 246.53C205.865 249.411 206.597 252.768 206.597 256.599C206.597 260.431 205.865 263.779 204.4 266.645C202.951 269.51 200.899 271.74 198.242 273.334C195.586 274.928 192.447 275.724 188.825 275.724ZM188.873 268.722C190.837 268.722 192.479 268.182 193.799 267.104C195.119 266.009 196.101 264.544 196.745 262.709C197.405 260.874 197.735 258.829 197.735 256.575C197.735 254.305 197.405 252.253 196.745 250.418C196.101 248.566 195.119 247.093 193.799 245.999C192.479 244.904 190.837 244.357 188.873 244.357C186.861 244.357 185.186 244.904 183.85 245.999C182.53 247.093 181.54 248.566 180.88 250.418C180.236 252.253 179.914 254.305 179.914 256.575C179.914 258.829 180.236 260.874 180.88 262.709C181.54 264.544 182.53 266.009 183.85 267.104C185.186 268.182 186.861 268.722 188.873 268.722ZM222.078 253.267V275H213.337V237.909H221.692V244.212H222.127C222.98 242.135 224.34 240.485 226.208 239.261C228.091 238.038 230.417 237.426 233.186 237.426C235.746 237.426 237.976 237.973 239.875 239.068C241.791 240.163 243.272 241.749 244.318 243.825C245.381 245.902 245.904 248.421 245.888 251.384V275H237.146V252.736C237.146 250.257 236.503 248.317 235.215 246.916C233.943 245.516 232.18 244.815 229.926 244.815C228.397 244.815 227.037 245.153 225.845 245.83C224.67 246.49 223.744 247.447 223.068 248.703C222.408 249.959 222.078 251.48 222.078 253.267ZM254.094 288.909V237.909H262.691V244.043H263.198C263.649 243.141 264.285 242.183 265.106 241.169C265.927 240.139 267.037 239.261 268.438 238.537C269.839 237.796 271.626 237.426 273.799 237.426C276.664 237.426 279.248 238.159 281.55 239.624C283.868 241.072 285.704 243.222 287.056 246.071C288.424 248.904 289.109 252.382 289.109 256.503C289.109 260.576 288.44 264.037 287.104 266.886C285.768 269.736 283.949 271.909 281.647 273.406C279.345 274.903 276.737 275.652 273.823 275.652C271.698 275.652 269.935 275.298 268.535 274.589C267.134 273.881 266.007 273.028 265.154 272.03C264.317 271.016 263.665 270.058 263.198 269.156H262.836V288.909H254.094ZM262.667 256.455C262.667 258.853 263.005 260.954 263.681 262.757C264.373 264.56 265.363 265.969 266.651 266.983C267.955 267.981 269.533 268.48 271.384 268.48C273.316 268.48 274.934 267.965 276.238 266.935C277.542 265.888 278.524 264.464 279.184 262.661C279.86 260.841 280.198 258.773 280.198 256.455C280.198 254.152 279.868 252.108 279.208 250.321C278.548 248.534 277.566 247.134 276.262 246.119C274.958 245.105 273.332 244.598 271.384 244.598C269.517 244.598 267.931 245.089 266.627 246.071C265.323 247.053 264.333 248.429 263.657 250.2C262.997 251.971 262.667 254.056 262.667 256.455ZM295.914 275V237.909H304.39V244.091H304.777C305.453 241.95 306.612 240.3 308.254 239.141C309.912 237.965 311.804 237.378 313.929 237.378C314.411 237.378 314.951 237.402 315.546 237.45C316.158 237.482 316.665 237.539 317.068 237.619V245.661C316.697 245.532 316.11 245.419 315.305 245.322C314.516 245.21 313.751 245.153 313.011 245.153C311.417 245.153 309.984 245.5 308.713 246.192C307.457 246.868 306.467 247.81 305.742 249.017C305.018 250.224 304.656 251.617 304.656 253.195V275H295.914ZM336.847 275.724C333.225 275.724 330.086 274.928 327.429 273.334C324.773 271.74 322.712 269.51 321.247 266.645C319.799 263.779 319.074 260.431 319.074 256.599C319.074 252.768 319.799 249.411 321.247 246.53C322.712 243.648 324.773 241.411 327.429 239.817C330.086 238.223 333.225 237.426 336.847 237.426C340.469 237.426 343.608 238.223 346.264 239.817C348.921 241.411 350.973 243.648 352.422 246.53C353.887 249.411 354.62 252.768 354.62 256.599C354.62 260.431 353.887 263.779 352.422 266.645C350.973 269.51 348.921 271.74 346.264 273.334C343.608 274.928 340.469 275.724 336.847 275.724ZM336.895 268.722C338.859 268.722 340.501 268.182 341.821 267.104C343.141 266.009 344.123 264.544 344.767 262.709C345.427 260.874 345.757 258.829 345.757 256.575C345.757 254.305 345.427 252.253 344.767 250.418C344.123 248.566 343.141 247.093 341.821 245.999C340.501 244.904 338.859 244.357 336.895 244.357C334.883 244.357 333.209 244.904 331.872 245.999C330.552 247.093 329.562 248.566 328.902 250.418C328.258 252.253 327.936 254.305 327.936 256.575C327.936 258.829 328.258 260.874 328.902 262.709C329.562 264.544 330.552 266.009 331.872 267.104C333.209 268.182 334.883 268.722 336.895 268.722ZM380.146 237.909V244.67H358.22V237.909H380.146ZM363.701 275V234.408C363.701 231.912 364.216 229.836 365.247 228.178C366.293 226.519 367.694 225.28 369.448 224.459C371.203 223.638 373.151 223.227 375.292 223.227C376.805 223.227 378.15 223.348 379.325 223.589C380.5 223.831 381.369 224.048 381.933 224.241L380.194 231.003C379.824 230.89 379.357 230.777 378.794 230.665C378.23 230.536 377.602 230.472 376.91 230.472C375.284 230.472 374.133 230.866 373.457 231.655C372.797 232.428 372.467 233.538 372.467 234.987V275H363.701ZM386.312 275V237.909H395.053V275H386.312ZM390.707 232.645C389.322 232.645 388.131 232.186 387.133 231.268C386.135 230.335 385.636 229.216 385.636 227.912C385.636 226.592 386.135 225.473 387.133 224.555C388.131 223.622 389.322 223.155 390.707 223.155C392.107 223.155 393.299 223.622 394.281 224.555C395.279 225.473 395.778 226.592 395.778 227.912C395.778 229.216 395.279 230.335 394.281 231.268C393.299 232.186 392.107 232.645 390.707 232.645ZM421.884 237.909V244.67H400.561V237.909H421.884ZM405.825 229.023H414.567V263.844C414.567 265.019 414.744 265.92 415.098 266.548C415.468 267.16 415.951 267.579 416.547 267.804C417.143 268.029 417.803 268.142 418.527 268.142C419.074 268.142 419.573 268.102 420.024 268.021C420.491 267.941 420.845 267.868 421.087 267.804L422.56 274.638C422.093 274.799 421.425 274.976 420.555 275.169C419.702 275.362 418.656 275.475 417.416 275.507C415.227 275.571 413.255 275.241 411.5 274.517C409.745 273.777 408.353 272.634 407.322 271.088C406.308 269.543 405.809 267.611 405.825 265.293V229.023Z" fill="black"/>
</svg>
