<svg width="62" height="1" viewBox="0 0 62 1" fill="none" xmlns="http://www.w3.org/2000/svg">
<g clip-path="url(#clip0_192_3149)">
<path d="M22.2754 -6.49121L22.2752 5.49121C22.2752 6.46587 21.4852 7.25585 20.5105 7.25586C19.5359 7.25586 18.7459 6.46587 18.7459 5.49121L18.7461 -6.49121C18.7461 -7.46587 19.5361 -8.25586 20.5107 -8.25586C21.4854 -8.25585 22.2754 -7.46587 22.2754 -6.49121Z" stroke="#EDEDED" stroke-width="1.48801"/>
<path d="M29.2441 -6.49121L29.244 5.49121C29.2439 6.46587 28.4539 7.25585 27.4793 7.25586C26.5046 7.25586 25.7147 6.46587 25.7147 5.49121L25.7148 -6.49121C25.7148 -7.46587 26.5048 -8.25586 27.4795 -8.25586C28.4541 -8.25585 29.2441 -7.46587 29.2441 -6.49121Z" stroke="#EDEDED" stroke-width="1.48801"/>
<path d="M36.2129 -6.49121L36.2127 5.49121C36.2127 6.46587 35.4227 7.25585 34.448 7.25586C33.4734 7.25586 32.6834 6.46587 32.6834 5.49121L32.6836 -6.49121C32.6836 -7.46587 33.4736 -8.25586 34.4482 -8.25586C35.4229 -8.25585 36.2129 -7.46587 36.2129 -6.49121Z" stroke="#EDEDED" stroke-width="1.48801"/>
<path d="M43.1816 -6.49121L43.1815 5.49121C43.1814 6.46587 42.3914 7.25585 41.4168 7.25586C40.4421 7.25586 39.6522 6.46587 39.6522 5.49121L39.6523 -6.49121C39.6523 -7.46587 40.4423 -8.25586 41.417 -8.25586C42.3916 -8.25585 43.1816 -7.46587 43.1816 -6.49121Z" stroke="#EDEDED" stroke-width="1.48801"/>
</g>
<defs>
<clipPath id="clip0_192_3149">
<rect width="62" height="1" fill="white"/>
</clipPath>
</defs>
</svg>
