<svg width="112" height="17" viewBox="0 0 112 17" fill="none" xmlns="http://www.w3.org/2000/svg">
<path d="M108.789 8.19953C108.837 7.26353 108.357 6.47153 107.325 6.47153C106.125 6.47153 104.229 7.55153 102.285 10.3835C100.293 13.2875 100.749 16.3355 102.981 16.3355C104.133 16.3355 105.213 15.4475 105.981 14.4635C105.981 15.5915 106.653 16.3595 107.949 16.4315C109.269 16.5035 110.781 15.1835 111.405 13.8635C111.717 13.1915 111.717 12.5915 111.621 12.3755C111.525 12.1595 111.357 12.1835 111.237 12.3995C110.397 14.0555 109.077 15.6875 108.093 15.7355C107.277 15.7835 107.301 14.7515 107.901 13.4075C108.477 12.1355 109.677 10.3355 110.205 9.25553C110.781 8.05553 110.589 7.02353 110.229 6.59153C110.061 6.37553 109.869 6.42353 109.653 6.73553C109.389 7.11953 109.101 7.62353 108.789 8.19953ZM106.701 11.9195C105.477 14.0315 104.229 15.5675 103.245 15.5435C102.309 15.5195 102.621 13.4075 103.893 11.3435C105.213 9.20753 106.965 7.64753 107.733 7.71953C108.429 7.79153 108.213 9.27953 106.701 11.9195Z" fill="black"/>
<path d="M99.1448 6.66476C98.1128 8.56076 97.1048 10.5768 96.6008 11.7768C95.4488 14.5368 96.7208 16.3128 98.3048 16.3608C100.225 16.4328 101.809 14.3208 102.121 13.6248C102.361 13.0728 102.481 12.6408 102.361 12.2568C102.265 11.9208 102.001 11.9688 101.857 12.2568C100.969 14.0568 99.6008 15.7608 98.5208 15.7128C97.5128 15.6648 97.2488 14.1768 98.0408 12.4248C98.9528 10.4088 100.321 8.08076 101.257 6.47276C101.857 6.37676 102.601 6.30476 103.129 6.37676C103.489 6.37676 103.585 6.20876 103.417 5.92076C103.225 5.60876 102.865 5.17676 101.929 5.20076C102.505 3.95276 102.505 3.16076 102.241 2.48876C102.121 2.20076 101.881 2.17676 101.665 2.48876C101.257 3.01676 100.585 4.14476 99.8408 5.46476C99.1928 5.53676 98.5208 5.58476 97.8488 5.56076C97.4888 5.53676 97.3448 5.70476 97.5848 6.04076C97.7768 6.30476 98.3288 6.66476 99.1448 6.66476Z" fill="black"/>
<path d="M96.9363 13.8168C97.2963 13.0968 97.2963 12.5928 97.1763 12.3288C97.0803 12.1368 96.8403 12.1368 96.7443 12.3528C96.0003 13.8888 94.6803 15.6168 93.6963 15.6648C92.8083 15.7128 92.6883 14.5848 93.2883 13.1928C93.8403 11.9448 94.9923 10.1928 95.5203 9.13681C96.1443 7.91281 95.4003 6.71281 94.5843 6.61681C93.9363 6.54481 92.6883 7.33681 91.7043 8.29681C92.7363 6.68881 94.0083 4.74481 94.5843 3.78481C95.4963 2.27281 95.5683 1.07281 95.2563 0.376813C95.1363 0.088812 94.8963 0.0648118 94.6803 0.352812C92.7363 2.77681 87.7443 11.2248 86.9043 13.6248C86.4003 15.0648 86.6163 15.7368 87.0003 16.1688C87.1443 16.3368 87.3123 16.2888 87.4083 16.0728C87.9843 14.6088 88.8723 12.9288 89.7363 11.5128C91.1283 9.23281 93.7443 7.60081 94.0803 7.79281C94.4643 8.00881 92.3763 10.5048 91.5843 12.8328C90.8643 14.9208 91.3683 16.3848 93.3843 16.3848C94.8003 16.3848 96.2643 15.1848 96.9363 13.8168Z" fill="black"/>
<path d="M82.1463 11.8954C83.8263 13.2634 85.4343 12.6394 86.6103 11.1994C87.6183 9.97544 87.8103 8.51144 87.3783 7.93544C86.9943 7.40744 86.5623 7.04744 85.9623 6.68744C84.7623 5.99144 82.3143 7.23944 80.7543 10.3354C79.1943 13.4314 80.2503 16.4314 83.2983 16.3834C85.1463 16.3594 86.9943 15.2554 88.0023 13.7914C88.4343 13.1674 88.5063 12.4954 88.4103 12.3034C88.3143 12.0874 88.1223 12.0874 88.0023 12.2794C86.9703 13.8634 85.2183 15.7834 83.2263 15.6874C81.9543 15.6154 81.3783 14.1034 82.1463 11.8954ZM82.3623 11.3674C82.4103 11.2474 82.4823 11.1034 82.5543 10.9594C83.6823 8.67944 85.6743 7.23944 86.1783 7.64744C86.5143 7.91144 85.9863 9.15944 85.2183 10.1674C84.5223 11.0794 83.5383 12.1114 82.3623 11.3674Z" fill="black"/>
<path d="M73.1359 5.55954C72.0799 8.75154 71.2879 12.0635 71.0719 13.4315C70.8319 14.9195 71.1919 15.7595 71.9839 16.3355C72.1759 16.4795 72.2959 16.4075 72.4159 16.1675C74.1439 12.9515 76.9279 9.27954 79.6639 5.96754C78.1039 8.96754 76.5679 12.3275 76.2079 13.7435C75.7999 15.3275 76.0879 16.0475 76.4719 16.3595C76.6639 16.5275 76.7599 16.5275 76.8559 16.2875C78.0559 12.8315 80.4559 7.98354 82.1359 4.86354C82.7839 3.66354 83.0239 2.34354 82.0639 1.35954C81.7759 1.07154 81.5839 1.09554 81.3679 1.43154C78.7279 5.53554 75.2239 9.11154 72.6079 13.3835C73.5199 10.0235 74.3839 7.21554 75.1519 4.91154C75.7759 3.01554 75.5119 2.17554 74.5759 1.35954C74.2639 1.09554 74.0239 1.19154 73.8079 1.50354C71.2159 5.03154 67.3279 11.4395 66.4399 13.7195C65.8879 15.1595 66.1519 15.9755 66.4879 16.3355C66.6559 16.5275 66.7999 16.5275 66.8959 16.2875C68.3119 13.0715 70.9999 8.77554 73.1359 5.55954Z" fill="black"/>
<path d="M62.4637 13.8168C62.8237 13.0968 62.8237 12.5928 62.7037 12.3288C62.6077 12.1368 62.3677 12.1368 62.2717 12.3528C61.5277 13.8888 60.2076 15.6168 59.2236 15.6648C58.3356 15.7128 58.2157 14.5848 58.8157 13.1928C59.3677 11.9448 60.5197 10.1928 61.0477 9.13681C61.6717 7.91281 60.9276 6.71281 60.1116 6.61681C59.4636 6.54481 58.2157 7.33681 57.2317 8.29681C58.2637 6.68881 59.5356 4.74481 60.1116 3.78481C61.0236 2.27281 61.0957 1.07281 60.7837 0.376813C60.6637 0.088812 60.4236 0.0648118 60.2076 0.352812C58.2636 2.77681 53.2716 11.2248 52.4316 13.6248C51.9276 15.0648 52.1436 15.7368 52.5276 16.1688C52.6716 16.3368 52.8396 16.2888 52.9356 16.0728C53.5116 14.6088 54.3996 12.9288 55.2636 11.5128C56.6556 9.23281 59.2717 7.60081 59.6077 7.79281C59.9917 8.00881 57.9036 10.5048 57.1116 12.8328C56.3916 14.9208 56.8957 16.3848 58.9117 16.3848C60.3277 16.3848 61.7917 15.1848 62.4637 13.8168Z" fill="black"/>
<path d="M52.1999 12.3751C53.5199 9.44705 53.4239 6.61505 51.3839 6.61505C50.7599 6.61505 50.0159 6.99905 49.3199 7.62305C50.0639 6.30305 51.0959 4.64705 51.4559 3.97505C52.4399 2.17505 52.4399 1.09505 52.0799 0.423052C51.8879 0.0870518 51.6959 0.0870523 51.4799 0.399053C49.8239 2.70305 45.1199 11.5831 44.4719 13.5751C43.9919 15.0391 44.2319 15.7351 44.5919 16.2151C44.7359 16.4071 44.8799 16.3831 44.9759 16.1431C45.1919 15.6391 45.4559 15.0631 45.6719 14.5591C46.1039 15.6151 46.9199 16.2631 48.1919 16.2631C49.5839 16.2631 51.0719 14.8951 52.1999 12.3751ZM51.0239 7.59905C51.5759 7.64705 51.8639 9.11105 50.4959 11.8231C49.1039 14.6071 47.9999 15.3271 47.1599 15.1351C46.5119 14.9911 46.1999 14.2231 46.1519 13.5271C47.0399 11.6791 48.1919 9.68705 49.2719 8.55905C49.9919 7.81505 50.5199 7.55105 51.0239 7.59905Z" fill="black"/>
<path d="M42.9802 8.19953C43.0282 7.26353 42.5482 6.47153 41.5162 6.47153C40.3162 6.47153 38.4202 7.55153 36.4762 10.3835C34.4842 13.2875 34.9402 16.3355 37.1722 16.3355C38.3242 16.3355 39.4042 15.4475 40.1722 14.4635C40.1722 15.5915 40.8442 16.3595 42.1402 16.4315C43.4602 16.5035 44.9722 15.1835 45.5962 13.8635C45.9082 13.1915 45.9082 12.5915 45.8122 12.3755C45.7162 12.1595 45.5482 12.1835 45.4282 12.3995C44.5882 14.0555 43.2682 15.6875 42.2842 15.7355C41.4682 15.7835 41.4922 14.7515 42.0922 13.4075C42.6682 12.1355 43.8682 10.3355 44.3962 9.25553C44.9722 8.05553 44.7802 7.02353 44.4202 6.59153C44.2522 6.37553 44.0602 6.42353 43.8442 6.73553C43.5802 7.11953 43.2922 7.62353 42.9802 8.19953ZM40.8922 11.9195C39.6682 14.0315 38.4202 15.5675 37.4362 15.5435C36.5002 15.5195 36.8122 13.4075 38.0842 11.3435C39.4042 9.20753 41.1562 7.64753 41.9242 7.71953C42.6202 7.79153 42.4042 9.27953 40.8922 11.9195Z" fill="black"/>
<path d="M35.9988 13.8168C36.3588 13.0968 36.3588 12.5928 36.2388 12.3288C36.1428 12.1368 35.9028 12.1368 35.8068 12.3528C35.0628 13.8888 33.7428 15.6168 32.7588 15.6648C31.8708 15.7128 31.7508 14.5848 32.3508 13.1928C32.9028 11.9448 34.0548 10.1928 34.5828 9.13681C35.2068 7.91281 34.4628 6.71281 33.6468 6.61681C32.9988 6.54481 31.7508 7.33681 30.7668 8.29681C31.7988 6.68881 33.0708 4.74481 33.6468 3.78481C34.5588 2.27281 34.6308 1.07281 34.3188 0.376813C34.1988 0.088812 33.9588 0.0648118 33.7428 0.352812C31.7988 2.77681 26.8068 11.2248 25.9668 13.6248C25.4628 15.0648 25.6788 15.7368 26.0628 16.1688C26.2068 16.3368 26.3748 16.2888 26.4708 16.0728C27.0468 14.6088 27.9348 12.9288 28.7988 11.5128C30.1908 9.23281 32.8068 7.60081 33.1428 7.79281C33.5268 8.00881 31.4388 10.5048 30.6468 12.8328C29.9268 14.9208 30.4308 16.3848 32.4468 16.3848C33.8628 16.3848 35.3268 15.1848 35.9988 13.8168Z" fill="black"/>
<path d="M20.3806 12.0645C20.3566 11.8725 20.3566 11.6805 20.3326 11.4885C20.3086 11.1045 20.1166 11.0085 19.8286 11.2485C19.0126 11.9205 18.9406 13.5045 19.5166 14.5845C20.3326 16.0725 21.6766 16.4325 23.0686 16.3845C24.7726 16.3125 26.4046 15.4005 27.3166 13.7445C27.7246 13.0005 27.7486 12.3765 27.6526 12.1605C27.5566 11.9685 27.3166 11.8965 27.1966 12.1605C26.5966 13.4565 25.5886 14.8965 23.9806 15.4965C24.8446 14.9205 25.0126 13.9125 25.0606 12.9765C25.1326 11.3205 24.6766 9.44847 24.8446 7.24047C24.9406 7.07247 25.0126 6.92847 25.1086 6.78448C25.4206 6.23248 25.5406 5.96847 25.3006 5.72847C25.0846 5.51247 24.5326 5.60847 24.0046 6.08847C23.5006 6.54447 23.2606 7.00047 23.1406 7.93647C22.4446 9.16047 21.3646 10.7205 20.3806 12.0645ZM23.0926 9.47248C23.1886 11.3925 23.5486 15.1605 22.4446 15.4965C21.6526 15.7365 20.9566 14.7525 20.5966 13.3605C21.5086 12.0645 22.3966 10.7445 23.0926 9.47248Z" fill="black"/>
<path d="M14.8007 14.056C14.6087 15.448 15.2327 16.432 16.7927 16.432C18.2087 16.432 19.6967 15.208 20.3927 13.864C20.7287 13.192 20.7047 12.544 20.6087 12.352C20.5127 12.136 20.2967 12.16 20.1767 12.376C19.2407 14.056 18.0167 15.64 17.0087 15.688C16.1447 15.736 16.0487 14.728 16.6727 13.36C17.2247 12.136 18.4247 10.336 18.9527 9.25597C19.5287 8.05597 19.3367 6.99997 18.9767 6.56797C18.7847 6.32797 18.6167 6.37597 18.3767 6.71197C17.6087 7.74397 16.9127 9.39997 15.4007 11.848C14.1047 13.936 12.7847 15.616 11.8487 15.544C11.2967 15.496 11.2247 14.632 11.7287 13.456C12.2327 12.304 12.7127 11.344 13.6007 9.92797C14.4647 8.55997 14.5847 7.47997 14.0567 6.68797C13.8647 6.47197 13.6247 6.44797 13.4327 6.71197C11.8727 8.89597 10.6487 11.248 10.1207 12.832C9.59268 14.416 9.64068 16.192 11.3447 16.312C12.6887 16.408 13.9607 15.184 14.8007 14.056Z" fill="black"/>
<path d="M3.30965 11.3204C4.43765 12.5684 5.68565 14.1284 7.26965 16.2884C7.41365 16.5044 7.53365 16.4324 7.65365 16.2404C7.96565 15.7604 7.86965 14.9444 7.53365 14.2964C7.02965 13.2884 6.16565 12.1364 5.25365 11.0084C7.91765 10.3844 10.5096 8.87243 11.8056 7.14443C12.7176 5.92043 13.0536 4.45643 12.5496 3.01643C11.9736 1.38443 10.9176 1.02443 9.69365 1.07243C8.08565 1.14443 6.28565 2.12844 4.26965 2.36843C3.95765 2.41643 3.88565 2.53643 4.00565 2.77643C4.29365 3.30443 4.72565 3.66443 5.54165 3.73643C3.42965 7.04843 1.17365 11.6084 0.573645 13.7924C0.213645 15.0884 0.453646 15.8084 0.789646 16.1684C0.957646 16.3364 1.07765 16.3124 1.17365 16.0724C1.96565 14.1044 2.66165 12.5924 3.30965 11.3204ZM7.00565 3.59243C8.58965 3.16043 10.9896 1.91243 11.5176 3.25643C12.2136 4.96043 9.50165 8.46443 4.19765 9.64043C4.84565 8.46443 5.44565 7.45643 6.09365 6.30443C6.74165 5.10443 7.00565 4.26443 7.00565 3.59243Z" fill="black"/>
</svg>
