<?xml version="1.0" encoding="UTF-8"?>
<svg xmlns="http://www.w3.org/2000/svg" width="810.008" height="236.79" viewBox="0 0 810.008 236.79">
  <g id="Group_5174" data-name="Group 5174" transform="translate(-277.996 -223.105)">
    <path id="path20" d="M559.425-1072.3h19.59v64.044h-19.59Z" transform="translate(13.707 1339.727)" fill="#e32428" fill-rule="evenodd"></path>
    <path id="path22" d="M845.571-1072.3h19.59v64.044h-19.59Z" transform="translate(20.719 1339.727)" fill="#e32428" fill-rule="evenodd"></path>
    <g id="g24" transform="translate(614.006 267.428)">
      <path id="path26" d="M1.415,1.444-40.419-42.043V5.112H-57.737l-.01-64.044h26.356L1.415-22.992l32.8-35.939H60.574L60.565,5.112H43.246V-42.043Z" transform="translate(57.747 58.932)" fill="#e32428"></path>
    </g>
    <g id="g28" transform="translate(464.312 267.426)">
      <path id="path30" d="M1.625,0V25.826H-46.733V0h-19.59V64.044h19.59V38.5H1.625v25.54h19.59V0Z" transform="translate(66.323)" fill="#e32428"></path>
    </g>
    <g id="g40" transform="translate(363.038 266.994)">
      <path id="path42" d="M.04,1.221l26.07.094s10.966.2,19.1.048q9.012-.141,11.5-1.406A4.479,4.479,0,0,0,59.055-4.4q0-4.229-3.291-5.31a23.555,23.555,0,0,0-6.532-.708q-.893,0-5.64-.046H25.961q-7.18,0-12.435-.469-8.5-.7-12.062-5.39-3.1-4.172-3.1-13.122,0-8.858,2.952-13.029a13.094,13.094,0,0,1,5.953-4.5q5.627-2.2,17.253-2.673c3.031-.123,13.032-.186,13.032-.186l40.108.04v13.736L42.139-36.1s-13.579.141-17.675.421q-4.549.324-5.812,1.863a5.284,5.284,0,0,0-1.079,3.4q0,4.008,4.172,5.079a52.529,52.529,0,0,0,7.827.467H47.717q4.778,0,13.633.469,10.212.516,13.869,5.766,3.139,4.5,3.139,13.129,0,10.782-4.782,15.329-3.61,3.424-12.19,4.312c-6.127.626-24.193.94-24.193.94H.04Z" transform="translate(1.632 49.835)" fill="#e32428" fill-rule="evenodd"></path>
    </g>
    <g id="g44" transform="translate(907.162 267.426)">
      <path id="path46" d="M0,0V15.843H37.405v48.2H56.9v-48.2H95.8V0Z" fill="#e32428"></path>
    </g>
    <g id="g48" transform="translate(804.027 267.426)">
      <path id="path50" d="M.98,0-40-.064.98,41.715Z" transform="translate(39.999 0.064)" fill="#005ea3"></path>
    </g>
    <g id="g52" transform="translate(753.609 267.428)">
      <path id="path54" d="M1.717,1.068v.09l-45.45-44.753H-70.089l.01,64.044h17.318v-48.2l48.631,48.2H21.307v-.13Z" transform="translate(70.089 43.595)" fill="#d62027"></path>
    </g>
    <g id="g56" transform="translate(804.027 267.426)">
      <path id="path58" d="M.98,0-40-.064.98,41.715Z" transform="translate(39.999 0.064)" fill="#005ea3"></path>
    </g>
    <g id="g60" transform="translate(753.609 267.428)">
      <path id="path62" d="M1.717,1.068v.09l-45.45-44.753H-70.089l.01,64.044h17.318v-48.2l48.631,48.2H21.307v-.13Z" transform="translate(70.089 43.595)" fill="#e32428"></path>
    </g>
    <g id="g64" transform="translate(277.996 223.105)">
      <path id="path66" d="M19.29.442v116.63a15.017,15.017,0,0,1-15,15H-768.794a15.017,15.017,0,0,1-15-15V.442a15.016,15.016,0,0,1,15-15H4.291a15.015,15.015,0,0,1,15,15m-15-18.461H-768.794A18.483,18.483,0,0,0-787.255.442v116.63a18.483,18.483,0,0,0,18.461,18.463H4.291a18.483,18.483,0,0,0,18.461-18.463V.442A18.483,18.483,0,0,0,4.291-18.02" transform="translate(787.255 18.02)" fill="#2c2a29"></path>
    </g>
    <g id="g68" transform="translate(286.89 231.795)">
      <path id="path70" d="M4.929.015c-59-.561-124.59-.758-179.972-.542-1,.026-2.134.018-3.333.005a46.147,46.147,0,0,0-8.195.389,18.527,18.527,0,0,0-14.594,17.5l.057,8.339c.2,29.365.455,65.908,1,93.784h.866c.486-26.377.757-59.53.994-88.782l.111-13.283A15.42,15.42,0,0,1-185.95,2.972a44.342,44.342,0,0,1,7.562-.287c1.223.018,2.378.038,3.355.011,54.938.217,120.53.02,179.964-.542q7.8-.113,15.59-.2c9.636-.119,19.6-.242,29.4-.433V.652c-9.8-.193-19.766-.316-29.4-.434q-7.794-.1-15.592-.2" transform="translate(201.165 0.613)" fill="#2c2a29"></path>
    </g>
    <g id="g72" transform="translate(828.023 247.867)">
      <path id="path74" d="M5.98,0H5.114C4.629,26.4,4.358,59.569,4.119,88.835l-.109,13.23A15.424,15.424,0,0,1-8.173,116.517a44.357,44.357,0,0,1-7.562.285c-1.223-.018-2.378-.038-3.356-.011-55-.219-120.589-.019-179.964.544q-7.794.111-15.589.2c-9.637.119-19.6.242-29.4.434v.865c9.8.193,19.769.316,29.407.434q7.79.1,15.585.2c43.328.413,90.228.63,134.035.63,15.82,0,31.238-.029,45.937-.086,1-.027,2.135-.018,3.333-.005a45.993,45.993,0,0,0,8.195-.391,18.529,18.529,0,0,0,14.6-17.5l-.057-8.27C6.782,64.467,6.529,27.9,5.98,0" transform="translate(244.046)" fill="#2c2a29"></path>
    </g>
    <g id="g76" transform="translate(1033.268 330.59)">
      <path id="path78" d="M.22.415a8.1,8.1,0,0,0,8.12-8.2A8.105,8.105,0,0,0,.222-15.871,8.08,8.08,0,0,0-7.95-7.728,8.081,8.081,0,0,0,.22.415M.232,1.45a9.111,9.111,0,0,1-9.219-9.2A9.13,9.13,0,0,1,.151-16.917,9.175,9.175,0,0,1,9.393-7.7,9.155,9.155,0,0,1,.232,1.45" transform="translate(8.987 16.917)" fill="#2c2a29"></path>
    </g>
    <g id="g80" transform="translate(1033.268 250.125)">
      <path id="path82" d="M.22.415a8.1,8.1,0,0,0,8.12-8.2A8.1,8.1,0,0,0,.222-15.871,8.08,8.08,0,0,0-7.95-7.728,8.081,8.081,0,0,0,.22.415M.232,1.45a9.111,9.111,0,0,1-9.219-9.2A9.13,9.13,0,0,1,.151-16.917,9.175,9.175,0,0,1,9.393-7.7,9.155,9.155,0,0,1,.232,1.45" transform="translate(8.987 16.917)" fill="#2c2a29"></path>
    </g>
    <g id="g84" transform="translate(305.316 330.59)">
      <path id="path86" d="M.22.415a8.1,8.1,0,0,0,8.12-8.2A8.105,8.105,0,0,0,.222-15.871,8.08,8.08,0,0,0-7.95-7.728,8.081,8.081,0,0,0,.22.415M.232,1.45a9.11,9.11,0,0,1-9.219-9.2A9.13,9.13,0,0,1,.151-16.917,9.175,9.175,0,0,1,9.393-7.7,9.155,9.155,0,0,1,.232,1.45" transform="translate(8.987 16.917)" fill="#2c2a29"></path>
    </g>
    <g id="g88" transform="translate(305.316 250.125)">
      <path id="path90" d="M.22.415a8.1,8.1,0,0,0,8.12-8.2A8.1,8.1,0,0,0,.222-15.871,8.08,8.08,0,0,0-7.95-7.728,8.081,8.081,0,0,0,.22.415M.232,1.45a9.11,9.11,0,0,1-9.219-9.2A9.13,9.13,0,0,1,.151-16.917,9.175,9.175,0,0,1,9.393-7.7,9.155,9.155,0,0,1,.232,1.45" transform="translate(8.987 16.917)" fill="#2c2a29"></path>
    </g>
    <g id="g92" transform="translate(773.513 400.004)">
      <path id="path94" d="M1.214.417C-8.672-10.554-19.592-17.008-28-17.008c-9,0-16.231,5.937-16.231,13.424a15.445,15.445,0,0,0,1.18,5.162h-6.493v5.68h6.493V42.882h8.263V7.258h8.41V1.578h-9.3A11.312,11.312,0,0,1-37-3.714c0-4.388,4.131-8,9.3-8,5.755,0,13.28,4.517,20.658,12.133Z" transform="translate(49.545 17.008)" fill="#2c2a29" fill-rule="evenodd"></path>
    </g>
    <g id="g96" transform="translate(796.679 418.072)">
      <path id="path98" d="M.491.256a6.658,6.658,0,0,1-5.9,2.968c-2.8,0-5.165-1.549-5.165-4.129,0-2.2,2.067-3.873,5.607-3.356Zm-5.9-10.714c-8.263,0-12.4,4.647-12.4,9.552,0,5.678,5.165,8.9,11.51,8.9A24.462,24.462,0,0,0-.247,6.839c-.3,1.936-.885,6.066-8.263,7.1a6.172,6.172,0,0,1-3.542-.388l-3.1-2.58-4.87,4.388c0,.13,5.46,5.034,9.148,8a88.947,88.947,0,0,0,11.8,8l4.573-4.647c-.3-.128-3.688-2.324-6.639-4.517C-3.052,20.907-5.855,18.584-6,18.455c8.853-.646,14.46-7.229,14.46-15.231,0-6.583-4.427-13.682-13.87-13.682m15.346.516v5.68h6.788V31.363h8.263V-4.261H33.4v-5.68Z" transform="translate(20.02 10.457)" fill="#2c2a29" fill-rule="evenodd"></path>
    </g>
    <g id="g100" transform="translate(848.176 418.59)">
      <path id="path102" d="M1.087.136v-5.68H-44.36V.136h7.23V12.269h-3.1s-3.1.128-3.1,1.936,9.148,10.067,11.509,10.067,2.509-2.71,2.509-2.71V17.689h13.723V35.76h8.115V.136ZM-15.586,12.269H-29.309V.136h13.723Z" transform="translate(44.36 5.544)" fill="#2c2a29" fill-rule="evenodd"></path>
    </g>
    <g id="g104" transform="translate(891.557 400.004)">
      <path id="path106" d="M1.214.417C-8.672-10.554-19.444-17.008-28-17.008c-8.853,0-16.231,5.937-16.231,13.424a13,13,0,0,0,1.328,5.162h-6.64v5.68h6.64V42.882h8.115V7.258h8.558V1.578h-9.443A11.312,11.312,0,0,1-37-3.714c0-4.388,4.132-8,9.3-8C-21.952-11.716-14.427-7.2-6.9.417Z" transform="translate(49.545 17.008)" fill="#2c2a29" fill-rule="evenodd"></path>
    </g>
    <g id="g108" transform="translate(912.806 418.59)">
      <path id="path110" d="M1.083.136v-5.68h-45.3V.136H-15.59V9.042H-39.643s-3.393,0-3.393,2.452c0,2.065,7.968,11.229,10.771,11.229,2.509,0,2.509-2.71,2.509-2.71V14.721H-15.59V35.76h8.115V.136Z" transform="translate(44.216 5.544)" fill="#2c2a29" fill-rule="evenodd"></path>
    </g>
    <g id="g112" transform="translate(956.04 418.59)">
      <path id="path114" d="M1.122.136v-5.68H-45.8V.136h30.1V6.719H-35.767a8.665,8.665,0,0,0-7.82,8.648c.3,9.163,14.165,20.263,14.46,20.393l5.607-4c-.443.128-11.657-8.648-12.543-16.134-.3-3.873,3.985-3.614,3.985-3.614H-15.7V35.76h8.263V.136Z" transform="translate(45.8 5.544)" fill="#2c2a29" fill-rule="evenodd"></path>
    </g>
  </g>
</svg>
