<?xml version="1.0" encoding="UTF-8"?>
<svg id="Layer_1" xmlns="http://www.w3.org/2000/svg" version="1.1" viewBox="0 0 3491.66 785.1">
  <!-- Generator: Adobe Illustrator 29.8.1, SVG Export Plug-In . SVG Version: 2.1.1 Build 2)  -->
  <defs>
    <style>
      .st0 {
        fill: #e6e0ee;
      }

      .st1 {
        fill: #cbbadc;
      }

      .st2 {
        fill: #9267b7;
      }

      .st3 {
        fill: #b698cf;
      }

      .st4 {
        fill: #b092d5;
      }

      .st5 {
        fill: #8150b5;
      }

      .st6 {
        fill: #a383c8;
      }

      .st7 {
        fill: #a480c3;
      }

      .st8 {
        fill: #e8e1ee;
      }

      .st9 {
        fill: #eee8f4;
      }

      .st10 {
        fill: #ddcfe9;
      }

      .st11 {
        fill: #a785d0;
      }

      .st12 {
        fill: #bba0d2;
      }

      .st13 {
        fill: #8859b0;
      }

      .st14 {
        fill: #bea9d9;
      }

      .st15 {
        fill: #946bc5;
      }

      .st16 {
        fill: #bfa6d5;
      }

      .st17 {
        fill: #9871c3;
      }

      .st18 {
        fill: #7c49ae;
      }

      .st19 {
        fill: #af91cb;
      }

      .st20 {
        fill: #8a5bb1;
      }

      .st21 {
        fill: #d4c5e2;
      }

      .st22 {
        fill: #dad0e6;
      }

      .st23 {
        fill: #af91d3;
      }

      .st24 {
        fill: #8759bc;
      }

      .st25 {
        fill: #af90d4;
      }

      .st26 {
        fill: #cbb8dd;
      }

      .st27 {
        fill: #9771be;
      }

      .st28 {
        fill: #8858b0;
      }

      .st29 {
        fill: #8352b0;
      }

      .st30 {
        fill: #fff;
      }

      .st31 {
        fill: #9369b8;
      }

      .st32 {
        fill: #d9cdf3;
      }

      .st33 {
        fill: #e4daef;
      }

      .st34 {
        fill: #e5deed;
      }

      .st35 {
        fill: #9d7ad4;
      }

      .st36 {
        fill: #e3d9ed;
      }

      .st37 {
        fill: #8657b8;
      }

      .st38 {
        fill: #a183c3;
      }

      .st39 {
        fill: #eee7f5;
      }

      .st40 {
        fill: #c6b0da;
      }

      .st41 {
        fill: #fefefe;
      }

      .st42 {
        fill: #a482cf;
      }

      .st43 {
        fill: #b091cb;
      }

      .st44 {
        fill: #b599d8;
      }

      .st45 {
        fill: #6d329e;
      }

      .st46 {
        fill: #c9b6e0;
      }

      .st47 {
        fill: #7a46aa;
      }

      .st48 {
        fill: #aa8ec6;
      }

      .st49 {
        fill: #d5c5e3;
      }

      .st50 {
        fill: #e3d8ec;
      }

      .st51 {
        fill: #c2afd9;
      }

      .st52 {
        fill: #8e61b4;
      }

      .st53 {
        fill: #c9b5dc;
      }

      .st54 {
        fill: #c1acd5;
      }

      .st55 {
        fill: #aa89c7;
      }

      .st56 {
        fill: #9a73c9;
      }

      .st57 {
        fill: #bda5d4;
      }

      .st58 {
        fill: #c2abd7;
      }

      .st59 {
        fill: #d2c1e2;
      }

      .st60 {
        fill: #bba1d2;
      }

      .st61 {
        fill: #ad8ed4;
      }

      .st62 {
        fill: #ece7f4;
      }
    </style>
  </defs>
  <path class="st45" d="M138.19.04c2.33,0,4.65-.01,6.98-.02,6.34-.02,12.68,0,19.02,0,6.15.01,12.3,0,18.45-.01,13.34-.02,26.69-.02,40.03,0,11.68.01,23.36.01,35.03,0,.78,0,1.55,0,2.35,0,3.15,0,6.3,0,9.46,0,29.53-.01,59.07,0,88.6.02,26.21.02,52.41.02,78.62,0,29.48-.02,58.97-.03,88.45-.02,3.15,0,6.29,0,9.44,0,.77,0,1.55,0,2.35,0,11.67,0,23.33,0,35-.01,13.27-.01,26.55,0,39.82.01,6.77.01,13.53.01,20.3,0,6.2-.01,12.41,0,18.61.02,2.23,0,4.47,0,6.7,0,16.91-.07,33.03,1.53,48.94,7.71.77.29,1.55.59,2.35.89,17.18,6.77,31.57,17.33,44.97,29.92.59.53,1.18,1.05,1.79,1.59,13.09,12.16,22.76,29.22,29.02,45.78q.4,1.04.81,2.1c5.78,16.17,6.97,31.71,6.9,48.73,0,2.3.01,4.6.02,6.91.02,6.28.01,12.56,0,18.84,0,6.09,0,12.19.02,18.28.02,13.22.03,26.44.02,39.66,0,11.57,0,23.14,0,34.71,0,1.56,0,3.11,0,4.67,0,2.34,0,4.69,0,7.03.01,21.78.02,43.56,0,65.34,0,.82,0,1.64,0,2.48,0,6.66,0,13.32-.01,19.97-.01,25.96,0,51.93.02,77.89.03,29.21.05,58.42.04,87.63,0,3.12,0,6.24,0,9.36q0,1.15,0,2.33c0,11.56,0,23.12.02,34.67.02,13.15.02,26.31,0,39.46-.01,6.7-.01,13.41,0,20.11.02,6.15.01,12.3-.01,18.45,0,2.21,0,4.42.01,6.64.2,37.2-13.29,68.39-38.65,95.35-.53.59-1.05,1.18-1.59,1.79-12.14,13.07-29.19,22.73-45.72,29.02l-2.08.81c-16.5,5.92-32.79,6.97-50.14,6.89-2.33,0-4.65.01-6.98.02-6.34.02-12.68,0-19.02,0-6.15-.01-12.3,0-18.45.01-13.34.02-26.69.02-40.03,0-11.68-.01-23.36-.01-35.03,0q-1.16,0-2.35,0c-3.15,0-6.3,0-9.46,0-29.53.01-59.07,0-88.6-.02-26.21-.02-52.41-.02-78.62,0-29.48.02-58.97.03-88.45.02-3.15,0-6.29,0-9.44,0-.77,0-1.55,0-2.35,0-11.67,0-23.33,0-35,.01-13.27.01-26.55,0-39.82-.01-6.77-.01-13.53-.01-20.3,0-6.2.01-12.41,0-18.61-.02-2.23,0-4.47,0-6.7,0-16.91.07-33.03-1.53-48.94-7.71-.77-.29-1.55-.59-2.35-.89-17.18-6.77-31.57-17.33-44.97-29.92-.59-.53-1.18-1.05-1.79-1.59-13.09-12.16-22.76-29.22-29.02-45.78-.27-.69-.53-1.39-.81-2.1-5.78-16.17-6.97-31.71-6.9-48.73,0-2.3-.01-4.6-.02-6.91-.02-6.28-.01-12.56,0-18.84,0-6.09,0-12.19-.02-18.28-.02-13.22-.03-26.44-.02-39.66,0-11.57,0-23.14,0-34.71,0-1.56,0-3.11,0-4.67,0-2.34,0-4.69,0-7.03-.01-21.78-.02-43.56,0-65.34,0-.82,0-1.64,0-2.48,0-6.66,0-13.32.01-19.97.01-25.96,0-51.93-.02-77.89-.03-29.21-.05-58.42-.04-87.63,0-3.12,0-6.24,0-9.36,0-.77,0-1.54,0-2.33,0-11.56,0-23.12-.02-34.67-.02-13.15-.02-26.31,0-39.46.01-6.7.01-13.41,0-20.11-.02-6.15-.01-12.3.01-18.45,0-2.21,0-4.42-.01-6.64-.2-37.2,13.29-68.39,38.65-95.35.53-.59,1.05-1.18,1.59-1.79,12.14-13.07,29.19-22.73,45.72-29.02l2.08-.81C104.55,1.01,120.85-.03,138.19.04Z"/>
  <path class="st0" d="M466.97,392.3c.97,0,1.94,0,2.94,0,1.11,0,2.22,0,3.37-.01q1.84,0,3.71.02c1.29,0,2.57,0,3.9,0,3.53,0,7.07,0,10.6.01,3.69,0,7.38,0,11.07,0,6.2,0,12.4,0,18.59.02,7.18.02,14.35.02,21.53.02,6.89,0,13.78,0,20.68.01,2.94,0,5.88,0,8.81,0,4.1,0,8.19.01,12.29.02q1.84,0,3.72,0c1.11,0,2.22,0,3.36.01q1.45,0,2.94,0,2.18.13,3.18,1.13c.1,1.75.12,3.5.12,5.25,0,1.14,0,2.27,0,3.45,0,1.26,0,2.52-.01,3.81,0,1.32,0,2.63,0,3.99,0,3.62,0,7.24-.01,10.87,0,3.78,0,7.56,0,11.34,0,7.16-.01,14.33-.02,21.49-.01,8.15-.02,16.31-.02,24.46-.01,16.78-.03,33.56-.05,50.34-.64.27-1.28.54-1.94.81q-2.39,1.07-3.06,4.19h-2c-.27.6-.54,1.2-.81,1.81-1.66,3.06-3.3,4.71-6.38,6.36-3.68,2.39-6.48,5.36-9.5,8.52-2.07,2.16-4.15,4.25-6.31,6.31h-2c-.27.58-.54,1.17-.81,1.77-1.2,2.26-2.53,4.04-4.19,5.98-.52.61-1.03,1.23-1.56,1.86q-1.44,1.39-3.44,1.39c-.33,1.32-.66,2.64-1,4h-2c-.27.6-.54,1.2-.81,1.81-1.71,3.16-3.42,4.76-6.56,6.5-2.65,1.71-4.24,3.55-6.17,6.01-2.28,2.64-4.94,4.81-7.59,7.08q-4,3.31-6.74,7.6c-1.66,2.95-4.32,4.13-7.12,6-.95,1.05-1.87,2.14-2.75,3.25q-1.11,1.36-2.25,2.75h-2c-.33.99-.66,1.98-1,3-1.62,1.71-3.3,3.37-5,5-.8.82-1.61,1.65-2.44,2.5-1.86,1.82-3.66,3.4-5.69,5-2.75,2.39-4.17,4.34-5.88,7.5-.66.66-1.32,1.32-2,2h-3v2c-1.43,1.2-2.87,2.4-4.34,3.56-1.69,1.47-3.02,3-4.41,4.75-.74.89-1.48,1.77-2.25,2.69h-2c-.33.99-.66,1.98-1,3-.66.33-1.32.66-2,1-.33.99-.66,1.98-1,3h-3v4H60.66v-5c.87-.25,1.73-.5,2.62-.75,4.05-1.5,8.36-3.23,10.38-7.25h2v-3q.96-.43,1.94-.88,2.21-.95,3.06-3.12h2c.1-.74.2-1.49.3-2.25,1.71-6.73,8.45-11.57,13.7-15.75,1.02-.98,2.02-1.98,3-3,8.33-8.33,16.67-16.67,25-25,.78-.78,1.56-1.56,2.37-2.37,2.49-2.49,5-4.96,7.51-7.43,1.86-1.84,3.71-3.67,5.57-5.51q1.39-1.37,2.81-2.76c4.56-4.53,8.84-8.99,12.54-14.26,1.84-2.54,3.87-4.59,6.21-6.67h2c.23-.58.45-1.15.69-1.75,1.64-2.82,3.75-4.26,6.31-6.25.66-.99,1.32-1.98,2-3,.76-.45,1.53-.91,2.31-1.38,3.7-2.24,6.37-5.22,9.31-8.36.58-.6,1.16-1.2,1.75-1.82q.79-.84,1.59-1.69c5.89-5.05,10.44-6.34,18-6.23q1.32,0,2.66-.01c2.94,0,5.87.01,8.81.03,2.11,0,4.22,0,6.33,0,5.73,0,11.45.01,17.18.04,6.01.02,12.01.02,18.02.02,10.1,0,20.2.03,30.3.06,12.92.04,25.84.06,38.75.07,11.15,0,22.29.03,33.44.05,2.38,0,4.76,0,7.14.01,6.81,0,13.61.02,20.42.05,2.05,0,4.1.01,6.16.01,10.16.01,20.27.18,30.41.82,7.52.46,15.02.47,22.55.42,1.36,0,2.73,0,4.09-.01,3.26-.01,6.52-.03,9.79-.05,0-.68,0-1.37.01-2.07.08-16.62.17-33.23.28-49.85.05-8.04.1-16.07.13-24.11.03-7,.07-14,.12-21.01.03-3.71.05-7.42.06-11.13.02-4.14.05-8.27.08-12.41q0-1.85,0-3.75c.01-1.12.02-2.24.03-3.4,0-.98.01-1.96.02-2.97.37-3.26,1.3-4.22,4.57-4.57Z"/>
  <path class="st34" d="M510.21,125.43c.93,0,1.86,0,2.82,0,3.1,0,6.2,0,9.3,0,2.23,0,4.46,0,6.68,0,6.04,0,12.07,0,18.11.01,6.31,0,12.63,0,18.94,0,10.59,0,21.18,0,31.78.02,10.91,0,21.81.02,32.72.02.67,0,1.35,0,2.04,0,3.38,0,6.75,0,10.13,0,27.98.01,55.97.03,83.95.05-1.83,3.92-4.37,6.81-7.31,9.94-.47.51-.95,1.02-1.44,1.55-3.01,3.24-6.11,6.4-9.25,9.51-.89.89-1.77,1.77-2.69,2.69l-4.31,4.31h-3c-.23.56-.46,1.12-.7,1.69-1.65,2.92-3.71,4.91-6.11,7.25-.85.83-1.7,1.67-2.58,2.53q-1.29,1.25-2.61,2.54c-.85.86-1.7,1.72-2.58,2.61-2.03,2.01-4.1,3.87-6.29,5.7-3.53,3.05-6.57,6.34-9.59,9.89-1.75,2.05-3.52,4.01-5.54,5.8h-2c-.29.78-.58,1.57-.88,2.38q-1.12,2.62-3.12,4.62h-3q-.34.84-.69,1.69c-2.93,5.17-7.98,8.78-12.41,12.64-5.09,4.48-9.47,9.55-13.91,14.66q-.98,1-1.99,2.01h-2q-.4.9-.81,1.81c-1.19,2.19-2.28,3.6-4.19,5.19h-2c-.29.64-.58,1.28-.88,1.94q-1.12,2.06-3.12,3.06-.68,1.14-1.38,2.31c-1.64,2.71-3.21,4.65-5.62,6.69h-3c-.27.62-.54,1.24-.81,1.88q-1.19,2.12-4.19,4.12-3.14.25-7.1.25-1.09,0-2.21,0c-2.45,0-4.9,0-7.34-.01-1.75,0-3.51,0-5.26,0-4.77,0-9.54,0-14.31-.01-5.01,0-10.01,0-15.02,0-8.42,0-16.85,0-25.27-.02-9.7-.02-19.39-.02-29.09-.02-10.36,0-20.71,0-31.07-.02-2.96,0-5.93,0-8.89,0-4.69,0-9.39,0-14.08-.02-1.71,0-3.42,0-5.12,0-9.6,0-19.15-.21-28.73-.79-7.37-.44-14.71-.47-22.1-.42-1.38,0-2.77,0-4.15.01-4.29.01-8.58.03-12.87.05-5.04.02-10.09.04-15.13.06-2,0-4.01.02-6.01.03q-1.8,0-3.64.01-1.59,0-3.21.02-2.38-.11-3.38-1.11c-.1-1.63-.12-3.27-.12-4.9,0-1.06,0-2.12,0-3.22,0-1.17,0-2.35.01-3.56,0-1.23,0-2.46,0-3.72,0-3.38,0-6.76.01-10.14,0-3.53,0-7.06,0-10.59,0-6.69.01-13.37.02-20.06.01-7.61.02-15.22.02-22.83.01-15.66.03-31.32.05-46.98.64,0,1.27,0,1.93-.01,15.64-.1,31.28-.21,46.92-.33,7.56-.05,15.13-.11,22.69-.16,6.61-.04,13.22-.09,19.83-.14,3.48-.03,6.97-.05,10.45-.07,14.71-.09,29.42-.3,44.12-.75q1.94-.06,3.91-.12c1.21-.04,2.42-.08,3.67-.12,1.06-.03,2.12-.07,3.21-.1,2.36-.15,4.72-.4,7.07-.71,4.59-.6,9.12-.62,13.73-.61Z"/>
  <path class="st41" d="M326.66,125.55h4c.02,17.06.04,34.13.05,51.19,0,7.92.01,15.84.02,23.77,0,6.9.02,13.8.02,20.71,0,3.66,0,7.31.01,10.97,0,4.08,0,8.15,0,12.23,0,1.22,0,2.44.01,3.7,0,1.1,0,2.21,0,3.34q0,1.45,0,2.92-.12,2.17-1.12,3.17c-.11,1.73-.15,3.47-.16,5.21,0,1.13-.02,2.26-.03,3.42,0,1.25-.01,2.5-.02,3.79,0,1.31-.02,2.61-.03,3.96-.03,3.59-.05,7.19-.07,10.78-.02,3.75-.05,7.51-.08,11.26-.05,7.11-.09,14.22-.14,21.33-.05,8.09-.1,16.19-.16,24.28-.11,16.65-.22,33.31-.32,49.96-16.75.07-33.5.12-50.25.16-7.78.02-15.55.04-23.33.07-6.78.03-13.56.05-20.33.06-3.59,0-7.18.01-10.77.03-4.01.02-8.01.02-12.02.02-1.19.01-2.38.02-3.61.03-1.09,0-2.18,0-3.31-.01-.95,0-1.9,0-2.87,0-3.05-.45-4.39-1.13-6.51-3.37q-.5-2.32-.49-5.1c0-1.06-.02-2.11-.03-3.2.01-1.16.02-2.32.03-3.51,0-1.22,0-2.44-.01-3.7,0-3.35,0-6.69.03-10.04.02-3.5.01-7.01.01-10.51,0-5.89.02-11.78.05-17.67.03-6.8.04-13.6.04-20.4,0-7.25.01-14.49.03-21.74,0-2.08,0-4.17,0-6.25,0-3.89.02-7.78.04-11.68,0-1.15,0-2.3,0-3.49.06-6.97.2-12.93,5.17-18.27,1.85-2.03,3.54-3.99,5.19-6.19q1.94-2.25,4.25-3.62c3.82-2.31,6.61-5.42,9.69-8.62l5-5c.8-.82,1.61-1.65,2.44-2.5q2.56-2.5,5.56-4.94c3.08-2.63,5.45-5.43,8-8.56,1.65-1.68,3.32-3.34,5-5,1.21-1.21,2.42-2.41,3.63-3.62,1.42-1.42,2.84-2.83,4.26-4.25,7.92-7.89,15.84-15.79,23.76-23.68,4.79-4.78,9.58-9.55,14.37-14.32,4.64-4.62,9.27-9.24,13.91-13.87,1.77-1.76,3.54-3.52,5.31-5.28,2.47-2.45,4.93-4.91,7.39-7.38.74-.73,1.47-1.46,2.23-2.21.67-.67,1.33-1.34,2.02-2.03q.87-.87,1.77-1.76,1.59-1.67,2.36-4.6Z"/>
  <path class="st41" d="M471.8,394.43q1.63,0,3.29,0t3.64.01c1.28,0,2.56,0,3.88,0,3.47,0,6.93,0,10.4.01,3.25,0,6.5,0,9.75,0,9.51,0,19.02.02,28.53.03q31.87.03,64.38.06v133h-5v3h-3l-2,4h-2c-.33.99-.66,1.98-1,3h-2l-2,4h-2c-.33.99-.66,1.98-1,3h-2c-.33.99-.66,1.98-1,3h-2l-2,4h-2c-.33.99-.66,1.98-1,3q-1.05.62-2.12,1.25c-4.35,2.65-8.64,6.24-10.92,10.88q-.95,1.87-3.52,3.37-2.63,1.22-2.94,3.56c-.17.64-.33,1.28-.5,1.94-.78.31-1.57.62-2.38.94-3.33,1.35-3.93,3-5.62,6.06h-2c-.33.99-.66,1.98-1,3-.8.47-1.61.95-2.44,1.44-2.72,1.66-3.46,2.65-4.56,5.56h-2c-.66,1.32-1.32,2.64-2,4h-2c-.33.99-.66,1.98-1,3q-1.05.62-2.12,1.25c-4.11,2.5-9.19,6.06-10.43,10.91-.15.61-.29,1.21-.45,1.84-.78.31-1.57.62-2.38.94-3.36,1.36-3.83,2.99-5.62,6.06-1.66,1.01-3.33,2.01-5,3-.33.66-.66,1.32-1,2-1.38,2.76-3.37,3.42-6,5-3.06,2.66-5.89,5.56-8.75,8.44-.78.76-1.56,1.53-2.36,2.31q-1.11,1.11-2.25,2.24c-.68.67-1.35,1.34-2.05,2.04q-1.75,1.83-1.95,4.09-.32.93-.65,1.87c-1.98.73-3.98,1.4-6,2-.03-18.06-.05-36.12-.06-54.19,0-.69,0-1.37,0-2.08-.03-47.68.18-95.36.56-143.05,0-.74.01-1.48.02-2.25.15-18.81.31-37.63.48-56.44,2.54-1.27,4.29-1.12,7.14-1.12Z"/>
  <g>
    <path class="st30" d="M1461.43,122.55h167.96q2.92,12.66,3.97,18.12.17.9.35,1.83c.38,1.97.75,3.94,1.13,5.92.27,1.43.55,2.87.82,4.3.59,3.07,1.17,6.13,1.76,9.2.93,4.87,1.86,9.75,2.8,14.62,1.48,7.73,2.96,15.46,4.44,23.18,2.64,13.79,5.27,27.57,7.92,41.36.92,4.82,1.85,9.64,2.77,14.46,3.11,16.29,6.25,32.57,9.55,48.82,1.01-1.07,2.02-2.14,3.04-3.22q.85-.9,1.71-1.81c6.27-6.64,12.48-13.33,18.63-20.08,1.57-1.71,3.14-3.43,4.71-5.14.39-.43.78-.85,1.18-1.29,3.37-3.68,6.75-7.34,10.14-11,4.48-4.85,8.94-9.72,13.4-14.6,5.33-5.82,10.67-11.64,16.03-17.44,2.89-3.13,5.77-6.26,8.64-9.4,3.75-4.09,7.51-8.17,11.27-12.25,2.89-3.13,5.77-6.26,8.64-9.4,3.75-4.09,7.51-8.17,11.27-12.25,2.89-3.13,5.77-6.26,8.64-9.4,3.75-4.09,7.51-8.17,11.27-12.25,2.89-3.13,5.77-6.26,8.64-9.4,3.31-3.62,6.63-7.22,9.96-10.82,1.73-1.88,3.46-3.75,5.19-5.63.43-.47.86-.93,1.3-1.41,1.26-1.37,2.52-2.74,3.79-4.11q1.09-1.19,2.21-2.4,2.11-2.25,3.33-4.01c2.32-3.12,3.44-4.37,7.35-5.26,1.25-.03,2.49-.02,3.74.02.69,0,1.38-.01,2.09-.02,2.31,0,4.61.02,6.91.06,1.66,0,3.31,0,4.97,0,4.49,0,8.98.03,13.47.08,4.69.04,9.39.04,14.08.05,8.89.02,17.77.07,26.66.13,10.12.07,20.23.1,30.35.13,20.81.06,41.62.17,62.43.3-.89,4.26-1.82,8.41-3.31,12.5q-.46,1.27-.93,2.57c-.33.9-.66,1.8-1,2.73-.35.97-.7,1.94-1.06,2.93-.96,2.64-1.92,5.27-2.89,7.91-.82,2.24-1.63,4.48-2.45,6.72-6.07,16.7-12.22,33.36-18.38,50.03-6.14,16.61-12.17,33.27-18.14,49.94-6.02,16.79-12.06,33.57-18.18,50.32-.33.91-.66,1.81-1.01,2.75-3.81,10.41-7.63,20.8-11.47,31.2-1.5,4.07-3.01,8.14-4.51,12.21q-.56,1.52-1.14,3.08c-6.35,17.19-12.57,34.43-18.75,51.69-6.44,17.98-12.95,35.92-19.56,53.83-.39,1.07-.79,2.14-1.19,3.24-1.1,2.99-2.21,5.98-3.31,8.98-.33.88-.65,1.76-.99,2.67-.3.81-.6,1.62-.91,2.46-.26.7-.52,1.4-.79,2.12-.8,2.13-1.65,4.24-2.5,6.35h-133.33c1.62-5.94,3.24-11.62,5.36-17.36.26-.72.53-1.44.8-2.18.57-1.55,1.14-3.1,1.71-4.65.92-2.5,1.83-4.99,2.75-7.49.96-2.64,1.93-5.28,2.9-7.91,3.13-8.55,6.23-17.11,9.33-25.67.92-2.55,1.84-5.1,2.77-7.66,1.24-3.43,2.48-6.86,3.72-10.29,2.99-8.28,5.99-16.56,8.98-24.84.3-.82.59-1.63.89-2.47,5.22-14.43,10.44-28.86,15.66-43.29.58-1.61,1.16-3.22,1.75-4.83,4.78-13.21,9.57-26.42,14.38-39.62-.29-.29-.57-.57-.87-.87-2.18,2.31-4.37,4.62-6.55,6.93-.61.64-1.22,1.29-1.85,1.95-3.45,3.66-6.82,7.36-10.12,11.16-2.08,2.38-4.23,4.7-6.38,7.02-.9.97-1.81,1.95-2.71,2.93-.45.49-.9.97-1.36,1.47-5.6,6.05-11.15,12.14-16.65,18.28-2.65,2.93-5.32,5.84-7.99,8.75-2.48,2.7-4.93,5.41-7.38,8.13-3.46,3.86-6.97,7.66-10.49,11.47-3.26,3.52-6.47,7.08-9.67,10.65-4.2,4.67-8.46,9.28-12.71,13.9-4.08,4.44-8.16,8.89-12.19,13.38-4.84,5.39-9.74,10.72-14.65,16.05-4.08,4.44-8.16,8.89-12.19,13.38-4.84,5.39-9.74,10.72-14.65,16.05-4.72,5.14-9.42,10.3-14.09,15.49-2.64,2.92-5.3,5.82-7.97,8.72-3.32,3.62-6.61,7.27-9.89,10.93q-2.23,2.47-4.3,2.58c-.87,0-1.75,0-2.65,0q-1.5,0-3.04,0c-1.06,0-2.12,0-3.22-.01-.97,0-1.94,0-2.94,0-2.85,0-5.71-.01-8.56-.02-5.18-.02-10.35-.02-15.53-.04-2.18,0-4.36,0-6.55-.01-.94,0-1.89,0-2.86,0q-1.01,0-2.04,0c-7.8-41.38-15.46-82.77-23.09-124.18-1.55-8.39-3.09-16.79-4.64-25.18-3.17-17.17-6.33-34.33-9.49-51.5q-3.32,7.85-6.35,15.81c-.34.94-.67,1.87-1.02,2.83-.35.98-.7,1.96-1.06,2.97-.58,1.62-1.16,3.23-1.74,4.85-.61,1.7-1.22,3.4-1.83,5.1-1.27,3.56-2.55,7.11-3.83,10.67-.21.59-.43,1.19-.65,1.8-.43,1.2-.86,2.4-1.3,3.6-.65,1.8-1.29,3.6-1.94,5.4-3.59,10-7.22,19.99-10.86,29.97-1.11,3.04-2.21,6.08-3.32,9.12-.27.75-.54,1.49-.82,2.26-3.28,9.03-6.55,18.06-9.82,27.09-.61,1.69-1.22,3.38-1.83,5.07-2.85,7.88-5.7,15.77-8.54,23.65-1.31,3.64-2.62,7.28-3.94,10.91-.62,1.71-1.23,3.42-1.85,5.13-.86,2.4-1.73,4.79-2.59,7.19-.24.67-.48,1.33-.73,2.02-3.08,8.51-6.35,16.94-9.58,25.41h-133.33q2.92-10.71,4.25-14.26c.3-.81.6-1.62.91-2.46.32-.85.64-1.71.97-2.59q.52-1.4,1.05-2.82c.75-2.01,1.5-4.03,2.25-6.04,2.06-5.52,4.1-11.05,6.15-16.57.21-.58.43-1.15.65-1.75,4.72-12.75,9.31-25.55,13.89-38.36,6.83-19.09,13.75-38.13,20.79-57.14,6.07-16.42,12.03-32.88,17.93-49.36,6.26-17.49,12.6-34.95,19.05-52.38,7.28-19.68,14.42-39.4,21.48-59.16,7.57-21.16,15.36-42.24,23.11-63.34Z"/>
    <path class="st30" d="M2612.91,122.55c40.13-.06,80.26-.11,120.4-.13,4.74,0,9.48,0,14.23-.01.94,0,1.89,0,2.86,0,15.27-.01,30.54-.03,45.81-.06,15.68-.02,31.35-.04,47.03-.04,9.67,0,19.33-.01,29-.04,6.64-.01,13.27-.02,19.91-.01,3.82,0,7.65,0,11.47-.01,3.51-.01,7.02-.01,10.53,0,1.26,0,2.52,0,3.78-.01,20.41-.13,37.14,5.02,52.23,19.06,22.23,22.09,27.2,56.48,27.43,86.45-.07,24.66-5.94,47.59-22.78,66.23-.59.69-1.18,1.38-1.79,2.1-36.54,42.54-98.37,49.27-150.59,55.04.34.34.69.69,1.04,1.04,3.61,3.59,7.22,7.19,10.83,10.79,1.34,1.34,2.69,2.68,4.03,4.02,1.94,1.93,3.88,3.87,5.82,5.8.59.59,1.19,1.18,1.8,1.79,3.35,3.35,6.52,6.8,9.62,10.39,2.4,2.71,4.97,5.25,7.54,7.79.55.55,1.11,1.1,1.68,1.67,1.75,1.74,3.5,3.47,5.25,5.2q12.91,12.78,17.34,18.02c4.66,5.18,9.74,9.98,14.69,14.88q12.91,12.78,17.34,18.02c4.66,5.18,9.74,9.98,14.69,14.88q16.05,15.89,21.64,23.38c-19.22.24-38.44.43-57.66.54-8.93.05-17.85.13-26.78.25-7.78.1-15.57.17-23.35.19-4.12.01-8.24.05-12.35.12-3.88.07-7.77.09-11.65.08-1.42,0-2.84.02-4.25.06-6.99.19-12.19-.04-17.62-4.78-1.82-1.76-3.54-3.58-5.23-5.47-2.16-2.34-4.53-4.44-6.9-6.57-.94-.86-1.88-1.73-2.81-2.6q-.7-.64-1.41-1.3c-5.16-4.76-10.32-9.52-15.48-14.29-.46-.43-.93-.86-1.41-1.3-.94-.87-1.88-1.73-2.82-2.6-2.32-2.14-4.65-4.29-6.97-6.43-5.03-4.64-10.05-9.29-15.05-13.97-4.73-4.42-9.49-8.82-14.27-13.19-4.15-3.79-8.27-7.61-12.39-11.42-2.35-2.17-4.7-4.34-7.05-6.51-.94-.87-1.88-1.73-2.81-2.6q-.7-.64-1.41-1.3-15.48-14.29-16.88-15.59c-.93-.86-1.86-1.72-2.8-2.58-2.44-2.25-4.87-4.5-7.29-6.75q-.75-.7-1.52-1.41c-.96-.89-1.91-1.78-2.86-2.66-2.63-2.43-5.32-4.73-8.14-6.93-3.45,1.15-5.41,2.46-7.79,5.19q-1.11,2.2-1.93,4.68c-.34.95-.68,1.9-1.03,2.88-.36,1.03-.72,2.07-1.09,3.14-.39,1.1-.78,2.2-1.18,3.3-.84,2.36-1.67,4.72-2.5,7.08-1.31,3.73-2.64,7.46-3.96,11.19-1.37,3.85-2.74,7.7-4.11,11.56-4.24,11.96-8.53,23.89-12.85,35.82-1.13,3.11-2.25,6.22-3.37,9.33-.7,1.94-1.41,3.89-2.11,5.83-.3.83-.6,1.66-.91,2.51-3.22,8.87-6.61,17.66-9.97,26.48h-133.33q2.92-10.71,4.25-14.26c.3-.81.6-1.62.91-2.46.32-.85.64-1.71.97-2.59q.52-1.4,1.05-2.82c.75-2.01,1.5-4.03,2.25-6.04,2.06-5.52,4.1-11.05,6.15-16.57.21-.58.43-1.15.65-1.75,4.72-12.75,9.31-25.55,13.89-38.36,6.83-19.09,13.75-38.13,20.79-57.14,6.07-16.42,12.03-32.88,17.93-49.36,6.26-17.49,12.6-34.95,19.05-52.38,7.28-19.68,14.42-39.4,21.48-59.16,5.14-14.37,10.37-28.71,15.64-43.04.73-1.98,1.45-3.96,2.18-5.93,1.76-4.79,3.52-9.58,5.28-14.37ZM2712.47,216.06c-4.23,11.26-8.46,22.52-12.57,33.83-.41,1.13-.82,2.26-1.24,3.39-1.06,2.92-2.13,5.84-3.19,8.76-1.27,3.47-2.53,6.95-3.8,10.42-1.05,2.87-2.09,5.73-3.13,8.6-1.93,5.3-3.87,10.6-5.85,15.89-.91,2.42-1.81,4.83-2.71,7.25-.43,1.15-.86,2.3-1.3,3.44-.6,1.58-1.19,3.17-1.78,4.75-.34.9-.68,1.8-1.03,2.72q-.86,2.31.25,4.84c5.74-5.52,10.46-11.23,14.68-18,10.67-17,25.06-35.86,45.54-40.73,30.85-5.54,64.02-2.87,95.13-.9,1.11.07,2.21.13,3.35.2,2.06.13,4.11.27,6.16.42,4.93.31,8.41.49,12.63-2.46,7.08-6.73,9.42-16.41,9.69-25.86-.07-5.17-.33-10.21-3.57-14.39-3.3-2.4-6.16-2.27-10.12-2.27q-.88,0-1.77,0c-1.97,0-3.93,0-5.9,0-1.41,0-2.82,0-4.22,0-3.83,0-7.65,0-11.48.01-4,0-7.99,0-11.99,0-7.57,0-15.14,0-22.71.02-8.62,0-17.24.01-25.85.02-17.73,0-35.46.02-53.19.04Z"/>
    <path class="st30" d="M1051.09,122.35c1.49,0,2.97,0,4.46,0,4.07,0,8.13,0,12.2.01,4.39,0,8.78,0,13.17,0,7.6,0,15.2,0,22.8.01,10.99.01,21.98.02,32.97.02,17.83,0,35.67.02,53.5.03,17.32.02,34.64.03,51.96.04,1.07,0,2.14,0,3.24,0,5.36,0,10.72,0,16.08,0,44.43.02,88.87.05,133.3.09-1.07,2.75-2.13,5.13-3.84,7.55q-.62.88-1.26,1.78c-.44.62-.89,1.24-1.35,1.87-.46.65-.92,1.29-1.4,1.96-4.42,6.15-9.05,12.11-13.81,18-.65.81-1.29,1.61-1.96,2.44-8.11,10.01-16.55,19.69-25.34,29.09-1.6,1.73-3.18,3.48-4.77,5.23-5.34,5.87-10.91,11.51-16.52,17.13-.41.41-.82.82-1.24,1.25-1.17,1.18-2.35,2.35-3.53,3.53-.69.69-1.37,1.37-2.08,2.08-2.49,2.32-3.88,2.56-7.2,2.57-.8,0-1.59,0-2.41,0-.88,0-1.76,0-2.67,0-.93,0-1.86,0-2.82,0-3.14,0-6.28,0-9.42,0-2.24,0-4.48,0-6.73.01-4.84,0-9.68.02-14.52.02-7.65,0-15.3.03-22.95.05-2.62,0-5.23.01-7.85.02-.65,0-1.31,0-1.98,0-7.45.02-14.9.03-22.34.05q-1.02,0-2.06,0c-11.03.02-22.06.04-33.09.05-11.32.02-22.64.04-33.97.07-6.98.02-13.97.03-20.95.03-5.35,0-10.71.02-16.06.04-2.2,0-4.39,0-6.59,0-3,0-5.99,0-8.99.03-.87,0-1.74,0-2.64-.01-6.12.06-10.33.89-15.16,4.89-4.98,5.98-9.11,14.94-9.37,22.79,1.19,5.52,6.56,8.61,11,11.52,4.44,2.68,8.1,3.79,13.33,3.8q.84,0,1.7.01c1.87.01,3.75,0,5.62,0,1.35,0,2.69.01,4.04.02,2.9.01,5.79.02,8.69.02,4.59,0,9.18.02,13.77.05,9.75.04,19.51.07,29.26.1,10.51.03,21.01.06,31.52.11,4.55.02,9.1.03,13.65.04,2.85,0,5.7.02,8.55.03,1.31,0,2.62,0,3.93,0,22.88-.01,41.37,5.82,57.99,21.89,18.28,18.41,27.96,44.74,31.17,70.13.1.72.19,1.43.29,2.17,3.52,31.13-5.53,62.86-24.53,87.87-.69.94-1.38,1.87-2.07,2.81-6.33,8.48-13.06,16.48-21.3,23.17q-1.2,1-2.42,2.02c-5.07,4.15-10.34,7.71-16.09,10.86-.55.31-1.1.62-1.66.94-10.91,5.72-22.05,6.61-34.09,6.51-1.5,0-3.01,0-4.51,0-4.1,0-8.19,0-12.29-.02-4.43-.02-8.86,0-13.29,0-7.67,0-15.33,0-23-.03-11.08-.03-22.17-.04-33.25-.04-17.98,0-35.97-.03-53.95-.06-17.46-.03-34.93-.06-52.39-.07-1.08,0-2.16,0-3.27,0-5.41,0-10.81,0-16.22-.01-44.81-.04-89.61-.1-134.42-.17,1.01-3.12,1.94-5.84,3.78-8.56.41-.61.81-1.21,1.23-1.84q.66-.96,1.33-1.94t1.38-2.05c5.06-7.44,10.33-14.73,15.66-21.98q1-1.36,2.02-2.74c8.28-11.13,16.79-22.11,25.69-32.76.37-.44.74-.89,1.12-1.35q15.04-17.99,17.92-19.43c1.3-.08,2.61-.11,3.91-.12.83,0,1.66,0,2.51-.01q1.38,0,2.78,0,1.45,0,2.94,0c3.27,0,6.54-.01,9.81-.02,2.34,0,4.67-.01,7.01-.02,5.04-.01,10.08-.02,15.13-.03,7.3-.01,14.59-.03,21.89-.05,11.85-.03,23.69-.06,35.54-.09.71,0,1.42,0,2.15,0,10.06-.02,20.13-.04,30.19-.06.71,0,1.42,0,2.15,0q1.06,0,2.14,0c11.8-.02,23.59-.05,35.39-.09,7.28-.02,14.55-.04,21.83-.05,4.99,0,9.98-.02,14.97-.04,2.88,0,5.76-.02,8.63-.02,3.12,0,6.24-.01,9.37-.03q1.36,0,2.75,0,7.76,0,14.68-3.17c5.17-7.38,3.5-22.04,2.25-30.52q-.99-4.3-3.55-7.76c-2.77-1.64-4.78-1.54-7.99-1.54-.6,0-1.2,0-1.81-.01-2-.01-4.01,0-6.01,0-1.44,0-2.87,0-4.31-.01-3.1-.01-6.19-.01-9.29,0-4.91,0-9.81,0-14.72-.02-10.43-.03-20.86-.04-31.29-.05-11.23,0-22.45-.02-33.68-.06-4.86-.02-9.73-.02-14.59-.01-3.05,0-6.09,0-9.14-.02-1.4,0-2.8,0-4.2,0-25.63.1-45.12-8.44-63.27-26.31-.48-.46-.97-.92-1.46-1.39-3.69-3.57-6.8-7.33-9.74-11.54-.45-.64-.89-1.28-1.35-1.94-11.78-17.23-19.51-38.63-20.35-59.59q-.07-1.24-.14-2.5c-.56-18.8,6.11-35.74,14.85-52.04.3-.57.6-1.15.92-1.74,6.66-12.61,14.97-23.76,24.19-34.62q.88-1.04,1.78-2.1c3.74-4.32,7.66-8.12,12.07-11.75.45-.38.89-.76,1.35-1.15,18.4-15.63,36.74-23.4,61.02-23.3Z"/>
    <path class="st30" d="M2233.66,122.01c1.19,0,2.39-.01,3.58-.02,3.21-.02,6.43,0,9.64.01,3.38.01,6.75,0,10.13,0,5.67,0,11.33,0,17,.03,6.54.03,13.08.03,19.61.01,6.31-.01,12.62,0,18.93,0,2.68,0,5.35,0,8.03,0,3.15,0,6.31,0,9.46.03,1.7,0,3.4,0,5.1,0,7.07.08,11.93.85,17.39,5.66,19.48,24.57,24.01,61.38,28.53,91.47.54,3.57,1.09,7.13,1.64,10.7,1.07,6.94,2.13,13.89,3.19,20.83,1.23,8.1,2.48,16.2,3.72,24.3,2.22,14.44,4.43,28.89,6.63,43.33,2.13,14.01,4.28,28.01,6.43,42.01.13.87.27,1.73.4,2.62.53,3.48,1.07,6.96,1.6,10.44,2.05,13.38,4.1,26.76,6.15,40.14.62,4.04,1.24,8.07,1.85,12.11,1.3,8.47,2.59,16.94,3.88,25.41.53,3.5,1.07,7,1.6,10.5.49,3.2.98,6.4,1.47,9.61.26,1.71.52,3.42.79,5.13.15,1.01.31,2.03.46,3.07.13.87.27,1.75.4,2.65q.28,2.39.28,6.72h-123.8c-4.57-24.57-9.14-49.14-13.85-74.46-3.43,4.86-6.86,9.71-10.39,14.72-5.09,6.72-10.28,13.36-15.58,19.91-.59.73-1.19,1.47-1.8,2.23-7.31,9-14.82,17.81-22.66,26.35-.48.53-.96,1.06-1.45,1.6-1.42,1.53-2.89,3-4.39,4.46-.46.46-.91.92-1.38,1.4-5.38,4.76-10.62,4.51-17.55,4.42-1.22,0-2.44,0-3.66.01-3.34.01-6.68,0-10.02-.04-3.61-.02-7.21-.01-10.82-.01-6.25,0-12.49-.01-18.74-.04-9.03-.04-18.06-.06-27.09-.06-14.65-.01-29.3-.05-43.95-.1-14.23-.05-28.46-.08-42.69-.11-.88,0-1.75,0-2.66,0-4.4,0-8.8-.01-13.21-.02-36.51-.05-73.01-.15-109.52-.26.24-1.24.5-2.48.75-3.72q.21-1.03.42-2.09c.85-3.04,2.64-5.22,4.67-7.56.86-1.04,1.72-2.09,2.58-3.14.46-.55.92-1.1,1.39-1.66,2.57-3.12,5.03-6.34,7.5-9.54,1.03-1.33,2.07-2.66,3.1-3.99.5-.64,1-1.28,1.51-1.95,4.02-5.15,8.06-10.29,12.11-15.42,5.36-6.81,10.7-13.64,16.01-20.48,3.45-4.44,6.92-8.87,10.4-13.28,3.24-4.12,6.46-8.26,9.68-12.4,3.97-5.11,7.96-10.21,11.96-15.3,3.24-4.12,6.46-8.26,9.68-12.4,3.97-5.11,7.96-10.21,11.96-15.3,3.24-4.12,6.46-8.26,9.68-12.4,3.97-5.11,7.96-10.21,11.96-15.3,3.24-4.12,6.46-8.26,9.68-12.4,5.55-7.14,11.13-14.25,16.72-21.36,5.36-6.81,10.7-13.64,16.01-20.48,3.45-4.44,6.92-8.87,10.4-13.28,3.24-4.12,6.46-8.26,9.68-12.4,3.97-5.11,7.96-10.21,11.96-15.3,3.24-4.12,6.46-8.26,9.68-12.4,3.97-5.11,7.96-10.21,11.96-15.3,3.77-4.79,7.51-9.6,11.24-14.41,2.35-3.03,4.7-6.05,7.09-9.04.8-1.01,1.6-2.01,2.39-3.02.39-.49.77-.97,1.17-1.48,2.27-2.89,4.41-5.84,6.5-8.86,6.86-9.94,15.13-19.12,24.58-26.67.94-.77,1.87-1.55,2.81-2.32,1.05-.85,2.1-1.7,3.15-2.55.48-.39.96-.79,1.45-1.2,8.16-6.49,15.05-8.43,25.45-8.33ZM2258.81,235.97c-.29.4-.59.81-.89,1.22-6.04,8.26-12.15,16.47-18.37,24.59-3.76,4.91-7.48,9.82-11.04,14.88-3.55,5.06-7.28,9.97-11.04,14.88-6.53,8.53-12.92,17.15-19.26,25.81-6.85,9.35-13.77,18.64-20.81,27.84-5.34,6.99-10.56,14.06-15.76,21.16-2.7,3.69-5.42,7.38-8.13,11.06-.5.68-1,1.37-1.52,2.08-.47.64-.95,1.29-1.43,1.95q-.66.91-1.34,1.84-1.23,1.61-3.3,3.81-2.02,2.67-1.39,9.06h139.39c-2.41-16.36-4.82-32.71-7.3-49.57-.74-5.04-1.49-10.08-2.25-15.28-.96-6.5-1.92-13-2.88-19.5-.09-.58-.17-1.17-.26-1.77-.35-2.36-.7-4.73-1.05-7.09-1.08-7.27-2.15-14.53-3.21-21.8-.72-4.9-1.44-9.79-2.16-14.69-.43-2.9-.85-5.79-1.27-8.69-.46-3.18-.93-6.36-1.4-9.54q-.2-1.42-.41-2.86c-.13-.86-.26-1.72-.39-2.61-.11-.75-.22-1.5-.33-2.27q-.39-2.14-2.18-4.5Z"/>
    <path class="st30" d="M3159.65,121.72c1.44,0,2.87,0,4.31-.02,3.93-.02,7.85.01,11.78.05,4.24.03,8.49.02,12.73.01,7.34,0,14.69.02,22.03.06,10.62.06,21.23.07,31.85.08,17.23.02,34.46.06,51.68.13,16.73.06,33.46.11,50.2.14,1.03,0,2.06,0,3.13,0,5.18,0,10.35.02,15.53.03,42.93.07,85.85.19,128.78.35-1.34,4.22-3.1,7.8-5.47,11.53-.38.6-.75,1.19-1.14,1.81-4.2,6.55-8.96,12.66-13.76,18.78-1.75,2.25-3.43,4.55-5.12,6.84-7.33,9.79-15.19,19.16-23.54,28.09-1.7,1.83-3.32,3.7-4.92,5.62-7.33,8.4-16.63,18.1-27.43,21.7-1.15.08-2.31.11-3.47.1q-1.05,0-2.13,0c-.77,0-1.54,0-2.33,0q-1.22,0-2.46,0c-2.68,0-5.37,0-8.05-.01-1.86,0-3.72,0-5.58,0-4.9,0-9.8-.01-14.69-.02-5,0-9.99-.01-14.99-.02-9.81,0-19.61-.02-29.42-.04-.11.77-.23,1.54-.34,2.33-.46,2.53-1.08,4.7-1.97,7.1-.3.81-.6,1.62-.91,2.46-.33.88-.66,1.75-1,2.66-.35.94-.7,1.87-1.05,2.84-.76,2.04-1.52,4.08-2.28,6.12-2.08,5.58-4.15,11.16-6.22,16.75-.22.58-.43,1.17-.65,1.77-4.74,12.8-9.35,25.64-13.95,38.49-6.85,19.14-13.79,38.25-20.85,57.32-5.89,15.93-11.69,31.9-17.44,47.88-8.22,22.88-16.59,45.7-25.03,68.5-.3.82-.61,1.64-.92,2.48-.29.78-.58,1.57-.88,2.37-.62,1.7-1.24,3.4-1.85,5.1q-.47,1.3-.94,2.63c-.28.78-.56,1.57-.84,2.38q-.71,1.82-1.58,2.69c-1.72.08-3.44.11-5.17.1q-1.68,0-3.4,0c-1.26,0-2.51,0-3.77,0-1.31,0-2.63,0-3.94,0-3.58,0-7.15,0-10.73-.01-3.73,0-7.47,0-11.2,0-7.08,0-14.15,0-21.23-.02-8.05,0-16.11-.01-24.16-.02-16.57,0-33.15-.02-49.72-.04,3.42-9.81,6.86-19.61,10.37-29.39.38-1.07.77-2.14,1.16-3.24,1.03-2.87,2.06-5.73,3.09-8.6.43-1.2.86-2.4,1.29-3.6,6.69-18.62,13.46-37.2,20.33-55.75,5.89-15.94,11.69-31.9,17.44-47.89,6.81-18.94,13.7-37.84,20.69-56.71,8.21-22.19,16.25-44.43,24.33-66.66h-129.87c5.04-15.13,18.71-28.77,29-40.74,2.05-2.4,4.04-4.85,6.01-7.31,3.35-4.12,6.88-8.02,10.51-11.89,2.28-2.43,4.5-4.89,6.68-7.42,3.58-4.11,7.38-7.99,11.22-11.86.68-.7,1.35-1.39,2.05-2.11q1.03-1.03,2.07-2.09c.6-.61,1.2-1.22,1.82-1.84.82-.72,1.65-1.44,2.5-2.19.6-.56,1.2-1.12,1.82-1.7,7-5.88,13.26-6.2,21.99-6.06Z"/>
    <path class="st30" d="M3004.96,538.7c.8,0,1.59-.01,2.41-.02,1.67,0,3.35-.01,5.02-.01,2.54,0,5.08-.04,7.62-.07,1.64,0,3.27,0,4.91-.01.75-.01,1.5-.02,2.27-.04,6.41.05,12.08,1.61,17.26,5.49,4.94,5.82,8.26,12.29,11.62,19.08.61,1.21,1.22,2.42,1.84,3.64,1.2,2.38,2.4,4.76,3.59,7.14,1.96,3.9,3.99,7.77,6.04,11.63,5.52,10.42,10.92,20.91,16.34,31.38,1.76-3.13,2.64-6.44,3.57-9.88.36-1.33.72-2.66,1.09-3.98.19-.7.38-1.4.58-2.13,1.01-3.73,2.05-7.45,3.09-11.18,1.31-4.73,2.62-9.47,3.9-14.21,1.04-3.84,2.1-7.67,3.17-11.5.4-1.45.8-2.91,1.19-4.37q3.65-13.76,9.49-18.03c4.64-2.59,9.35-2.98,14.58-2.97q.91,0,1.84,0c4.96.11,8.03.96,12.07,3.79,1.94,2.91,1.84,3.98,1.32,7.32-1,4.85-2.39,9.59-3.74,14.35-.34,1.2-.67,2.4-1.01,3.61-.9,3.21-1.81,6.42-2.71,9.63-.94,3.32-1.88,6.65-2.81,9.97-1.13,4.01-2.26,8.02-3.39,12.03-2.26,8.01-4.5,16.02-6.71,24.05-.75,2.72-1.51,5.44-2.26,8.16-.46,1.68-.93,3.36-1.38,5.04-.63,2.3-1.27,4.6-1.91,6.9-.18.66-.35,1.31-.53,1.99-1.65,5.83-4.28,10.46-9.48,13.81-10.28,4.83-22.67,3.69-33.76,3.46-.68-.01-1.36-.02-2.07-.03-2.07-.04-4.14-.11-6.21-.18-.63-.01-1.26-.02-1.9-.04-4.68-.22-8.55-1.21-12.33-4.08-5.13-5.7-8.05-13.31-11.31-20.18-.57-1.19-1.14-2.38-1.71-3.57-4.21-8.79-8.3-17.63-12.38-26.48-3.04-6.57-6.16-13.09-9.39-19.58-.4-.8-.79-1.6-1.2-2.43-.37-.73-.73-1.46-1.11-2.21-.32-.63-.64-1.27-.96-1.92q-.88-1.7-2.62-3.29c-3.41,10.97-6.68,21.98-9.78,33.04-.16.56-.31,1.12-.48,1.7-1.46,5.21-2.92,10.42-4.37,15.63-.65,2.33-1.3,4.66-1.96,6.99-.61,2.17-1.21,4.33-1.81,6.5-.27.98-.55,1.95-.83,2.96-.24.85-.47,1.7-.72,2.58-1.82,5.4-3.89,8.71-8.62,11.99-7,2.94-15.6,2.75-22.64-.03-2.63-1.37-3.78-2.48-5.07-5.16.29-7.39,2.55-14.33,4.59-21.38.38-1.33.76-2.67,1.14-4,1.01-3.55,2.03-7.09,3.05-10.63,1.05-3.65,2.09-7.3,3.14-10.95.42-1.45.83-2.91,1.25-4.36q.31-1.07.62-2.17c.62-2.15,1.23-4.3,1.85-6.45,2.24-7.81,4.45-15.64,6.61-23.48.22-.81.44-1.61.67-2.44q1.19-4.3,2.35-8.6c.5-1.84,1-3.68,1.51-5.52.27-.98.53-1.96.8-2.97,1.3-3.56,2.98-6.77,6.05-9.07.54-.25,1.08-.49,1.64-.74.53-.25,1.06-.51,1.61-.77,5.91-2.13,11.28-2.75,17.51-2.77Z"/>
    <path class="st30" d="M2705.8,537.98c.67,0,1.34,0,2.03-.01,2.2-.01,4.39-.02,6.59-.02.76,0,1.52,0,2.3,0,4.02-.01,8.04-.02,12.06-.02,4.11,0,8.22-.03,12.33-.05,3.2-.02,6.39-.02,9.59-.02,1.51,0,3.03,0,4.54-.02,13.89-.1,29.43.17,40.51,9.73,5.91,6.26,7.17,12.15,7.09,20.62-.47,7.59-3.05,14.96-5.15,22.22-.48,1.71-.96,3.41-1.44,5.12-.94,3.33-1.89,6.66-2.85,9.99-1.07,3.73-2.12,7.48-3.14,11.23-4.61,16.69-10.51,30.31-26.14,39.46-9.57,5.1-19.54,6.73-30.28,6.75-.79,0-1.57,0-2.38.01-2.58.01-5.17.02-7.75.02-.89,0-1.78,0-2.69,0-4.7.01-9.4.02-14.1.02-4.83,0-9.66.03-14.49.05-3.74.02-7.47.02-11.21.02-1.78,0-3.56,0-5.34.02-13.99.08-28.72.05-39.56-10.2-4.79-4.88-5.68-9.79-5.62-16.45.22-7.01,2.04-13.48,4.01-20.18.38-1.34.76-2.67,1.13-4.01.79-2.78,1.58-5.55,2.39-8.32,1.03-3.53,2.03-7.06,3.03-10.6.78-2.75,1.56-5.5,2.35-8.25.37-1.3.74-2.6,1.11-3.91,4.11-14.46,9.35-25.96,22.81-33.93,12.12-6.42,24.61-9.23,38.25-9.25ZM2696,572.97c-1.84,2.56-2.63,4.61-3.49,7.63-.3,1.04-.6,2.08-.91,3.15-.31,1.13-.63,2.26-.94,3.38-.33,1.17-.66,2.33-.99,3.5-.69,2.44-1.37,4.88-2.04,7.32-.86,3.12-1.75,6.23-2.64,9.35-.68,2.4-1.36,4.81-2.02,7.22-.32,1.15-.65,2.3-.98,3.45-.46,1.61-.9,3.22-1.34,4.83-.25.91-.51,1.83-.77,2.77-.39,3.1.15,4.95,1.4,7.8q1.51,1.31,3.35,2c.59.26,1.17.53,1.78.8,5.56,2.05,11.25,1.75,17.11,1.78,1.29,0,2.57.03,3.86.05,9.81.2,20.99-.06,28.9-6.73,4.75-5.08,6.15-13.5,7.95-19.99.29-1.02.57-2.03.86-3.08.6-2.14,1.19-4.27,1.78-6.41.91-3.27,1.83-6.54,2.76-9.81.58-2.08,1.16-4.16,1.74-6.24.28-.98.56-1.95.84-2.96.25-.91.5-1.82.75-2.76q.33-1.2.67-2.42c.54-3.31.13-5.64-1.74-8.41-6.87-5.03-15.5-4.62-23.65-4.55q-1.65-.02-3.33-.03c-10.25.03-21.7.29-28.94,8.37Z"/>
    <path class="st30" d="M1255.64,537.98c.67,0,1.34,0,2.03-.01,2.2-.01,4.39-.02,6.59-.02.76,0,1.52,0,2.3,0,4.02-.01,8.04-.02,12.06-.02,4.11,0,8.22-.03,12.33-.05,3.2-.02,6.39-.02,9.59-.02,1.51,0,3.03,0,4.54-.02,13.89-.1,29.43.17,40.51,9.73,5.91,6.26,7.17,12.15,7.09,20.62-.47,7.59-3.05,14.96-5.15,22.22-.48,1.71-.96,3.41-1.44,5.12-.94,3.33-1.89,6.66-2.85,9.99-1.07,3.73-2.12,7.48-3.14,11.23-4.61,16.69-10.51,30.31-26.14,39.46-9.57,5.1-19.54,6.73-30.28,6.75-.79,0-1.57,0-2.38.01-2.58.01-5.17.02-7.75.02-.89,0-1.78,0-2.69,0-4.7.01-9.4.02-14.1.02-4.83,0-9.66.03-14.49.05-3.74.02-7.47.02-11.21.02-1.78,0-3.56,0-5.34.02-13.99.08-28.72.05-39.56-10.2-4.79-4.88-5.68-9.79-5.62-16.45.22-7.01,2.04-13.48,4.01-20.18.38-1.34.76-2.67,1.13-4.01.79-2.78,1.58-5.55,2.39-8.32,1.03-3.53,2.03-7.06,3.03-10.6.78-2.75,1.56-5.5,2.35-8.25.37-1.3.74-2.6,1.11-3.91,4.11-14.46,9.35-25.96,22.81-33.93,12.12-6.42,24.61-9.23,38.25-9.25ZM1245.84,572.97c-1.84,2.56-2.63,4.61-3.49,7.63-.3,1.04-.6,2.08-.91,3.15-.31,1.13-.63,2.26-.94,3.38-.33,1.17-.66,2.33-.99,3.5-.69,2.44-1.37,4.88-2.04,7.32-.86,3.12-1.75,6.23-2.64,9.35-.68,2.4-1.36,4.81-2.02,7.22-.32,1.15-.65,2.3-.98,3.45-.46,1.61-.9,3.22-1.34,4.83-.25.91-.51,1.83-.77,2.77-.39,3.1.15,4.95,1.4,7.8q1.51,1.31,3.35,2c.59.26,1.17.53,1.78.8,5.56,2.05,11.25,1.75,17.11,1.78,1.29,0,2.57.03,3.86.05,9.81.2,20.99-.06,28.9-6.73,4.75-5.08,6.15-13.5,7.95-19.99.29-1.02.57-2.03.86-3.08.6-2.14,1.19-4.27,1.78-6.41.91-3.27,1.83-6.54,2.76-9.81.58-2.08,1.16-4.16,1.74-6.24.28-.98.56-1.95.84-2.96.25-.91.5-1.82.75-2.76q.33-1.2.67-2.42c.54-3.31.13-5.64-1.74-8.41-6.87-5.03-15.5-4.62-23.65-4.55q-1.65-.02-3.33-.03c-10.25.03-21.7.29-28.94,8.37Z"/>
    <path class="st30" d="M3355.16,538.85c.78,0,1.55,0,2.35-.01,2.55-.01,5.09-.02,7.64-.02.87,0,1.75,0,2.65,0,4.62-.01,9.24-.02,13.86-.02,4.76,0,9.53-.03,14.29-.05,3.67-.02,7.35-.02,11.02-.02,1.76,0,3.51,0,5.27-.02,2.46-.01,4.91-.01,7.37,0,.72,0,1.44-.02,2.18-.02,5.22.04,9.06,1.07,13.47,4.01,1.65,2.56,1.79,4.54,1.84,7.58-1.42,5.53-4.7,8.22-9.42,11.14-3.54,1.89-6.39,1.96-10.35,1.98-.6,0-1.2,0-1.81.01-1.3,0-2.6.02-3.9.02-2.06.01-4.12.03-6.18.05-5.86.05-11.72.1-17.57.13-3.58.02-7.17.05-10.75.09-1.36.01-2.73.02-4.09.02-1.91,0-3.82.02-5.74.05q-1.63.01-3.29.02c-4.32.48-7.62,1.86-11.19,4.4-2,2.85-2.67,5.45-2.27,8.93,2.31,3.33,4.6,4.69,8.47,5.72,4.14.73,8.36.6,12.56.61,2.1.02,4.21.04,6.31.07,3.29.02,6.58.05,9.87.06,3.19.02,6.38.05,9.58.09.97,0,1.94,0,2.94,0,9.6.12,19.14,1.46,26.46,8.17,6.02,7.62,5.87,15.79,5.19,25.11-1.76,13.47-8.66,27.33-19.06,36.1-7.42,5.46-16.16,8.07-25.22,9.03-.67.07-1.34.14-2.03.22-8.32.82-16.64.81-24.99.8-1.73,0-3.45,0-5.18.01-3.58,0-7.17,0-10.75,0-4.58,0-9.15,0-13.73.03-3.55.01-7.1.01-10.65.01-1.69,0-3.37,0-5.06.01-2.36.01-4.71,0-7.07,0-.68,0-1.37.01-2.07.02-6.01-.06-11.31-1.31-16.24-4.83-1.82-2.64-2.26-4.43-2.04-7.64,1.08-5.14,5-8.29,9.02-11.24,3.62-1.84,6.97-1.98,10.96-1.97q.98,0,1.98-.01c1.42,0,2.83-.01,4.25-.02,2.25,0,4.49-.02,6.74-.04,6.39-.05,12.77-.07,19.16-.1,3.91-.01,7.82-.04,11.74-.07,1.48-.01,2.97-.02,4.45-.02,8.78,0,16.8-.11,24.7-4.39,2.52-2.99,3.19-5.99,3.46-9.85-.62-2.84-1.26-3.91-3.41-5.84-2.95-1.79-5.35-2.06-8.73-2.1-.88-.01-1.77-.02-2.68-.04-.96,0-1.92-.02-2.9-.03-2.04-.03-4.07-.06-6.11-.09-3.2-.04-6.41-.08-9.61-.11-3.1-.03-6.19-.08-9.28-.12-.94,0-1.88-.01-2.85-.02-10.66-.17-23.5-.98-31.48-8.96-5.43-7.14-5.77-13.8-5.19-22.51,1.82-13.13,6.59-26.38,17.09-35.01,10.6-7.33,23.42-9.27,36.01-9.28Z"/>
    <path class="st30" d="M937.93,538.85c.78,0,1.55,0,2.35-.01,2.55-.01,5.09-.02,7.64-.02.87,0,1.75,0,2.65,0,4.62-.01,9.24-.02,13.86-.02,4.76,0,9.53-.03,14.29-.05,3.67-.02,7.35-.02,11.02-.02,1.76,0,3.51,0,5.27-.02,2.46-.01,4.91-.01,7.37,0,.72,0,1.44-.02,2.18-.02,5.22.04,9.06,1.07,13.47,4.01,1.65,2.56,1.79,4.54,1.84,7.58-1.42,5.53-4.7,8.22-9.42,11.14-3.54,1.89-6.39,1.96-10.35,1.98-.6,0-1.2,0-1.81.01-1.3,0-2.6.02-3.9.02-2.06.01-4.12.03-6.18.05-5.86.05-11.72.1-17.57.13-3.58.02-7.17.05-10.75.09-1.36.01-2.73.02-4.09.02-1.91,0-3.82.02-5.74.05q-1.63.01-3.29.02c-4.32.48-7.62,1.86-11.19,4.4-2,2.85-2.67,5.45-2.27,8.93,2.31,3.33,4.6,4.69,8.47,5.72,4.14.73,8.36.6,12.56.61,2.1.02,4.21.04,6.31.07,3.29.02,6.58.05,9.87.06,3.19.02,6.38.05,9.58.09.97,0,1.94,0,2.94,0,9.6.12,19.14,1.46,26.46,8.17,6.02,7.62,5.87,15.79,5.19,25.11-1.76,13.47-8.66,27.33-19.06,36.1-7.42,5.46-16.16,8.07-25.22,9.03-.67.07-1.34.14-2.03.22-8.32.82-16.64.81-24.99.8-1.73,0-3.45,0-5.18.01-3.58,0-7.17,0-10.75,0-4.58,0-9.15,0-13.73.03-3.55.01-7.1.01-10.65.01-1.69,0-3.37,0-5.06.01-2.36.01-4.71,0-7.07,0-.68,0-1.37.01-2.07.02-6.01-.06-11.31-1.31-16.24-4.83-1.82-2.64-2.26-4.43-2.04-7.64,1.08-5.14,5-8.29,9.02-11.24,3.62-1.84,6.97-1.98,10.96-1.97q.98,0,1.98-.01c1.42,0,2.83-.01,4.25-.02,2.25,0,4.49-.02,6.74-.04,6.39-.05,12.77-.07,19.16-.1,3.91-.01,7.82-.04,11.74-.07,1.48-.01,2.97-.02,4.45-.02,8.78,0,16.8-.11,24.7-4.39,2.52-2.99,3.19-5.99,3.46-9.85-.62-2.84-1.26-3.91-3.41-5.84-2.95-1.79-5.35-2.06-8.73-2.1-.88-.01-1.77-.02-2.68-.04-.96,0-1.92-.02-2.9-.03-2.04-.03-4.07-.06-6.11-.09-3.2-.04-6.41-.08-9.61-.11-3.1-.03-6.19-.08-9.28-.12-.94,0-1.88-.01-2.85-.02-10.66-.17-23.5-.98-31.48-8.96-5.43-7.14-5.77-13.8-5.19-22.51,1.82-13.13,6.59-26.38,17.09-35.01,10.6-7.33,23.42-9.27,36.01-9.28Z"/>
    <path class="st30" d="M1858.39,543.43c2.79,5.36.07,12.24-1.57,17.76-.2.7-.41,1.4-.61,2.13-.44,1.51-.88,3.02-1.32,4.53-.7,2.39-1.39,4.78-2.08,7.17-1.72,5.94-3.44,11.87-5.17,17.8-1.46,5.03-2.92,10.06-4.38,15.09-.68,2.35-1.37,4.7-2.06,7.05-.42,1.44-.84,2.89-1.25,4.33-.19.65-.39,1.3-.58,1.97-1.01,3.53-1.72,6.7-1.31,10.37,5.96,5.37,13.57,5.47,21.17,5.49q1.28,0,2.58.02c1.79,0,3.59.01,5.38.01,2.72,0,5.44.04,8.16.07q14.12.35,26.44-5.74c2.38-2.81,3.38-5.41,4.36-8.89q.31-1.04.63-2.09c.78-2.63,1.53-5.27,2.28-7.91.33-1.16.66-2.32.99-3.47,3.21-11.26,6.37-22.52,9.51-33.8,1.01-3.62,2.03-7.25,3.05-10.87.38-1.37.77-2.74,1.15-4.11.53-1.9,1.06-3.81,1.6-5.71.3-1.08.6-2.16.91-3.27,1.55-4.55,3.1-7.32,7.41-9.55.66-.35,1.32-.71,2-1.07,6.23-2.81,15.1-2.88,21.65-1.09,3.23,1.52,5.02,2.96,6.27,6.27.28,6.08-1.96,12.25-3.65,18q-.42,1.47-.85,2.96c-.91,3.17-1.83,6.34-2.75,9.5-.63,2.19-1.27,4.37-1.9,6.56-.95,3.29-1.91,6.58-2.86,9.87-1.89,6.52-3.73,13.05-5.53,19.6-.62,2.22-1.24,4.44-1.85,6.66-.38,1.36-.74,2.72-1.11,4.08-2.09,7.83-4.52,14.27-9.8,20.6-.45.56-.9,1.13-1.36,1.71-9.71,11.74-29.46,15.35-43.64,17.09-8.24.77-16.56.59-24.83.54-3.38-.02-6.76-.02-10.15-.01-14.43-.02-28.95-.07-42.97-3.96-.68-.19-1.37-.37-2.07-.56-8.46-2.44-15.1-6.1-19.66-13.83-2.98-7.07.05-15.57,2.11-22.5.3-1.05.6-2.1.91-3.19.81-2.82,1.63-5.63,2.46-8.45.85-2.92,1.7-5.84,2.54-8.76,1.18-4.08,2.36-8.16,3.55-12.23,1.82-6.24,3.6-12.48,5.35-18.74.63-2.25,1.27-4.49,1.9-6.74.39-1.37.77-2.74,1.15-4.12.52-1.87,1.05-3.74,1.59-5.61.29-1.02.57-2.04.87-3.09,1.33-3.59,2.99-6.84,6.08-9.18,11.4-4.95,31.07-7.36,41.27,1.31Z"/>
    <path class="st30" d="M2163.64,537.9q1.53,0,3.09,0c3.35,0,6.7,0,10.05,0,2.34,0,4.68,0,7.01,0,4.89,0,9.79,0,14.68,0,5.64,0,11.28,0,16.92,0,4.86,0,9.72,0,14.58,0,2.9,0,5.79,0,8.69,0,3.23,0,6.46,0,9.69.01.95,0,1.89,0,2.87-.01,6.29.03,12.46.16,17.92,3.54,2.47,2.62,3.56,4.35,3.47,8.02-.73,5.15-2.83,7.63-6.82,10.84-4.1,2.79-7.3,3.21-12.23,3.22-1.39.02-2.77.04-4.16.07-2.17.02-4.35.05-6.52.06-2.11.02-4.21.05-6.31.09-.64,0-1.29,0-1.95,0-4.14.08-6.86.95-10.45,2.98h-1.73c-.14.5-.27,1-.41,1.51-3.28,12.09-6.68,24.14-10.06,36.2-1.16,4.16-2.33,8.31-3.48,12.47-1.13,4.05-2.26,8.09-3.39,12.14-.43,1.53-.86,3.07-1.28,4.6-.6,2.15-1.2,4.29-1.8,6.44-.17.62-.35,1.25-.52,1.89q-3.93,13.91-11.14,18.03c-9.77,4.16-23.59,3.75-33.71,1.08q-4.87-2.47-5.91-5.64c-.22-4.22.86-7.75,2.02-11.79.24-.87.48-1.73.73-2.62.52-1.87,1.05-3.74,1.58-5.6.83-2.94,1.66-5.88,2.47-8.83,2.53-9.06,5.1-18.11,7.72-27.15,1.07-3.67,2.12-7.35,3.18-11.02.75-2.59,1.52-5.18,2.29-7.76.46-1.58.91-3.15,1.37-4.73.22-.71.43-1.43.66-2.16q1.07-3.72.62-7.48-1.17-1.57-3.74-2.18c-2.25-.1-4.48-.16-6.73-.18-1.35-.02-2.71-.05-4.06-.07-2.13-.04-4.26-.07-6.38-.09-2.06-.02-4.11-.06-6.17-.11-.63,0-1.26,0-1.92,0-3.84-.09-6.32-.63-9.37-3-1.97-2.89-2.59-4.66-2.65-8.17,1.37-4.58,3.76-7.55,7.72-10.23,7.46-4.03,15.25-4.36,23.57-4.33Z"/>
    <path class="st30" d="M1556.02,538.77c.78-.02,1.56-.04,2.37-.05,6.25-.04,11.59,1,17,4.22,2.4,4.26.59,10.09-.6,14.65-.38,1.33-.77,2.66-1.16,3.98-.21.73-.42,1.47-.64,2.22-.45,1.58-.91,3.15-1.37,4.72-.73,2.5-1.45,4.99-2.17,7.49-1.79,6.2-3.59,12.4-5.39,18.59-1.53,5.25-3.05,10.5-4.56,15.76-.71,2.45-1.43,4.9-2.15,7.35-.44,1.51-.87,3.02-1.3,4.54-.2.67-.4,1.35-.61,2.04-1.22,4.31-1.55,8.04-1.36,12.53q1.11,0,2.24.02c6.97.05,13.94.11,20.9.19,3.58.04,7.16.07,10.75.1,3.46.02,6.92.06,10.37.1,1.32.01,2.64.02,3.95.03,1.85,0,3.7.03,5.55.06,1.05,0,2.1.02,3.19.03,3.9.48,6.16,1.86,8.74,4.78,1.41,3.61,1.07,6.56.11,10.28-2.8,5.31-6.47,8.45-12.12,10.39q-2.07.22-4.27.23-1.25.01-2.53.02c-.91,0-1.81,0-2.75,0-.96,0-1.93.01-2.92.02-3.18.02-6.37.02-9.55.02-2.21,0-4.43.01-6.64.02-4.64.01-9.28.01-13.92.01-5.36,0-10.71.02-16.07.04-5.16.03-10.32.03-15.48.03-2.19,0-4.38,0-6.58.02-3.07.02-6.13.01-9.2,0-.91,0-1.81.02-2.74.03-5.19-.04-8.15-.47-12.11-3.91-2.43-2.75-2.62-3.97-2.41-7.67.69-5.39,2.22-10.54,3.72-15.75.31-1.1.62-2.2.94-3.33.84-2.97,1.68-5.94,2.53-8.91.88-3.09,1.76-6.19,2.64-9.28,1.08-3.79,2.16-7.58,3.24-11.37,2.05-7.17,4.07-14.34,6.06-21.52,1.16-4.18,2.33-8.35,3.51-12.52.55-1.95,1.09-3.91,1.63-5.86.74-2.7,1.51-5.4,2.27-8.1.21-.79.42-1.58.64-2.4,1.27-4.38,2.32-6.85,6.4-9.3q2.16-1.07,4.33-1.89c.71-.28,1.43-.56,2.16-.85,5.12-1.7,10.03-1.77,15.37-1.8Z"/>
    <path class="st30" d="M2466.54,538.72c.8-.01,1.6-.03,2.43-.04,6.38,0,12.07,1,17.79,3.92,1.84,1.96,1.75,3.19,1.68,5.81-.39,3.68-1.48,7.19-2.51,10.73-.25.87-.49,1.75-.75,2.65-.81,2.88-1.64,5.76-2.47,8.64-.57,2.02-1.14,4.03-1.72,6.05-1.2,4.23-2.4,8.45-3.61,12.68-1.54,5.38-3.07,10.76-4.6,16.15-1.47,5.17-2.94,10.34-4.41,15.51q-.41,1.46-.84,2.94c-1.52,5.32-3.04,10.64-4.59,15.95-.44,1.51-.88,3.02-1.31,4.53-.57,1.96-1.14,3.91-1.73,5.87q-.47,1.59-.95,3.22c-1.29,3.24-2.64,4.82-5.81,6.24-.71.21-1.41.43-2.14.65-.88.27-1.75.54-2.65.81-9.71,2.47-23.48,4.16-32.7-.8-1.6-1.04-3.12-2.12-4.47-3.47.04-6.46,1.75-12.56,3.55-18.71.27-.97.55-1.93.83-2.93.9-3.17,1.82-6.33,2.73-9.49.63-2.21,1.27-4.42,1.9-6.63,1.32-4.62,2.65-9.24,3.99-13.85,1.54-5.33,3.07-10.66,4.59-15.99,1.47-5.15,2.95-10.29,4.43-15.44.63-2.18,1.25-4.37,1.88-6.55.87-3.05,1.75-6.09,2.64-9.14.26-.9.51-1.8.78-2.73q2.86-9.78,7.43-12.98c6.47-3.35,13.47-3.6,20.62-3.57Z"/>
  </g>
  <path class="st38" d="M466.97,392.3c.97,0,1.94,0,2.94,0,1.11,0,2.22,0,3.37-.01q1.84,0,3.71.02c1.29,0,2.57,0,3.9,0,3.53,0,7.07,0,10.6.01,3.69,0,7.38,0,11.07,0,6.2,0,12.4,0,18.59.02,7.18.02,14.35.02,21.53.02,6.89,0,13.78,0,20.68.01,2.94,0,5.88,0,8.81,0,4.1,0,8.19.01,12.29.02q1.84,0,3.72,0c1.11,0,2.22,0,3.36.01q1.45,0,2.94,0,2.18.13,3.18,1.13c.1,1.75.12,3.5.12,5.25,0,1.14,0,2.27,0,3.45,0,1.26,0,2.52-.01,3.81,0,1.32,0,2.63,0,3.99,0,3.62,0,7.24-.01,10.87,0,3.78,0,7.56,0,11.34,0,7.16-.01,14.33-.02,21.49-.01,8.15-.02,16.31-.02,24.46-.01,16.78-.03,33.56-.05,50.34-.64.27-1.28.54-1.94.81q-2.39,1.07-3.06,4.19h-2c-.27.6-.54,1.2-.81,1.81-1.66,3.06-3.3,4.71-6.38,6.36-3.68,2.39-6.48,5.36-9.5,8.52-2.07,2.16-4.15,4.25-6.31,6.31h-2c-.27.58-.54,1.17-.81,1.77-1.2,2.26-2.53,4.04-4.19,5.98-.52.61-1.03,1.23-1.56,1.86q-1.44,1.39-3.44,1.39c-.33,1.32-.66,2.64-1,4h-2c-.27.6-.54,1.2-.81,1.81-1.71,3.16-3.42,4.76-6.56,6.5-2.65,1.71-4.24,3.55-6.17,6.01-2.28,2.64-4.94,4.81-7.59,7.08q-4,3.31-6.74,7.6c-1.66,2.95-4.32,4.13-7.12,6-.95,1.05-1.87,2.14-2.75,3.25q-1.11,1.36-2.25,2.75h-2c-.33.99-.66,1.98-1,3-1.62,1.71-3.3,3.37-5,5-.8.82-1.61,1.65-2.44,2.5-1.86,1.82-3.66,3.4-5.69,5-2.75,2.39-4.17,4.34-5.88,7.5-.66.66-1.32,1.32-2,2h-3v2c-1.43,1.2-2.87,2.4-4.34,3.56-1.69,1.47-3.02,3-4.41,4.75-.74.89-1.48,1.77-2.25,2.69h-2c-.33.99-.66,1.98-1,3-.66.33-1.32.66-2,1-.33.99-.66,1.98-1,3h-3v4H60.66v-5h3v4c40.35-.1,80.7-.21,121.05-.33,4.76-.01,9.52-.03,14.28-.04q1.42,0,2.87,0c15.36-.04,30.72-.08,46.08-.12,15.75-.04,31.5-.08,47.25-.13,9.73-.03,19.45-.06,29.18-.08,6.66-.02,13.32-.04,19.98-.06,3.85-.01,7.7-.02,11.54-.03,4.16,0,8.33-.02,12.49-.04,1.23,0,2.46,0,3.72,0,1.11,0,2.22-.01,3.36-.02.96,0,1.92,0,2.92,0q2.31.02,4.28-1.13c2.34-.15,4.68-.24,7.02-.3.72-.02,1.44-.04,2.19-.06,2.39-.06,4.78-.12,7.17-.18,1.66-.04,3.31-.09,4.97-.13,4.36-.11,8.73-.22,13.09-.33,4.45-.11,8.9-.23,13.35-.34,8.74-.23,17.47-.45,26.21-.66,0-.63,0-1.25.01-1.89.08-15.21.17-30.41.28-45.62.05-7.35.1-14.71.13-22.06.03-6.41.07-12.82.12-19.23.03-3.39.05-6.79.06-10.18.02-3.79.05-7.58.08-11.36q0-1.69,0-3.41c.01-1.03.02-2.06.03-3.13,0-.9.01-1.79.02-2.72.28-2.55.98-4.2,2.26-6.4-.97,0-1.94,0-2.93,0-9.32.02-18.64.04-27.95.05-4.79,0-9.57.01-14.36.02-17.95.04-35.88.08-53.82-.49-27.81-.89-55.64-.8-83.46-.82-8.19,0-16.38-.02-24.57-.05-6.41-.02-12.82-.03-19.23-.03-3.8,0-7.6,0-11.4-.02-4.2-.02-8.39-.02-12.59,0q-1.87-.01-3.78-.03c-1.14,0-2.27.01-3.44.02-.99,0-1.98,0-2.99,0-2.88.43-3.6,1.23-5.47,3.37h-2c-.33.99-.66,1.98-1,3q-1.67,1.65-3.75,3.38c-2.47,2.08-4.84,4.16-7.06,6.5q-2.19,2.12-5.19,3.12c-2.24,1.96-3.85,3.73-5.32,6.33-1.89,3-4.02,5.2-6.55,7.67-.84.82-1.69,1.65-2.55,2.5-.85.82-1.7,1.65-2.57,2.5-.77.77-1.55,1.55-2.35,2.35-2.56,2.56-5.13,5.1-7.7,7.63-1.42,1.4-2.83,2.8-4.25,4.21-.98.97-1.95,1.93-2.93,2.89-1.42,1.4-2.84,2.81-4.26,4.21-.84.83-1.69,1.66-2.55,2.52q-2.16,2.12-2.96,5.19c-1.39.91-2.78,1.82-4.19,2.71-3.72,2.66-6.77,6.13-9.93,9.42-1.39,1.44-2.79,2.89-4.2,4.32-.61.63-1.22,1.27-1.85,1.92q-1.83,1.63-3.93,2.67t-3.9,3.97h-2q-.15.88-.31,1.79c-.81,2.59-1.83,3.72-3.75,5.63-.61.61-1.23,1.23-1.86,1.86-.65.63-1.29,1.26-1.96,1.91-.64.64-1.28,1.28-1.93,1.94q-4.79,4.74-8.19,5.87c2.25-7.44,8.13-12.3,14-17,1.02-.98,2.02-1.98,3-3,8.33-8.33,16.67-16.67,25-25,.78-.78,1.56-1.56,2.37-2.37,2.49-2.49,5-4.96,7.51-7.43,1.86-1.84,3.71-3.67,5.57-5.51q1.39-1.37,2.81-2.76c4.56-4.53,8.84-8.99,12.54-14.26,1.84-2.54,3.87-4.59,6.21-6.67h2c.23-.58.45-1.15.69-1.75,1.64-2.82,3.75-4.26,6.31-6.25.66-.99,1.32-1.98,2-3,.76-.45,1.53-.91,2.31-1.38,3.7-2.24,6.37-5.22,9.31-8.36.58-.6,1.16-1.2,1.75-1.82q.79-.84,1.59-1.69c5.89-5.05,10.44-6.34,18-6.23q1.32,0,2.66-.01c2.94,0,5.87.01,8.81.03,2.11,0,4.22,0,6.33,0,5.73,0,11.45.01,17.18.04,6.01.02,12.01.02,18.02.02,10.1,0,20.2.03,30.3.06,12.92.04,25.84.06,38.75.07,11.15,0,22.29.03,33.44.05,2.38,0,4.76,0,7.14.01,6.81,0,13.61.02,20.42.05,2.05,0,4.1.01,6.16.01,10.16.01,20.27.18,30.41.82,7.52.46,15.02.47,22.55.42,1.36,0,2.73,0,4.09-.01,3.26-.01,6.52-.03,9.79-.05,0-.68,0-1.37.01-2.07.08-16.62.17-33.23.28-49.85.05-8.04.1-16.07.13-24.11.03-7,.07-14,.12-21.01.03-3.71.05-7.42.06-11.13.02-4.14.05-8.27.08-12.41q0-1.85,0-3.75c.01-1.12.02-2.24.03-3.4,0-.98.01-1.96.02-2.97.37-3.26,1.3-4.22,4.57-4.57ZM464.66,395.55c-.18,19.56-.34,39.12-.5,58.69,0,.74-.01,1.47-.02,2.23-.38,47.63-.57,95.26-.54,142.89,0,.69,0,1.38,0,2.09.01,17.37.03,34.73.06,52.1q2.98-.83,6-2,1.19-2.36,2-5,1.82-2.19,3.99-4.36c.79-.79,1.58-1.57,2.39-2.38.82-.81,1.65-1.62,2.5-2.45.82-.82,1.63-1.64,2.47-2.48,3.44-3.41,6.31-6.17,10.65-8.33.5-.82.99-1.65,1.5-2.5,1.69-2.82,2.67-3.09,5.5-4.5.49-.85.99-1.69,1.5-2.56q1.5-2.44,3.56-2.94c.64-.16,1.28-.33,1.94-.5.29-.75.58-1.5.88-2.27,1.25-3.04,2.66-4.64,5-6.92.68-.67,1.36-1.35,2.05-2.04,1.96-1.67,3.72-2.74,6.07-3.77v-2q1.98-.99,4-2v-2c.99-.33,1.98-.66,3-1,.47-.8.95-1.61,1.44-2.44,1.66-2.72,2.65-3.46,5.56-4.56v-2c.99-.33,1.98-.66,3-1,.47-.82.95-1.65,1.44-2.5q1.56-2.5,3.62-3c.64-.16,1.28-.33,1.94-.5q.46-1.18.94-2.38c1.36-3.36,2.99-3.83,6.06-5.62,1.01-1.66,2.01-3.33,3-5,3.31-3.75,6.39-6.94,11-9v-2c1.32-.66,2.64-1.32,4-2v-2c.99-.33,1.98-.66,3-1v-2c.99-.33,1.98-.66,3-1v-2c1.32-.66,2.64-1.32,4-2v-2c.99-.33,1.98-.66,3-1v-2c1.32-.66,2.64-1.32,4-2v-2h3v-3h5v-133q-31.87-.03-64.38-.06c-6.72,0-13.43-.02-20.35-.03q-6,0-12,0c-2.68,0-5.36,0-8.04-.01-4.05,0-8.1,0-12.16,0q-1.8,0-3.64-.01-1.63,0-3.29,0-1.42,0-2.88,0-2.3-.03-4.26,1.12Z"/>
  <path class="st6" d="M325.66,124.55h402v4c-.66-.33-1.32-.66-2-1,.33-.66.66-1.32,1-2-28.65.1-57.31.21-85.96.33-3.38.01-6.77.03-10.15.04-.67,0-1.35,0-2.04,0-10.9.04-21.81.08-32.71.12-11.19.04-22.38.08-33.58.13-6.28.03-12.57.05-18.85.07-5.92.02-11.83.04-17.75.07-2.17,0-4.34.02-6.51.02-2.97,0-5.93.02-8.9.04-.86,0-1.71,0-2.59,0-5.07.03-9.92.48-14.95,1.16-2.15.13-4.31.24-6.46.31q-1.82.06-3.67.13c-1.29.04-2.58.08-3.91.12q-1.01.03-2.05.06c-14.06.43-28.12.51-42.19.49-3.85,0-7.7-.01-11.55-.01-9.2,0-18.4-.02-27.6-.03-20.65-.02-41.29-.04-62.56-.06.33,41.58.66,83.16,1,126h63c6.27.33,12.54.66,19,1q6.9.12,13.79.18,1.19,0,2.41,0c.82,0,1.64,0,2.49,0,1.78,0,3.56.02,5.33.02,5.75.03,11.5.04,17.25.06,1.99,0,3.99.01,5.98.02,8.28.02,16.56.04,24.85.05,11.82.02,23.64.05,35.46.11,8.35.04,16.7.06,25.05.06,4.97,0,9.95.02,14.92.05,4.66.03,9.33.04,13.99.02,1.71,0,3.42,0,5.13.03,2.33.02,4.67.01,7,0q1.96,0,3.96.01c4.25-.78,5.62-2.4,8.39-5.62,1.65-1.02,3.32-2.03,5-3,1.84-1.57,2.86-2.68,3.84-4.88,1.34-2.46,2.82-3.77,4.97-5.55,5.16-4.3,9.7-9.07,14.19-14.06,4.41-4.91,8.87-9.63,13.94-13.88,3.26-2.81,6-5.75,8.64-9.14,1.64-1.71,3.31-2.44,5.42-3.48.41-.72.83-1.44,1.25-2.19,2.11-3.39,4.67-5.43,7.7-7.99,1.9-1.7,3.49-3.42,5.11-5.39,2.46-2.99,5.12-5.45,8.13-7.88,2.4-2.06,4.58-4.3,6.81-6.55.95-.94,1.91-1.88,2.86-2.82.96-.95,1.93-1.91,2.89-2.86.49-.49.99-.97,1.5-1.47q2.72-2.66,4.75-5.84c.64-.31,1.28-.62,1.94-.94q2.38-1.02,4.06-4.06c.66.33,1.32.66,2,1-2.7,3.46-5.39,6.42-8.75,9.25-4.12,3.49-7.59,7.41-11.14,11.46-1.73,1.89-3.42,3.51-5.42,5.11q-2.72,2.05-4.56,4.56c-1.84,2.27-3.53,3.89-5.75,5.75-4.39,3.74-8.16,7.92-11.98,12.23-3.25,3.6-6.52,6.96-10.33,9.96-3.03,2.48-5.16,5.34-7.44,8.5-5.61,7.56-12.39,14.17-19.02,20.82-1.61,1.62-3.2,3.24-4.8,4.87-1.04,1.04-2.08,2.09-3.12,3.13-.92.93-1.85,1.87-2.8,2.83-2.6,2.28-4.94,3.87-7.97,5.45q-2.1,1.1-4.36,3.11c-4.45,2.95-9.16,2.5-14.34,2.44-1.09,0-2.17,0-3.29.01-3.64,0-7.29-.02-10.93-.04-2.61,0-5.22,0-7.84,0-5.62,0-11.25-.01-16.87-.03-8.13-.03-16.26-.04-24.39-.05-13.19,0-26.38-.04-39.57-.07-12.81-.04-25.62-.06-38.44-.08-.8,0-1.6,0-2.42,0-6.24,0-12.48-.02-18.72-.02-30.58-.04-61.17-.12-91.75-.19v132h-2c-.02-17.32-.04-34.65-.05-51.97,0-8.04-.01-16.09-.02-24.13,0-7.01-.02-14.02-.02-21.02,0-3.71,0-7.43-.01-11.14,0-4.14,0-8.28,0-12.41,0-1.24,0-2.48-.01-3.76,0-1.12,0-2.24,0-3.4,0-.98,0-1.96,0-2.97q.12-2.2,1.12-3.2c.11-1.7.15-3.39.16-5.09,0-1.1.02-2.21.03-3.34,0-1.22.01-2.44.02-3.7,0-1.28.02-2.56.03-3.87.03-3.51.05-7.03.07-10.54.02-3.67.05-7.34.08-11.01.05-6.95.09-13.9.14-20.86.05-7.91.1-15.83.16-23.74.11-16.28.22-32.56.32-48.84h-4q-.08.81-.15,1.63c-1.25,3.5-3.77,5.68-6.38,8.24-.58.58-1.15,1.15-1.74,1.75-1.9,1.9-3.82,3.79-5.73,5.68-1.32,1.32-2.64,2.63-3.96,3.95-3.48,3.47-6.96,6.92-10.45,10.38-3.56,3.53-7.11,7.06-10.66,10.6-6.97,6.93-13.94,13.86-20.92,20.78,0-3.68,1.16-4.51,3.67-7.02.54-.53,1.08-1.05,1.64-1.6.56-.56,1.13-1.12,1.71-1.7,1.87-1.86,3.75-3.71,5.63-5.56,1.3-1.29,2.6-2.58,3.89-3.87,3.42-3.4,6.85-6.79,10.28-10.18,5.49-5.42,10.98-10.85,16.45-16.29,1.92-1.9,3.84-3.79,5.77-5.69,1.17-1.16,2.35-2.33,3.52-3.49.54-.53,1.08-1.05,1.63-1.6,2.34-2.34,3.74-3.83,4.81-7.02Z"/>
  <path class="st14" d="M466.97,392.3c.97,0,1.94,0,2.94,0,1.11,0,2.22,0,3.37-.01q1.84,0,3.71.02c1.29,0,2.57,0,3.9,0,3.53,0,7.07,0,10.6.01,3.69,0,7.38,0,11.07,0,6.2,0,12.4,0,18.59.02,7.18.02,14.35.02,21.53.02,6.89,0,13.78,0,20.68.01,2.94,0,5.88,0,8.81,0,4.1,0,8.19.01,12.29.02q1.84,0,3.72,0c1.11,0,2.22,0,3.36.01q1.45,0,2.94,0,2.18.13,3.18,1.13c.1,1.75.12,3.5.12,5.25q0,1.71,0,3.45c0,1.26,0,2.52-.01,3.81,0,1.32,0,2.63,0,3.99,0,3.62,0,7.24-.01,10.87,0,3.78,0,7.56,0,11.34,0,7.16-.01,14.33-.02,21.49-.01,8.15-.02,16.31-.02,24.46-.01,16.78-.03,33.56-.05,50.34q-.96.4-1.94.81-2.39,1.07-3.06,4.19h-2c-.27.6-.54,1.2-.81,1.81-1.66,3.06-3.3,4.71-6.38,6.36-3.68,2.39-6.48,5.36-9.5,8.52-2.07,2.16-4.15,4.25-6.31,6.31h-2c-.27.58-.54,1.17-.81,1.77-1.2,2.26-2.53,4.04-4.19,5.98-.52.61-1.03,1.23-1.56,1.86q-1.44,1.39-3.44,1.39c-.33,1.32-.66,2.64-1,4h-2c-.27.6-.54,1.2-.81,1.81-1.71,3.16-3.42,4.76-6.56,6.5-2.65,1.71-4.24,3.55-6.17,6.01-2.28,2.64-4.94,4.81-7.59,7.08q-4,3.31-6.74,7.6c-1.66,2.95-4.32,4.13-7.12,6-.95,1.05-1.87,2.14-2.75,3.25q-1.11,1.36-2.25,2.75h-2c-.33.99-.66,1.98-1,3-1.62,1.71-3.3,3.37-5,5-.8.82-1.61,1.65-2.44,2.5-1.86,1.82-3.66,3.4-5.69,5-2.75,2.39-4.17,4.34-5.88,7.5q-.99.99-2,2h-3v2c-1.43,1.2-2.87,2.4-4.34,3.56-1.69,1.47-3.02,3-4.41,4.75-.74.89-1.48,1.77-2.25,2.69h-2c-.33.99-.66,1.98-1,3-.66.33-1.32.66-2,1-.33.99-.66,1.98-1,3h-3v3h-3v-3h-2c-.02-16.8-.04-33.6-.05-50.41,0-7.8-.01-15.6-.02-23.4,0-6.8-.02-13.59-.02-20.39,0-3.6,0-7.2-.01-10.8,0-4.01,0-8.03,0-12.04,0-1.2,0-2.41-.01-3.64,0-1.09,0-2.17,0-3.29,0-.95,0-1.9,0-2.88q.12-2.14,1.12-3.14c.1-1.72.14-3.44.14-5.16,0-1.12.01-2.24.02-3.39,0-1.24,0-2.47,0-3.75.01-1.99.02-3.97.03-5.96.01-2.14.02-4.28.03-6.43.02-4.46.04-8.91.06-13.37.07-12.68.13-25.35.18-38.03.03-7,.06-13.99.11-20.99.03-4.43.04-8.87.06-13.3.01-3.4.04-6.8.06-10.21,0-1.23,0-2.47,0-3.74,0-1.12.02-2.24.03-3.4,0-.98,0-1.96.01-2.96.36-3.25,1.3-4.22,4.56-4.57ZM464.66,395.55c-.18,19.56-.34,39.12-.5,58.69,0,.74-.01,1.47-.02,2.23-.38,47.63-.57,95.26-.54,142.89,0,.69,0,1.38,0,2.09.01,17.37.03,34.73.06,52.1q2.98-.83,6-2,1.19-2.36,2-5,1.82-2.19,3.99-4.36c.79-.79,1.58-1.57,2.39-2.38.82-.81,1.65-1.62,2.5-2.45.82-.82,1.63-1.64,2.47-2.48,3.44-3.41,6.31-6.17,10.65-8.33.5-.82.99-1.65,1.5-2.5,1.69-2.82,2.67-3.09,5.5-4.5.49-.85.99-1.69,1.5-2.56q1.5-2.44,3.56-2.94c.64-.16,1.28-.33,1.94-.5.29-.75.58-1.5.88-2.27,1.25-3.04,2.66-4.64,5-6.92.68-.67,1.36-1.35,2.05-2.04,1.96-1.67,3.72-2.74,6.07-3.77v-2q1.98-.99,4-2v-2c.99-.33,1.98-.66,3-1,.47-.8.95-1.61,1.44-2.44,1.66-2.72,2.65-3.46,5.56-4.56v-2c.99-.33,1.98-.66,3-1,.47-.82.95-1.65,1.44-2.5q1.56-2.5,3.62-3c.64-.16,1.28-.33,1.94-.5q.46-1.18.94-2.38c1.36-3.36,2.99-3.83,6.06-5.62,1.01-1.66,2.01-3.33,3-5,3.31-3.75,6.39-6.94,11-9v-2c1.32-.66,2.64-1.32,4-2v-2c.99-.33,1.98-.66,3-1v-2c.99-.33,1.98-.66,3-1v-2c1.32-.66,2.64-1.32,4-2v-2c.99-.33,1.98-.66,3-1v-2c1.32-.66,2.64-1.32,4-2v-2h3v-3h5v-133q-31.87-.03-64.38-.06c-6.72,0-13.43-.02-20.35-.03q-6,0-12,0c-2.68,0-5.36,0-8.04-.01-4.05,0-8.1,0-12.16,0q-1.8,0-3.64-.01-1.63,0-3.29,0-1.42,0-2.88,0-2.3-.03-4.26,1.12Z"/>
  <path class="st32" d="M326.66,125.55h4c.02,17.06.04,34.13.05,51.19,0,7.92.01,15.84.02,23.77,0,6.9.02,13.8.02,20.71,0,3.66,0,7.31.01,10.97,0,4.08,0,8.15,0,12.23,0,1.22,0,2.44.01,3.7,0,1.1,0,2.21,0,3.34q0,1.45,0,2.92-.12,2.17-1.12,3.17c-.11,1.73-.15,3.47-.16,5.21,0,1.13-.02,2.26-.03,3.42,0,1.25-.01,2.5-.02,3.79,0,1.31-.02,2.61-.03,3.96-.03,3.59-.05,7.19-.07,10.78-.02,3.75-.05,7.51-.08,11.26-.05,7.11-.09,14.22-.14,21.33-.05,8.09-.1,16.19-.16,24.28-.11,16.65-.22,33.31-.32,49.96-16.75.07-33.5.12-50.25.16-7.78.02-15.55.04-23.33.07-6.78.03-13.56.05-20.33.06-3.59,0-7.18.01-10.77.03-4.01.02-8.01.02-12.02.02-1.19.01-2.38.02-3.61.03-1.09,0-2.18,0-3.31-.01-.95,0-1.9,0-2.87,0-3.05-.45-4.39-1.12-6.51-3.37q-.49-2.34-.48-5.14c0-1.06-.01-2.13-.02-3.23.01-1.17.03-2.33.04-3.54,0-1.23,0-2.46,0-3.73,0-3.37.02-6.74.05-10.11.02-3.52.03-7.05.03-10.57.01-6.67.05-13.34.09-20.02.04-7.6.07-15.19.09-22.79.04-15.63.11-31.25.2-46.88h1c0,.63,0,1.26.01,1.91.1,15.35.21,30.7.33,46.04.06,7.42.11,14.84.16,22.27.04,6.47.09,12.94.14,19.4.03,3.43.05,6.85.07,10.28.02,3.82.05,7.64.09,11.46,0,1.14.01,2.28.02,3.45,0,1.04.02,2.08.03,3.15,0,.9.01,1.81.02,2.74q.05,2.45,1.14,5.29c42.24.33,84.48.66,128,1-.33-84.81-.66-169.62-1-257-1.32.33-2.64.66-4,1q.96-1.14,1.94-2.31,2.2-2.57,3.06-5.69Z"/>
  <path class="st29" d="M463.88,391.43c.99,0,1.97,0,2.99,0,1.13,0,2.26,0,3.42,0q1.87,0,3.79.01c1.31,0,2.61,0,3.96,0,3.59,0,7.19,0,10.78.01,3.75,0,7.51,0,11.26,0,7.11,0,14.22.01,21.33.02,8.09.01,16.19.02,24.28.02,16.65.01,33.31.03,49.96.05v1c-.67,0-1.35,0-2.04.01-16.38.1-32.76.21-49.15.33-7.92.06-15.84.11-23.77.16-6.9.04-13.8.09-20.71.14-3.66.03-7.31.05-10.97.07-4.08.02-8.15.05-12.23.09q-1.83,0-3.7.02c-1.1,0-2.21.02-3.34.03-.97,0-1.93.01-2.92.02q-2.15-.1-3.17,1.14c-.11,1.72-.14,3.44-.15,5.16,0,1.12-.02,2.24-.03,3.39q0,1.86-.01,3.75c-.01,1.99-.03,3.98-.04,5.97-.01,2.14-.02,4.29-.03,6.43-.02,4.46-.05,8.92-.08,13.38-.06,9.47-.11,18.94-.16,28.41-.06,10.22-.11,20.44-.18,30.67-.03,4.44-.05,8.88-.07,13.32-.01,2.09-.02,4.19-.04,6.28-.02,2.56-.03,5.12-.04,7.68,0,1.12-.02,2.24-.03,3.39,0,.98-.01,1.96-.02,2.97q-.14,2.2-1.14,3.2c-2.01.1-4.02.13-6.03.13-1.27,0-2.54,0-3.85,0-.67,0-1.34,0-2.03,0-1.97,0-3.93,0-5.9,0-6.09,0-12.13-.1-18.21-.5-11.27-.73-22.53-.8-33.82-.82-2.13,0-4.26-.01-6.38-.02-6.91-.02-13.82-.03-20.73-.04-2.39,0-4.78,0-7.17-.01-11.22-.02-22.44-.03-33.66-.04-12.92,0-25.84-.04-38.76-.08-10.02-.03-20.04-.04-30.06-.05-5.97,0-11.95-.01-17.92-.04-5.61-.02-11.21-.03-16.82-.02-2.05,0-4.11,0-6.16-.02-2.81-.02-5.61-.01-8.42,0-.81-.01-1.62-.02-2.45-.03-5.83.07-9.57,1.62-14.63,4.52v-3c.99-.33,1.98-.66,3-1,.33-.99.66-1.98,1-3,32.05-.02,64.1-.04,96.16-.05,3.78,0,7.56,0,11.34,0,.75,0,1.51,0,2.28,0,12.2,0,24.4-.01,36.6-.02,12.51,0,25.03-.01,37.54-.02,7.72,0,15.45,0,23.17-.01,5.92,0,11.83,0,17.75,0,2.43,0,4.86,0,7.3,0,3.31,0,6.62,0,9.93,0,.97,0,1.94,0,2.94,0,.88,0,1.77,0,2.68,0,.76,0,1.53,0,2.32,0q1.99.12,4.99,1.12c2.23.22,4.46.41,6.69.56,1.18.08,2.36.17,3.57.25.9.06,1.81.12,2.74.18q0-1.03,0-2.09c-.02-16.76-.04-33.52-.05-50.27,0-8.1-.01-16.21-.02-24.31,0-7.06-.02-14.12-.02-21.18,0-3.74,0-7.48-.01-11.22,0-4.17,0-8.34,0-12.51,0-1.25,0-2.5-.01-3.79,0-1.13,0-2.26,0-3.42q0-1.48,0-2.99c.17-2.99.34-3.17,3.34-3.34Z"/>
  <path class="st22" d="M590.66,527.55l1,4h-3c-.07.72-.15,1.45-.22,2.2-.99,3.57-2.56,5.07-5.18,7.67-.89.89-1.78,1.77-2.7,2.69-.94.91-1.87,1.82-2.84,2.76-.93.93-1.87,1.86-2.83,2.82q-6.96,6.87-9.24,6.87c-.27.58-.54,1.17-.81,1.77-1.2,2.26-2.53,4.04-4.19,5.98-.52.61-1.03,1.23-1.56,1.86q-1.44,1.39-3.44,1.39c-.33,1.32-.66,2.64-1,4h-2c-.27.6-.54,1.2-.81,1.81-1.71,3.16-3.42,4.76-6.56,6.5-2.65,1.71-4.24,3.55-6.17,6.01-2.28,2.64-4.94,4.81-7.59,7.08q-4,3.31-6.74,7.6c-1.66,2.95-4.32,4.13-7.12,6-.95,1.05-1.87,2.14-2.75,3.25q-1.11,1.36-2.25,2.75h-2q-.5,1.49-1,3c-1.62,1.71-3.3,3.37-5,5-.8.82-1.61,1.65-2.44,2.5-1.86,1.82-3.66,3.4-5.69,5-2.75,2.39-4.17,4.34-5.88,7.5l-2,2h-3v2c-1.46,1.23-2.92,2.45-4.42,3.62q-1.81,1.47-3.64,4.19-1.94,2.19-4.69,2.5c-.74-.1-1.49-.21-2.25-.31v3h-3v3c-1.65-.33-3.3-.66-5-1v-126h1v125q1.49-.99,3-2h3q.12-1.09.24-2.21c.94-3.46,2.37-4.88,4.91-7.4.84-.84,1.68-1.67,2.55-2.54.88-.86,1.77-1.72,2.68-2.61.88-.88,1.75-1.75,2.66-2.65q6.55-6.46,9.97-7.6c.47-.8.95-1.61,1.44-2.44,1.74-2.85,2.69-3.13,5.56-4.56.47-.85.95-1.69,1.44-2.56q1.56-2.44,4.25-3.25c.76-.06,1.53-.12,2.31-.19.07-.73.15-1.45.23-2.2.98-3.53,2.53-5.02,5.15-7.55.79-.78,1.58-1.56,2.4-2.36q2.23-1.89,5.23-2.89c1.69-1.98,3.36-3.98,5-6,.66-.33,1.32-.66,2-1,.45-.8.91-1.61,1.38-2.44,1.76-2.78,2.71-3.29,5.62-4.56,2.09-1.76,3.09-3.18,4.38-5.62q1.62-2.38,4.31-3.19c.76-.06,1.53-.12,2.31-.19q.09-1.14.19-2.31c1.08-3.57,2.65-3.88,5.81-5.69l1.31-2.19c2.94-4.89,7.19-9.98,12.69-11.81,1.24-1.47,2.48-2.95,3.68-4.46,1.85-2.17,4.1-3.77,6.32-5.54.8-.97,1.61-1.94,2.44-2.94,1.92-2.3,3.53-3.97,5.81-5.81q2.77-1.96,3.75-4.25h3v-3Z"/>
  <path class="st10" d="M79.66,643.55l1,2c-1.29,1.38-2.63,2.71-4,4h-2c-.33.99-.66,1.98-1,3h-2c-.66,1.98-1.32,3.96-2,6,30.13-.11,60.26-.22,90.39-.33,3.59-.01,7.19-.03,10.78-.04.72,0,1.43,0,2.17,0,11.43-.04,22.87-.08,34.3-.12,11.82-.04,23.63-.09,35.45-.13,6.6-.03,13.2-.05,19.8-.07,29.54-.1,59.08-.35,88.62-.94,16.83-.34,33.65-.47,50.49-.41,2.49,0,4.98,0,7.47.01,5.84.01,11.68.03,17.53.05v2c-.55.01-1.09.02-1.66.03-5.68.11-11.35.22-17.03.34-2.12.04-4.24.09-6.36.12-3.04.06-6.09.12-9.13.19q-1.43.03-2.89.05c-.88.02-1.76.04-2.67.06-.78.02-1.55.03-2.36.05q-2,.05-3.91,1.16c-1.73.09-3.46.12-5.2.12-1.11,0-2.22,0-3.36,0-1.23,0-2.46,0-3.72,0-1.3,0-2.59,0-3.93,0-3.61,0-7.22,0-10.83,0-3.89,0-7.78,0-11.66,0-6.74,0-13.48,0-20.22,0-9.75,0-19.49-.01-29.24-.01-15.81,0-31.62,0-47.43-.02-15.36,0-30.72-.02-46.08-.02q-1.42,0-2.87,0c-4.75,0-9.49,0-14.24,0-39.41-.01-78.81-.03-118.22-.05v-4q1.93-1.63,4.44-3.12,3.38-1.87,5.56-4.88h2v-3l4-2Z"/>
  <path class="st23" d="M200.49,527.18q1.03,0,2.08-.01c2.3,0,4.6,0,6.9.01,1.65,0,3.3,0,4.96-.01,4.5,0,9,0,13.5.01,4.75.01,9.51,0,14.26,0,8.03,0,16.05.01,24.08.03,8.15.02,16.31.03,24.46.02q87.07-.06,122.94,2.32v1c-4.72.03-9.43.04-14.15.05-1.58,0-3.17.01-4.75.02-9.46.05-18.91-.05-28.37-.36-29.75-.95-59.5-.94-89.26-.96-8.19,0-16.38-.02-24.57-.05-6.41-.02-12.82-.03-19.23-.03-3.8,0-7.6,0-11.4-.02-4.2-.02-8.39-.02-12.59,0q-1.87-.01-3.78-.03c-1.14,0-2.27.01-3.44.02-.99,0-1.98,0-2.99,0-2.88.43-3.6,1.23-5.47,3.37h-2c-.33.99-.66,1.98-1,3q-1.67,1.65-3.75,3.38c-2.47,2.08-4.84,4.16-7.06,6.5q-2.19,2.12-5.19,3.12c-2.24,1.96-3.85,3.73-5.32,6.33-1.89,3-4.02,5.2-6.55,7.67-.84.83-1.69,1.65-2.55,2.5-.85.83-1.7,1.65-2.57,2.5l-2.35,2.35c-2.56,2.56-5.13,5.1-7.7,7.63-1.42,1.4-2.83,2.8-4.25,4.21-.98.97-1.95,1.93-2.93,2.89-1.42,1.4-2.84,2.81-4.26,4.21-.84.83-1.69,1.66-2.55,2.52q-2.16,2.12-2.96,5.19c-1.39.91-2.78,1.82-4.19,2.71-3.72,2.66-6.77,6.13-9.93,9.42-1.39,1.44-2.79,2.89-4.2,4.32-.61.63-1.22,1.27-1.85,1.92q-1.83,1.63-3.93,2.67t-3.9,3.97h-2q-.15.88-.31,1.79c-.81,2.59-1.83,3.72-3.75,5.63-.61.61-1.23,1.23-1.86,1.86-.65.63-1.29,1.26-1.96,1.91q-.96.96-1.93,1.94-4.79,4.74-8.19,5.87c2.25-7.44,8.13-12.3,14-17,1.02-.98,2.02-1.98,3-3l25-25c.78-.78,1.56-1.56,2.37-2.37,2.49-2.49,5-4.96,7.51-7.43,1.86-1.84,3.71-3.67,5.57-5.51.93-.91,1.86-1.82,2.81-2.76,4.56-4.53,8.84-8.99,12.54-14.26,1.84-2.54,3.87-4.59,6.21-6.67h2c.23-.58.45-1.16.69-1.75,1.64-2.82,3.75-4.26,6.31-6.25q.99-1.49,2-3,1.14-.68,2.31-1.38c3.09-1.87,5.19-4.01,7.69-6.62,1.18-1.21,2.37-2.42,3.56-3.62.56-.57,1.12-1.14,1.69-1.73,4.26-4.02,6.56-5.02,12.57-5.02Z"/>
  <path class="st39" d="M204.44,528.87c.85,0,1.7,0,2.57,0,2.79,0,5.57.05,8.36.1,1.94.01,3.88.02,5.82.03,5.09.02,10.18.08,15.27.15,5.2.06,10.4.09,15.61.12,10.2.06,20.39.17,30.58.29v1c-.93-.13-1.87-.26-2.83-.4-12-1.63-24.01-2.62-36.11-3.16-.97-.04-1.93-.09-2.93-.13-26.96-1.04-46.43,2.8-66.65,21.38-5.36,5.08-10.41,10.41-15.36,15.88q-1.06,1.16-2.13,2.35c-8.74,9.71-17.04,19.72-24.99,30.08-.33-.99-.66-1.98-1-3,7.33-7.33,14.67-14.67,22-22,.88-.88,1.75-1.76,2.65-2.66,1.71-1.71,3.44-3.41,5.17-5.09.95-.94,1.91-1.87,2.86-2.81.49-.47.97-.94,1.47-1.42,2.55-2.51,4.41-4.74,5.84-8.02,1.99-2.26,3.74-3.85,6.36-5.35,2.77-1.73,4.75-3.6,7.01-5.96,1.52-1.58,3.06-3.14,4.62-4.69.48-.5.97-1.01,1.46-1.53,4.66-4.49,7.96-5.33,14.32-5.15ZM128.66,596.55c.66.33,1.32.66,2,1q-1.09,1.08-2.2,2.19c-6.82,6.8-13.63,13.59-20.44,20.39-3.5,3.5-7,6.99-10.51,10.49-3.38,3.37-6.76,6.74-10.13,10.11-1.29,1.29-2.58,2.58-3.87,3.86-1.81,1.8-3.61,3.6-5.41,5.4-.54.54-1.08,1.07-1.63,1.62q-2.74,2.71-4.81,5.93h162v1H69.66c1.4-5.6,4.75-9.17,9-13h2v-4q1.36-1.32,3.31-2.56c3.91-2.73,7.26-5.77,10.62-9.12.48-.48.97-.95,1.47-1.44,2.27-2.29,3.56-3.77,4.59-6.87,2.23-2.48,4.2-4.58,7.16-6.15,4.23-2.76,7.52-6.36,11.03-9.98,1.43-1.46,2.86-2.92,4.29-4.38q.94-.97,1.9-1.96,1.62-1.53,3.62-2.53Z"/>
  <path class="st12" d="M529.41,124.45c6.9,0,13.79,0,20.69,0,12.29,0,24.57,0,36.86.02,11.89,0,23.79.02,35.68.02q1.11,0,2.24,0c3.71,0,7.43,0,11.14,0,30.55.01,61.09.03,91.64.05v4c-.66-.33-1.32-.66-2-1,.33-.66.66-1.32,1-2-28.65.1-57.31.21-85.96.33-3.38.01-6.77.03-10.15.04-.67,0-1.35,0-2.04,0-10.9.04-21.81.08-32.71.12-11.19.04-22.38.08-33.58.13-6.28.03-12.57.05-18.85.07-5.92.02-11.83.04-17.75.07-2.17,0-4.34.02-6.51.02-2.97,0-5.93.02-8.9.04-.86,0-1.71,0-2.59,0-5.07.03-9.93.45-14.95,1.16-4.29.3-8.58.42-12.88.56q-.97.03-1.97.06c-20.92.66-41.86.49-62.79.45-5.59-.01-11.17-.01-16.76-.02-10.87-.01-21.74-.03-32.61-.05v-1c1.13-.03,2.26-.05,3.43-.08,4.31-.1,8.62-.2,12.93-.3,1.85-.04,3.69-.08,5.54-.12,2.69-.06,5.39-.12,8.08-.19.79-.02,1.58-.03,2.39-.05,5.18-.13,10.36-.35,15.54-.61,11.89-.6,23.77-.97,35.67-1.21q1.52-.03,3.06-.06c25.7-.52,51.4-.51,77.11-.48Z"/>
  <path class="st17" d="M464.66,392.55c17.19-.02,34.39-.04,51.58-.05,7.98,0,15.97-.01,23.95-.02,6.96,0,13.91-.02,20.87-.02,3.68,0,7.37,0,11.05-.01,4.11,0,8.21,0,12.32,0,1.23,0,2.46,0,3.73-.01,1.11,0,2.22,0,3.37,0,.97,0,1.94,0,2.95,0q2.18.12,3.18,1.12c.1,1.75.12,3.5.12,5.25q0,1.71,0,3.45c0,1.26,0,2.52-.01,3.81,0,1.32,0,2.63,0,3.99,0,3.62,0,7.24-.01,10.87,0,3.78,0,7.56,0,11.34,0,7.16-.01,14.33-.02,21.49-.01,8.15-.02,16.31-.02,24.46-.01,16.78-.03,33.56-.05,50.34q-.96.4-1.94.81-2.39,1.07-3.06,4.19h-2c-.27.6-.54,1.2-.81,1.81-1.17,2.16-2.38,3.55-4.19,5.19-.66-.33-1.32-.66-2-1,.64-.58,1.28-1.15,1.94-1.75,2.04-2.23,2.64-3.32,3.06-6.25h3v-4h4c-.33-43.89-.66-87.78-1-133q-64.35-.5-130-1v-1Z"/>
  <path class="st18" d="M600.66,254.55q0,3-1.53,4.66c-3.31,1.79-6.28,1.74-9.95,1.7-.76,0-1.51,0-2.29,0-2.54,0-5.08,0-7.62-.02-1.82,0-3.64,0-5.46,0-4.96,0-9.91,0-14.87-.03-5.21-.02-10.43-.01-15.64-.01-8.79,0-17.57-.02-26.36-.04-11.18-.03-22.36-.04-33.54-.04-9.7,0-19.39-.02-29.09-.03-3.07,0-6.14,0-9.21,0-23.5-.02-46.96-.26-70.45-1.2v-1c1.13,0,2.27,0,3.44,0,27.58-.06,55.17-.13,82.75-.23,13.34-.04,26.68-.08,40.02-.11,11.62-.02,23.25-.06,34.87-.1,6.16-.02,12.31-.04,18.47-.05,5.79,0,11.58-.03,17.38-.06,2.13,0,4.26-.01,6.38-.01,2.9,0,5.8-.01,8.7-.04.85,0,1.69,0,2.56.01,4.66-.06,7.59-.49,11.43-3.41Z"/>
  <path class="st20" d="M60.66,656.55h3v4h402v1H60.66v-5Z"/>
  <path class="st51" d="M326.66,125.55h4c.02,17.06.04,34.13.05,51.19,0,7.92.01,15.84.02,23.77,0,6.9.02,13.8.02,20.71,0,3.66,0,7.31.01,10.97,0,4.08,0,8.15,0,12.23,0,1.22,0,2.44.01,3.7,0,1.1,0,2.21,0,3.34,0,.97,0,1.93,0,2.92q-.12,2.17-1.12,3.17c-.11,1.73-.15,3.47-.16,5.21,0,1.13-.02,2.26-.03,3.42,0,1.25-.01,2.5-.02,3.79,0,1.31-.02,2.61-.03,3.96-.03,3.59-.05,7.19-.07,10.78-.02,3.75-.05,7.51-.08,11.26-.05,7.11-.09,14.22-.14,21.33-.05,8.09-.1,16.19-.16,24.28-.11,16.65-.22,33.31-.32,49.96-.66-.33-1.32-.66-2-1,.66-86.46,1.32-172.92,2-262h-2v-3Z"/>
  <path class="st62" d="M464.66,395.55h1v255q1.98-.99,4-2v3c-1.98.66-3.96,1.32-6,2-.03-18.06-.05-36.12-.06-54.19,0-.69,0-1.37,0-2.08-.03-47.68.18-95.36.56-143.05,0-.74.01-1.48.02-2.25.15-18.81.31-37.63.48-56.44Z"/>
  <path class="st26" d="M590.66,527.55l1,4h-3c-.07.72-.15,1.45-.22,2.2-.99,3.57-2.56,5.07-5.18,7.67-.89.89-1.78,1.77-2.7,2.69-.94.91-1.87,1.82-2.84,2.76-.93.93-1.87,1.86-2.83,2.82q-6.96,6.87-9.24,6.87c-.27.58-.54,1.17-.81,1.77-1.2,2.26-2.53,4.04-4.19,5.98-.52.61-1.03,1.23-1.56,1.86q-1.44,1.39-3.44,1.39c-.33,1.32-.66,2.64-1,4h-2c-.27.6-.54,1.2-.81,1.81-1.71,3.16-3.42,4.76-6.56,6.5-2.65,1.71-4.24,3.55-6.17,6.01-2.28,2.64-4.94,4.81-7.59,7.08q-4,3.31-6.74,7.6c-1.98,3.51-5.6,5.24-9.12,7v-4h3v-4c1.97-1.8,3.89-3.4,6-5,2.04-1.81,3.09-3.15,4.44-5.56,1.72-2.68,2.73-3.2,5.56-4.44,2.09-1.76,3.09-3.18,4.38-5.62q1.62-2.38,4.31-3.19c.76-.06,1.53-.12,2.31-.19q.09-1.14.19-2.31c1.08-3.57,2.65-3.88,5.81-5.69l1.31-2.19c2.94-4.89,7.19-9.98,12.69-11.81,1.24-1.47,2.48-2.95,3.68-4.46,1.85-2.17,4.1-3.77,6.32-5.54.8-.97,1.61-1.94,2.44-2.94,1.92-2.3,3.53-3.97,5.81-5.81q2.77-1.96,3.75-4.25h3v-3Z"/>
  <path class="st37" d="M704.66,148.55l2,1c-2.7,3.46-5.39,6.42-8.75,9.25-4.12,3.49-7.59,7.41-11.14,11.46-1.73,1.89-3.42,3.51-5.42,5.11q-2.72,2.05-4.56,4.56c-1.84,2.27-3.53,3.89-5.75,5.75-4.39,3.74-8.16,7.92-11.98,12.23-3.25,3.6-6.52,6.96-10.33,9.96-3.03,2.48-5.16,5.34-7.44,8.5-5.63,7.58-12.43,14.21-19.08,20.88-1.62,1.63-3.22,3.27-4.83,4.9-1.04,1.05-2.08,2.1-3.13,3.14q-.71.73-1.43,1.47c-3.11,3.09-6.16,5.03-10.16,6.79,1.56-3.84,4.1-6.1,7-9,.3-.64.61-1.28.92-1.94,1.29-2.45,2.77-3.73,4.89-5.5,5.16-4.3,9.7-9.07,14.19-14.06,4.41-4.91,8.87-9.63,13.94-13.88,3.26-2.81,6-5.75,8.64-9.14,1.64-1.71,3.31-2.44,5.42-3.48.41-.72.83-1.44,1.25-2.19,2.11-3.39,4.67-5.43,7.7-7.99,1.9-1.7,3.49-3.42,5.11-5.39,2.46-2.99,5.12-5.45,8.13-7.88,2.4-2.06,4.58-4.3,6.81-6.55.95-.94,1.91-1.88,2.86-2.82.96-.95,1.93-1.91,2.89-2.86.49-.49.99-.97,1.5-1.47q2.72-2.66,4.75-5.84.96-.46,1.94-.94,2.38-1.02,4.06-4.06Z"/>
  <path class="st9" d="M646.4,125.45c2.1,0,4.2,0,6.3,0,5.46,0,10.92.01,16.37.02,5.6.01,11.2.01,16.8.02,10.93.01,21.86.03,32.79.05q.5.99,1,2c-2.47,1.23-4.08,1.12-6.83,1.12-1.02,0-2.04,0-3.09,0-1.12,0-2.25,0-3.41-.01-1.18,0-2.36,0-3.58,0-3.24,0-6.48,0-9.72-.01-3.39,0-6.77,0-10.16,0-6.41,0-12.83-.01-19.24-.02-7.3-.01-14.6-.02-21.9-.02-15.02-.01-30.04-.03-45.06-.05v-1c5.34-.85,10.62-1.3,16.02-1.56q1.3-.06,2.63-.13c10.36-.46,20.72-.44,31.09-.41Z"/>
  <path class="st35" d="M197.66,254.55l2,1c-.66.66-1.32,1.32-2,2-.94,3.48-1.13,6.78-1.14,10.37,0,1.06-.01,2.13-.02,3.22,0,1.16,0,2.31,0,3.51q0,1.84-.02,3.72c-.01,3.36-.02,6.71-.02,10.07,0,2.1,0,4.19-.01,6.29-.01,6.56-.02,13.11-.03,19.67,0,7.57-.02,15.14-.05,22.71-.02,5.85-.03,11.71-.03,17.56,0,3.5,0,6.99-.02,10.49-.02,3.89-.02,7.79,0,11.68,0,1.16-.02,2.33-.03,3.52,0,1.06.01,2.11.02,3.2,0,.92,0,1.84,0,2.79.12.73.25,1.45.37,2.2,3.31,2.21,4.33,2.26,8.18,2.28,1.07.01,2.15.02,3.25.03,1.18,0,2.35,0,3.57,0q1.86.02,3.75.03c3.4.03,6.8.04,10.2.06,3.55.02,7.1.04,10.65.07,6.73.05,13.45.08,20.18.12,7.66.04,15.31.09,22.97.14,15.75.1,31.5.19,47.25.27v1h-131c-1.02-3.07-1.13-5.18-1.14-8.4,0-1.12-.01-2.24-.02-3.39,0-1.23,0-2.46,0-3.73,0-1.29,0-2.59-.02-3.92-.01-3.55-.02-7.1-.02-10.65,0-2.22,0-4.43-.01-6.65-.01-6.93-.02-13.87-.03-20.8,0-8.01-.02-16.02-.05-24.04-.02-6.19-.03-12.38-.03-18.57,0-3.7,0-7.4-.02-11.1-.02-4.12-.02-8.24,0-12.36,0-1.23-.02-2.46-.03-3.73,0-1.12.01-2.23.02-3.39,0-.98,0-1.95,0-2.95.12-.76.25-1.53.37-2.31.99-.66,1.98-1.32,3-2Z"/>
  <path class="st27" d="M325.66,124.55h92v1c-.67.01-1.34.02-2.03.03-6.99.11-13.98.22-20.98.34-2.61.04-5.21.08-7.82.12-3.76.06-7.51.12-11.27.19q-1.73.03-3.5.05c-5.55.1-10.98.36-16.49,1.05-2.62.3-5.2.33-7.83.32-1.01,0-2.02,0-3.06,0-1.02,0-2.04-.02-3.1-.03-1.06,0-2.11,0-3.2-.01-2.58-.01-5.16-.03-7.74-.05v-2h-4q-.08.81-.15,1.63c-1.25,3.5-3.77,5.68-6.38,8.24-.58.58-1.15,1.15-1.74,1.75-1.9,1.9-3.82,3.79-5.73,5.68-1.32,1.32-2.64,2.63-3.96,3.95-3.48,3.47-6.96,6.92-10.45,10.38-3.56,3.53-7.11,7.06-10.66,10.6-6.97,6.93-13.94,13.86-20.92,20.78,0-3.68,1.16-4.51,3.67-7.02.54-.53,1.08-1.05,1.64-1.6.56-.56,1.13-1.12,1.71-1.7,1.87-1.86,3.75-3.71,5.63-5.56,1.3-1.29,2.6-2.58,3.89-3.87,3.42-3.4,6.85-6.79,10.28-10.18,5.49-5.42,10.98-10.85,16.45-16.29,1.92-1.9,3.84-3.79,5.77-5.69,1.17-1.16,2.35-2.33,3.52-3.49.54-.53,1.08-1.05,1.63-1.6,2.34-2.34,3.74-3.83,4.81-7.02Z"/>
  <path class="st8" d="M325.66,128.55h3v128h-2c-.33-40.92-.66-81.84-1-124-1.32.33-2.64.66-4,1q1.81-2.5,4-5Z"/>
  <path class="st1" d="M462.95,125.48c4.26.01,8.53.01,12.79.02,8.31.01,16.62.03,24.92.05v1c-6.95,1.01-13.86,1.33-20.88,1.56q-.97.03-1.97.06c-20.92.66-41.86.49-62.79.45-5.59-.01-11.17-.01-16.76-.02-10.87-.01-21.74-.03-32.61-.05v-1c1.13-.03,2.26-.05,3.43-.08,4.31-.1,8.62-.2,12.93-.3,1.85-.04,3.69-.08,5.54-.12,8.73-.19,17.46-.39,26.18-.9,16.39-.93,32.8-.72,49.2-.68Z"/>
  <path class="st49" d="M554.66,566.55c.99.33,1.98.66,3,1h-2c-.33,1.32-.66,2.64-1,4h-2c-.27.6-.54,1.2-.81,1.81-1.71,3.16-3.42,4.76-6.56,6.5-2.65,1.71-4.24,3.55-6.17,6.01-2.28,2.64-4.94,4.81-7.59,7.08q-4,3.31-6.74,7.6c-1.98,3.51-5.6,5.24-9.12,7v-4h3v-4c1.97-1.8,3.89-3.4,6-5,2.04-1.81,3.09-3.15,4.44-5.56,1.72-2.68,2.73-3.2,5.56-4.44,2.09-1.76,3.09-3.18,4.38-5.62q1.62-2.38,4.31-3.19c.76-.06,1.53-.12,2.31-.19v-3h5v-3h4v-3Z"/>
  <path class="st54" d="M409.41,656.49c1.69,0,3.38,0,5.07.01,4.06.01,8.12.03,12.18.05v2c-.55.01-1.09.02-1.66.03-5.68.11-11.35.22-17.03.34-2.12.04-4.24.09-6.36.12-3.04.06-6.09.12-9.13.19q-1.43.03-2.89.05c-.88.02-1.76.04-2.67.06-.78.02-1.55.03-2.36.05q-2,.05-3.91,1.16c-1.91.09-3.82.12-5.73.11-1.2,0-2.4,0-3.64,0-1.3,0-2.6-.01-3.95-.02-1.34,0-2.68,0-4.03,0-3.53,0-7.07-.01-10.6-.02-3.61-.01-7.21-.01-10.82-.02-7.08-.01-14.15-.03-21.23-.05.33-.66.66-1.32,1-2q.84-.02,1.69-.03c5.91-.11,11.81-.22,17.72-.34,2.19-.04,4.38-.08,6.57-.12,10.8-.2,21.58-.43,32.36-1.03,9.81-.54,19.59-.58,29.41-.53Z"/>
  <path class="st3" d="M595.66,394.55h1v135c-.99.33-1.98.66-3,1-.33.99-.66,1.98-1,3h-2c-.27.6-.54,1.2-.81,1.81-1.17,2.16-2.38,3.55-4.19,5.19-.66-.33-1.32-.66-2-1,.64-.58,1.28-1.15,1.94-1.75,2.04-2.23,2.64-3.32,3.06-6.25h3v-4h4v-133Z"/>
  <path class="st21" d="M369.66,656.55v2c-.6.01-1.2.02-1.82.03-6.21.11-12.42.22-18.64.34-2.32.04-4.64.09-6.96.12-3.33.06-6.66.12-9.99.19-1.04.02-2.09.03-3.17.05-.96.02-1.92.04-2.91.06-.85.02-1.7.03-2.58.05q-1.95-.05-2.94,1.16c-1.72.09-3.44.12-5.16.11-1.1,0-2.2,0-3.34,0-1.2,0-2.4-.01-3.63-.02-1.22,0-2.44,0-3.7,0-3.91,0-7.83-.02-11.74-.03-2.65,0-5.29,0-7.94-.01-6.5-.01-13-.03-19.5-.05,3.03-3.03,6.54-2.36,10.62-2.41.89-.02,1.79-.04,2.71-.06,2.97-.06,5.93-.11,8.9-.16,2.06-.04,4.12-.08,6.18-.13,5.44-.11,10.88-.21,16.32-.31,5.51-.1,11.02-.21,16.52-.32,8.07-.16,16.15-.32,24.22-.46q1.25-.02,2.53-.05c5.33-.09,10.66-.12,16-.1Z"/>
  <path class="st56" d="M704.66,148.55l2,1c-2.7,3.46-5.39,6.42-8.75,9.25-4.12,3.49-7.59,7.41-11.14,11.46-1.73,1.89-3.42,3.51-5.42,5.11q-2.72,2.05-4.56,4.56c-1.84,2.27-3.53,3.89-5.75,5.75-4.39,3.74-8.16,7.92-11.98,12.23-4.43,4.9-9.15,9.24-14.21,13.46-.6.5-1.19,1-1.81,1.52-1.46,1.22-2.92,2.45-4.38,3.67q0-3,1.76-4.8c.78-.64,1.56-1.29,2.37-1.95,3.57-3.04,6.62-6.1,9.49-9.8,1.62-1.69,3.3-2.42,5.39-3.45.41-.72.83-1.44,1.25-2.19,2.11-3.39,4.67-5.43,7.7-7.99,1.9-1.7,3.49-3.42,5.11-5.39,2.46-2.99,5.12-5.45,8.13-7.88,2.4-2.06,4.58-4.3,6.81-6.55.95-.94,1.91-1.88,2.86-2.82.96-.95,1.93-1.91,2.89-2.86.49-.49.99-.97,1.5-1.47q2.72-2.66,4.75-5.84.96-.46,1.94-.94,2.38-1.02,4.06-4.06Z"/>
  <path class="st50" d="M517.66,599.55l1,4h-3v4h-4v3h-3v4h-3v3h-4v4h-3v3h-4v4h-3v3h-4v3h-3v4h-4v3h-3v4h-4v3c-1.32-.33-2.64-.66-4-1,2.79-2.84,5.58-5.67,8.38-8.49.95-.96,1.9-1.92,2.85-2.89,1.36-1.39,2.73-2.77,4.1-4.15.82-.83,1.64-1.67,2.49-2.52q2.18-1.95,5.18-2.95c.47-.8.95-1.61,1.44-2.44,1.74-2.85,2.69-3.13,5.56-4.56.47-.85.95-1.69,1.44-2.56q1.56-2.44,4.25-3.25c.76-.06,1.53-.12,2.31-.19.07-.73.14-1.45.21-2.2,1-3.58,2.66-5.08,5.35-7.61.83-.79,1.65-1.58,2.5-2.39q.96-.89,1.93-1.79Z"/>
  <path class="st25" d="M129.66,592.55l2,1c-1.16,3.47-2.23,3.85-5.19,5.71-3.72,2.66-6.77,6.13-9.93,9.42-1.39,1.44-2.79,2.89-4.2,4.32-.61.63-1.22,1.27-1.85,1.92q-1.83,1.63-3.93,2.67t-3.9,3.97h-2c-.1.59-.2,1.18-.31,1.79-.81,2.59-1.83,3.72-3.75,5.63-.61.61-1.23,1.23-1.86,1.86-.65.63-1.29,1.26-1.96,1.91-.64.64-1.28,1.28-1.93,1.94q-4.79,4.74-8.19,5.87c2.25-7.44,8.13-12.3,14-17,1.02-.98,2.02-1.98,3-3l4-4c.47-.52.95-1.03,1.44-1.56q1.56-1.44,3.72-2.59c3.81-2.47,6.75-5.54,9.91-8.78.61-.62,1.22-1.24,1.85-1.88,1.18-1.19,2.35-2.39,3.52-3.59,1.84-1.88,3.7-3.74,5.56-5.59Z"/>
  <path class="st16" d="M511.66,607.55l4,1q-1.38,2-3,4h-2c-.33.99-.66,1.98-1,3-1.62,1.71-3.3,3.37-5,5-.8.82-1.61,1.65-2.44,2.5-1.86,1.82-3.66,3.4-5.69,5-2.75,2.39-4.17,4.34-5.88,7.5l-2,2h-3v2c-1.43,1.23-2.86,2.45-4.33,3.62-2.39,1.97-4.51,4.15-6.67,6.38v-4h3v-4h3v-3h4v-4h3v-3h4v-3h3v-4h4v-3h3v-4h4v-3h3v-4h3v-3Z"/>
  <path class="st48" d="M450.66,657.55v1q-.86.04-1.73.08c-2.57.12-5.14.24-7.71.36-.9.04-1.8.08-2.72.12-.85.04-1.71.08-2.59.13q-1.19.05-2.4.11-1.87.01-2.86,1.21c-1.57.09-3.14.12-4.7.11-1,0-2,0-3.03,0l-3.3-.02c-1.11,0-2.22,0-3.36,0-3.56,0-7.11-.02-10.67-.03-2.4,0-4.81,0-7.21-.01-5.91-.01-11.82-.03-17.72-.05,3.09-3.09,6.82-2.36,10.98-2.41.91-.02,1.82-.04,2.76-.06,2.96-.06,5.93-.11,8.89-.15,2.02-.04,4.03-.08,6.05-.11,13.78-.25,27.55-.39,41.33-.26Z"/>
  <path class="st47" d="M192.66,524.55h100v1c-1.2,0-2.4,0-3.64,0-11.33.02-22.66.06-33.99.13-5.82.03-11.65.06-17.47.06-5.62,0-11.24.03-16.86.08-2.14.01-4.29.02-6.43.01-3,0-6.01.02-9.01.05-.89,0-1.77-.02-2.68-.03-6.01.11-8.69,1.37-12.9,5.69-.33-.99-.66-1.98-1-3,.99-.33,1.98-.66,3-1,.33-.99.66-1.98,1-3Z"/>
  <path class="st53" d="M554.66,566.55c.99.33,1.98.66,3,1h-2c-.33,1.32-.66,2.64-1,4h-2c-.27.6-.54,1.2-.81,1.81-1.71,3.16-3.42,4.76-6.56,6.5q-2.84,1.64-5.12,4.69c-2.37,2.84-4.25,4.33-7.5,6v-4h4v-3h3c.12-.76.25-1.53.38-2.31q.62-2.69,2.62-5.69h3v-3h5v-3h4v-3Z"/>
  <path class="st59" d="M562.66,554.55l1,4h-3c.06.76.12,1.53.19,2.31q-.19,2.69-1.5,4.5-1.69,1.19-4.69,1.19v3h-4v3h-5q2.62-3.88,6-5c.39-.68.78-1.36,1.19-2.06,2.63-4.27,6.21-7.48,9.81-10.94Z"/>
  <path class="st44" d="M167.66,554.55l2,1q-8.89,8.89-10.48,10.48c-1.4,1.4-2.79,2.81-4.18,4.21-1.99,1.97-4.02,3.82-6.16,5.62-.6.51-1.21,1.02-1.83,1.55-.45.38-.89.75-1.36,1.14,1.29-2.8,2.7-5.01,4.75-7.31,1.62-1.83,3.22-3.66,4.77-5.55,3.14-3.85,6.2-6.5,10.48-9.13l2-2Z"/>
  <path class="st15" d="M79.66,640.55c.99.33,1.98.66,3,1h-2c-.33.99-.66,1.98-1,3q-2.06.69-4,1v3h-2l-1,3q-5.26,4-9,4c3.3-4.33,6.68-7.46,11.13-10.61,1.8-1.34,3.32-2.77,4.87-4.39Z"/>
  <path class="st40" d="M487.66,631.55q.81,1.69,1,4-2.12,2.38-5,5c-.87,1.03-1.72,2.07-2.56,3.12-2.04,2.41-3.83,4.14-6.44,5.88v-4h3v-4h3v-3h4v-4h3v-3Z"/>
  <path class="st4" d="M143.66,578.55l2,1-13,13c-.33-1.32-.66-2.64-1-4,2.61-4.01,6.86-6.75,11-9l1-1Z"/>
  <path class="st11" d="M193.66,527.55l2,1q-1.38,1.5-3,3h-2c-.33.99-.66,1.98-1,3-.78.62-1.57,1.24-2.38,1.88q-2.71,1.95-4.12,4.62c-1.75,2.91-3.77,4.51-6.5,6.5,1.31-2.93,2.75-4.75,5-7,.43-.77.86-1.54,1.3-2.33,1.83-2.89,3.79-4.76,6.38-6.98.81-.7,1.62-1.39,2.45-2.11.61-.52,1.23-1.04,1.86-1.57Z"/>
  <path class="st42" d="M653.66,198.55l2,1c-4.3,6.97-10.61,13.3-18,17,1.4-3.28,2.99-5.07,5.75-7.31,3.88-3.27,7.04-6.76,10.25-10.69Z"/>
  <path class="st55" d="M591.66,527.55l4,1q-1.38,2.5-3,5h-2c-.27.6-.54,1.2-.81,1.81-1.17,2.16-2.38,3.55-4.19,5.19-.66-.33-1.32-.66-2-1,.64-.58,1.28-1.15,1.94-1.75,2.04-2.23,2.64-3.32,3.06-6.25h3v-4Z"/>
  <path class="st36" d="M562.66,554.55l1,4h-3v4h-4v3c-1.32-.33-2.64-.66-4-1l10-10Z"/>
  <path class="st52" d="M544.66,578.55c0,3.62-.89,5.11-3,8h-3v3q-2.38,1.75-5,3l-2-1c1.29-1.38,2.63-2.71,4-4h2c.33-.99.66-1.98,1-3,1.63-1.71,3.29-3.38,5-5l1-1Z"/>
  <path class="st61" d="M91.66,630.55l2,1c-1.26,1.32-2.54,2.63-3.81,3.94-.71.73-1.42,1.46-2.14,2.21q-2.04,1.85-5.04,2.85c1.36-5.3,4.6-7.24,9-10Z"/>
  <path class="st57" d="M539.66,579.55l4,1c-3.3,4.14-6.17,7.59-11,10v-4h4v-3h3v-4Z"/>
  <path class="st7" d="M554.66,566.55c.99.33,1.98.66,3,1h-2c-.33,1.32-.66,2.64-1,4h-2c-.27.6-.54,1.2-.81,1.81-1.17,2.16-2.38,3.55-4.19,5.19l-2-1c.64-.58,1.28-1.15,1.94-1.75,2.04-2.23,2.64-3.32,3.06-6.25h4v-3Z"/>
  <path class="st60" d="M523.66,599.55v3c-2.58,1.91-5.13,3.56-8,5v-4h3v-3c1.65-.33,3.3-.66,5-1Z"/>
  <path class="st33" d="M299.66,154.55l1,2c-.9,1.16-1.82,2.3-2.75,3.44-.51.64-1.02,1.28-1.55,1.93-1.9,1.82-3.14,2.23-5.7,2.63.94-1.11,1.87-2.21,2.81-3.31.52-.61,1.04-1.23,1.58-1.86,1.48-1.68,3.01-3.26,4.61-4.82Z"/>
  <path class="st13" d="M474.66,649.55l1,2h-2l-2,4h-2c-.1.64-.21,1.28-.31,1.94-.23.68-.45,1.36-.69,2.06-.99.33-1.98.66-3,1v-3h3q.09-.87.19-1.75c1.13-3.14,3.15-4.34,5.81-6.25Z"/>
  <path class="st43" d="M491.66,628.55l4,1-2,1q-.68,1.21-1.38,2.44c-1.7,2.69-2.71,3.46-5.62,4.56.66-1.98,1.32-3.96,2-6h3v-3Z"/>
  <path class="st2" d="M568.66,554.55v3h-2c-.33,1.65-.66,3.3-1,5-1.98.66-3.96,1.32-6,2,.93-1.3,1.87-2.59,2.81-3.88.52-.72,1.04-1.44,1.58-2.18q1.61-1.95,4.61-3.95Z"/>
  <path class="st46" d="M207.66,244.55h3q-.19,1.81-1,4-2.56,1.75-5,3l-1-2q1.81-2.5,4-5Z"/>
  <path class="st5" d="M71.66,646.55l2,1c-2.1,3.98-4.37,6.35-8,9-.66-.33-1.32-.66-2-1q5.29-6.43,8-9Z"/>
  <path class="st28" d="M512.66,611.55l1,2h-2c-.33,1.32-.66,2.64-1,4h-3v3c-.99-.33-1.98-.66-3-1,.95-1.15,1.91-2.29,2.88-3.44.53-.64,1.07-1.28,1.62-1.93q1.51-1.63,3.51-2.63Z"/>
  <path class="st58" d="M563.66,555.55l4,1h-2c-.27.62-.54,1.24-.81,1.88q-1.19,2.12-4.19,4.12v-4h3v-3Z"/>
  <path class="st24" d="M661.66,192.55l2,1c-2.31,2.31-4.62,4.62-7,7-.66-.33-1.32-.66-2-1q4.75-5.88,7-7Z"/>
  <path class="st19" d="M460.66,656.55h8c-.99.33-1.98.66-3,1v3h-3v-3l-2-1Z"/>
  <path class="st31" d="M519.66,603.55c0,3.15-.28,4.42-2,7q-2.12.75-4,1c1.44-3.37,3.33-5.51,6-8Z"/>
</svg>