<?xml version="1.0" encoding="utf-8"?>
<!-- Generator: Adobe Illustrator 23.0.5, SVG Export Plug-In . SVG Version: 6.00 Build 0)  -->
<svg version="1.1" id="Layer_1" xmlns="http://www.w3.org/2000/svg" xmlns:xlink="http://www.w3.org/1999/xlink" x="0px" y="0px"
	 viewBox="0 0 516 73.7" style="enable-background:new 0 0 516 73.7;" xml:space="preserve">
<style type="text/css">
	.st0{fill:#FFFFFF;}
</style>
<title>tri-small-white</title>
<polygon class="st0" points="39.6,27.7 52.7,14.5 45.2,6.9 0.1,52.1 15.3,52.1 31.4,36 66.5,71.1 82.9,71 82.9,71 "/>
<polygon class="st0" points="44.6,7.6 65,28.5 21.7,71.7 21.7,71.7 38.2,71.9 73.4,36.7 89.3,52.7 104.3,52.7 52.2,0 "/>
<circle class="st0" cx="52.2" cy="28.1" r="3.3"/>
<circle class="st0" cx="31.2" cy="49.4" r="3.3"/>
<circle class="st0" cx="74.9" cy="49.4" r="3.3"/>
<g>
	<g>
		<path class="st0" d="M132.2,65.1V25h-15.4v-7.5h38.7V25h-15.4v40H132.2z"/>
		<path class="st0" d="M157.5,65.1V29.4h7v8.7l-0.9-1.1c0.4-1.2,1-2.3,1.8-3.2c0.7-1,1.6-1.8,2.7-2.4c0.9-0.6,1.9-1.1,2.9-1.4
			c2.1-0.7,4.4-0.8,6.5-0.5v7.4c-1.2-0.3-2.4-0.4-3.6-0.3c-1.3,0.1-2.6,0.5-3.7,1.2c-1.1,0.6-2,1.3-2.7,2.3c-0.7,0.9-1.2,2-1.5,3.2
			c-0.3,1.2-0.5,2.5-0.5,3.8v18.1H157.5z"/>
		<path class="st0" d="M184.4,24v-7.3h8V24H184.4z M184.4,65.1V29.4h8v35.6H184.4z"/>
		<path class="st0" d="M216.6,66c-3,0.1-6-0.8-8.6-2.5c-2.5-1.7-4.4-4-5.7-6.7c-1.4-3-2.1-6.3-2-9.6c-0.1-3.3,0.6-6.6,2-9.6
			c1.3-2.7,3.3-5,5.8-6.7c2.6-1.7,5.7-2.5,8.8-2.5c3-0.1,6,0.8,8.5,2.5c2.3,1.7,4.2,4,5.2,6.7c1.2,3.1,1.8,6.3,1.8,9.6
			c0,3.3-0.6,6.5-1.8,9.6c-1.1,2.7-2.9,5.1-5.3,6.7C222.7,65.3,219.7,66.2,216.6,66z M217.8,58.9c3.7,0.3,7-2,8-5.6
			c0.6-2,0.9-4,0.9-6.1c0-2.1-0.3-4.1-0.9-6.1c-0.5-1.6-1.5-3-2.8-4.1c-1.4-1-3.2-1.5-4.9-1.5c-1.9-0.1-3.7,0.5-5.3,1.6
			c-1.4,1.1-2.5,2.5-3.1,4.2c-0.7,1.9-1,3.9-1,5.9c0,2,0.3,4,1,5.9c0.6,1.7,1.6,3.1,3,4.2C214.2,58.4,216,59,217.8,58.9L217.8,58.9z
			 M226.7,65.1v-25h-1V17.6h8v47.5L226.7,65.1z"/>
		<path class="st0" d="M258.7,66c-3.3,0.1-6.5-0.8-9.3-2.4c-2.6-1.6-4.8-3.9-6.2-6.6c-1.5-3-2.3-6.4-2.2-9.7
			c-0.1-3.4,0.7-6.8,2.2-9.8c1.4-2.7,3.6-5,6.2-6.6c5.8-3.2,12.8-3.2,18.6,0c2.6,1.6,4.8,3.9,6.2,6.6c1.5,3,2.3,6.4,2.2,9.7
			c0.1,3.4-0.7,6.8-2.2,9.8c-1.4,2.7-3.6,5-6.2,6.6C265.2,65.3,262,66.1,258.7,66z M258.7,58.6c3.2,0,5.5-1.1,7.1-3.2
			c1.6-2.4,2.4-5.3,2.3-8.2c0.2-2.9-0.7-5.8-2.3-8.3c-1.6-2.1-3.9-3.1-7-3.1c-1.9-0.1-3.7,0.4-5.3,1.4c-1.4,1-2.5,2.4-3.1,4
			c-0.7,1.9-1,3.9-1,5.9c-0.2,2.9,0.7,5.8,2.4,8.3C253.5,57.6,256,58.8,258.7,58.6z"/>
		<path class="st0" d="M279.8,35.7v-6.2h24.8v6.2L279.8,35.7z M304.6,65.1c-2.3,0.4-4.6,0.6-6.9,0.6c-2.1,0-4.1-0.4-6.1-1.3
			c-1.7-0.7-3.2-2-4.1-3.7c-0.8-1.5-1.2-3.1-1.3-4.7c0-1.6-0.1-3.4-0.1-5.4v-31h7.9V50c0,1.4,0,2.7,0,3.8c0,0.9,0.2,1.8,0.7,2.6
			c0.8,1.3,2.2,2.2,3.8,2.2c2,0.1,4,0.1,5.9-0.3L304.6,65.1z"/>
		<path class="st0" d="M326.1,66c-4.4,0-8-1-10.7-3c-2.7-2-4.6-5-5-8.3l8.1-1.3c0.4,1.7,1.4,3.2,2.8,4.2c1.6,1.1,3.5,1.6,5.4,1.5
			c1.6,0.1,3.1-0.3,4.4-1.1c1-0.7,1.6-1.9,1.6-3.1c0-0.7-0.2-1.4-0.6-2c-0.7-0.7-1.6-1.2-2.5-1.4c-1.3-0.5-3.3-1-6-1.7
			c-2.5-0.6-4.8-1.5-7.1-2.6c-1.5-0.7-2.8-1.8-3.8-3.3c-0.8-1.4-1.2-3-1.2-4.6c0-2.1,0.6-4.1,1.7-5.8c1.2-1.7,2.9-3,4.9-3.8
			c2.3-0.9,4.9-1.4,7.4-1.3c2.5,0,5,0.4,7.4,1.3c2,0.8,3.8,2,5.2,3.7c1.3,1.6,2.2,3.5,2.4,5.6l-8.1,1.5c-0.2-1.4-0.9-2.7-2.1-3.6
			c-1.4-0.9-3-1.5-4.7-1.5c-1.6-0.2-3.1,0.1-4.5,0.8c-1.1,0.5-1.7,1.6-1.7,2.8c0,0.7,0.2,1.3,0.7,1.7c0.8,0.7,1.8,1.2,2.8,1.5
			c1.4,0.5,3.5,1.1,6.3,1.8c2.4,0.5,4.7,1.4,6.8,2.5c1.5,0.8,2.8,1.9,3.7,3.3c0.8,1.4,1.2,3.1,1.1,4.7c0.1,3.3-1.3,6.4-3.9,8.4
			C334.3,65,330.7,66,326.1,66z"/>
	</g>
	<g>
		<path class="st0" d="M376,65.1V25h-15.4v-7.5h38.7V25h-15.4v40H376z"/>
		<path class="st0" d="M415.5,66c-3.3,0.1-6.6-0.7-9.5-2.3c-2.7-1.5-4.9-3.8-6.4-6.5c-1.6-2.9-2.4-6.2-2.3-9.6
			c-0.1-3.5,0.7-7,2.2-10.1c1.4-2.8,3.6-5.1,6.2-6.7c2.8-1.6,6-2.4,9.2-2.4c3.3-0.1,6.6,0.8,9.4,2.6c2.6,1.8,4.6,4.3,5.8,7.3
			c1.3,3.6,1.8,7.4,1.4,11.1h-7.9v-2.9c0-3.9-0.7-6.7-2-8.5s-3.5-2.7-6.3-2.7c-3.3,0-5.7,1-7.3,3c-1.6,2-2.4,5-2.4,8.8
			c0,3.6,0.8,6.4,2.4,8.4c1.7,2,4.3,3.1,6.9,3c1.8,0,3.5-0.4,5.1-1.3c1.4-0.9,2.6-2.2,3.3-3.8l7.9,2.4c-1.3,3.1-3.5,5.7-6.3,7.5
			C422.1,65.1,418.8,66.1,415.5,66z M403.2,49.5v-6h24.5v6H403.2z"/>
		<path class="st0" d="M454.5,66c-3.3,0.1-6.6-0.8-9.4-2.5c-2.6-1.6-4.6-4-6-6.7c-1.4-3-2.1-6.3-2.1-9.6c0-3.4,0.7-6.7,2.2-9.7
			c1.3-2.7,3.4-5.1,6.1-6.7c2.8-1.7,6.1-2.5,9.3-2.4c3.7-0.1,7.3,1,10.3,3.1c2.8,2,4.7,5,5.5,8.3l-7.9,2.1c-0.5-1.8-1.6-3.3-3.1-4.5
			c-1.4-1.1-3.1-1.6-4.9-1.6c-3.6-0.2-7,2-8.1,5.5c-0.7,1.9-1,3.9-1,5.8c-0.1,2.9,0.7,5.8,2.3,8.2c3,3.4,8,4.1,11.8,1.7
			c1.3-1.1,2.3-2.6,2.8-4.2l8.1,1.8c-0.9,3.4-3,6.3-5.8,8.4C461.6,65.1,458.1,66.2,454.5,66z"/>
		<path class="st0" d="M476.9,65.1V17.6h7.1v25h1v22.5L476.9,65.1z M501.6,65.1V47.9c0-1.2-0.1-2.5-0.2-3.7
			c-0.2-1.4-0.5-2.7-1.1-3.9c-0.5-1.2-1.4-2.3-2.5-3.1c-1.3-0.9-2.9-1.3-4.5-1.2c-1,0-2,0.2-3,0.5c-1,0.3-1.9,0.9-2.7,1.7
			c-0.9,0.9-1.5,2.1-1.9,3.3c-0.5,1.7-0.8,3.5-0.7,5.4l-4.7-2c0-2.8,0.6-5.7,1.8-8.2c1.1-2.4,2.9-4.5,5.2-5.9
			c2.5-1.5,5.5-2.3,8.4-2.2c2.3-0.1,4.5,0.4,6.5,1.3c1.6,0.8,3,1.9,4.1,3.4c1,1.3,1.7,2.8,2.2,4.4c0.5,1.4,0.8,2.9,0.9,4.4
			c0.1,1.4,0.2,2.5,0.2,3.3v19.9H501.6z"/>
	</g>
</g>
</svg>
