<?xml version="1.0" encoding="utf-8"?><svg xmlns="http://www.w3.org/2000/svg" xmlns:xlink="http://www.w3.org/1999/xlink" width="124" height="115" viewBox="0 0 124 115">
  <defs>
    <linearGradient id="linear-gradient" x1="0.5" x2="0.5" y2="1" gradientUnits="objectBoundingBox">
      <stop offset="0" stop-color="#2bbafc"/>
      <stop offset="1" stop-color="#004ea8"/>
    </linearGradient>
    <clipPath id="clip-path">
      <rect id="Rectangle_5486" data-name="Rectangle 5486" width="104.166" height="95" fill="#fff"/>
    </clipPath>
  </defs>
  <g id="Group_8441" data-name="Group 8441" transform="translate(-128)">
    <rect id="Rectangle_5503" data-name="Rectangle 5503" width="124" height="115" rx="10" transform="translate(128)" fill="url(#linear-gradient)"/>
    <g id="Group_8369" data-name="Group 8369" transform="translate(138 10)">
      <g id="Group_8366" data-name="Group 8366" clip-path="url(#clip-path)">
        <g id="Group_8440" data-name="Group 8440" transform="translate(22.966 85.424)">
          <path id="Path_18122" data-name="Path 18122" d="M101.148,384.386l1.167-1.3a3.074,3.074,0,0,0,2.109,1.088c.822,0,1.26-.358,1.26-.968s-.265-.928-1.591-1.432c-1.936-.743-2.706-1.406-2.706-2.918,0-1.539,1.167-2.626,3.024-2.626a3.879,3.879,0,0,1,3.024,1.233l-1.167,1.339a2.579,2.579,0,0,0-1.936-.941c-.769,0-1.087.384-1.087.862,0,.57.292.836,1.551,1.339,1.989.756,2.772,1.485,2.772,3.011,0,1.724-1.3,2.732-3.183,2.732a4.23,4.23,0,0,1-3.236-1.419" transform="translate(-101.148 -376.23)" fill="#fff"/>
          <path id="Path_18123" data-name="Path 18123" d="M143.755,381.031c0-3.077,1.339-4.8,3.475-4.8,1.751,0,2.52.9,3.024,2.44l-1.711.623c-.332-.981-.61-1.419-1.326-1.419-1.021,0-1.552.968-1.552,3.13s.544,3.156,1.578,3.156c.7,0,1.034-.437,1.419-1.392l1.618.729a3.056,3.056,0,0,1-3.077,2.308c-2.254,0-3.448-1.79-3.448-4.774" transform="translate(-134.081 -376.23)" fill="#fff"/>
          <path id="Path_18124" data-name="Path 18124" d="M187.937,376.873h1.9v3.541h2.334v-3.541h1.9v9.283h-1.9v-3.992h-2.334v3.992h-1.9Z" transform="translate(-168.231 -376.727)" fill="#fff"/>
          <path id="Path_18125" data-name="Path 18125" d="M234.69,381.031c0-3.156,1.273-4.8,3.329-4.8s3.3,1.631,3.3,4.774-1.287,4.8-3.329,4.8-3.3-1.618-3.3-4.774m4.721,0c0-2.347-.5-3.156-1.419-3.156s-1.393.8-1.393,3.13.5,3.156,1.419,3.156,1.393-.8,1.393-3.13" transform="translate(-204.368 -376.23)" fill="#fff"/>
          <path id="Path_18126" data-name="Path 18126" d="M280.627,381.031c0-3.156,1.273-4.8,3.329-4.8s3.3,1.631,3.3,4.774-1.287,4.8-3.329,4.8-3.3-1.618-3.3-4.774m4.721,0c0-2.347-.5-3.156-1.419-3.156s-1.393.8-1.393,3.13.5,3.156,1.419,3.156,1.393-.8,1.393-3.13" transform="translate(-239.876 -376.23)" fill="#fff"/>
          <path id="Path_18127" data-name="Path 18127" d="M328.783,376.873h1.9v7.652h4.058v1.631h-5.954Z" transform="translate(-277.098 -376.727)" fill="#fff"/>
        </g>
        <path id="Path_18135" data-name="Path 18135" d="M134.605,109.854c-.492-.362,14.241-19.889,32.388-8.3.574.366,1.546.925,1.11,1.788-.1.2-.421.246-.912.153-1.452-.275-18.884-9.227-32.586,6.36" transform="translate(-104.033 -75.658)" fill="#fff" fill-rule="evenodd"/>
        <path id="Path_18136" data-name="Path 18136" d="M169.954,122.264s7.617-7.655,20.494-2.944c0,0,7.145,2.63,10.051,6.085,0,0,.519,1.664-.55,1.021-7.027-4.23-15.355-9.459-27.462-3.377-1.586.8-4.1.648-2.533-.785" transform="translate(-130.981 -91.043)" fill="#fff" fill-rule="evenodd"/>
        <path id="Path_18137" data-name="Path 18137" d="M168.526,144.541l3.887.432a23.9,23.9,0,0,1,18.3-.236h2.748s-.079-1.3-2.67-2.395c-7.429-3.152-13.773-2.1-20.71,1.393Z" transform="translate(-130.261 -108.571)" fill="#fff" fill-rule="evenodd"/>
        <g id="Group_8439" data-name="Group 8439" transform="translate(0.733 17.205)">
          <path id="Path_18128" data-name="Path 18128" d="M21.211,300.812H17.392l-.683-3.243c-.491-2.3-.939-5.1-1.024-6.187-.085,1.088-.533,3.883-1.024,6.187l-.683,3.243H10.2L6.639,285.878h4.267l.406,2.5c.341,2.112.747,4.715.9,6.486a62.361,62.361,0,0,1,1.109-6.465l.512-2.517h3.8l.512,2.517a62.421,62.421,0,0,1,1.109,6.465c.149-1.771.555-4.374.9-6.486l.406-2.5h4.224Z" transform="translate(-5.864 -238.172)" fill="#fff"/>
          <path id="Path_18129" data-name="Path 18129" d="M104.7,300.812l-.811-2.624h-4.48l-.811,2.624H94.163l5.419-14.934h4.182l5.419,14.934Zm-2.091-6.891c-.533-1.92-.768-2.731-.96-3.734-.192,1-.427,1.835-.96,3.734l-.277.981h2.475Z" transform="translate(-73.516 -238.172)" fill="#fff"/>
          <path id="Path_18130" data-name="Path 18130" d="M177.456,300.812V285.878h4.182v11.329h6.614v3.606Z" transform="translate(-137.896 -238.172)" fill="#fff"/>
          <path id="Path_18131" data-name="Path 18131" d="M252.724,300.812l-3.563-4.928c-.661-.918-1.942-2.837-2.325-3.5.107.662.128,2.646.128,3.862v4.566h-3.968V285.878h3.648l3.286,4.416c.683.917,2.005,2.9,2.325,3.52-.107-.661-.128-2.645-.128-3.861v-4.075h3.968v14.934Z" transform="translate(-188.554 -238.172)" fill="#fff"/>
          <path id="Path_18132" data-name="Path 18132" d="M327.909,301.046c-3.755,0-6.507-1.877-6.507-6.614v-8.555h4.224v8.555c0,1.835.725,2.965,2.347,2.965s2.3-1.131,2.3-2.965v-8.555H334.5v8.555c0,4.736-2.838,6.614-6.593,6.614" transform="translate(-249.159 -238.172)" fill="#fff"/>
          <path id="Path_18133" data-name="Path 18133" d="M405.406,289.483v11.329h-4.139V289.483h-4.182v-3.606h12.5v3.606Z" transform="translate(-307.658 -238.172)" fill="#fff"/>
          <path id="Path_18134" data-name="Path 18134" d="M115.464,94.005c4.266,1.055,25.373,5.677,47.7.033l-.036.109a2.34,2.34,0,0,1,.457-.479c.942-.707.157-1.413-1.021-1.806s-2.081-2.513-2.081-2.513c-11-13.588-32.952-15.415-43.971,2.67-.2.431-3.617.044-1.051,1.986m44.987,2.217c-3.583,4.533-16.637,17.24-32.12,7.353-.573-.366-1.546-.925-1.11-1.788.1-.2.422-.246.912-.153,1.4.265,18.341,8.132,31.838-5.324-7.508,1.353-29.523,4.606-43.256-.826.229.49.032.863,5.139,6.664,5.763,6.546,16.788,8.577,24.891,5.929a28.636,28.636,0,0,0,15.295-12.16c-.361.073-.9.179-1.589.306m-45.408-5.046c1.119-.53,1.18-.756,3.945-4.456,12.147-16.253,32.443-13.079,41.9.77,1.214,1.778,1.384,2.871,3.366,3.874a3.267,3.267,0,0,0,1,.342c.447.016,1.377.934.421,1.574a5.411,5.411,0,0,0-1.736,1.456c-1.189,1.788-2,3.464-3.434,5.388-4.549,6.108-10.029,11.282-19.925,11.682-12.227-.147-19.778-5.928-25.048-16.411a3.931,3.931,0,0,0-1.3-1.335c-.215-.118-2.109-1.506.805-2.885" transform="translate(-88.412 -75.769)" fill="#fff" fill-rule="evenodd"/>
          <path id="Path_18138" data-name="Path 18138" d="M4,233.217a.769.769,0,0,1,0-1.538H105.162a.769.769,0,0,1,0,1.538Z" transform="translate(-3.227 -196.279)" fill="#fff"/>
        </g>
        <g id="Group_8411" data-name="Group 8411" transform="translate(0 0.001)" opacity="0.75">
          <path id="Path_18139" data-name="Path 18139" d="M4.771,7.057,4.215,5.492H1.575L1.028,7.057H0L2.376.457H3.423l2.4,6.6ZM3.385,3.083q-.057-.178-.132-.395t-.146-.433l-.132-.4q-.062-.183-.09-.287-.028.1-.085.287l-.123.395-.137.437c-.047.15-.093.285-.137.4L1.876,4.6H3.913Z" transform="translate(0 -0.354)" fill="#fff"/>
          <path id="Path_18140" data-name="Path 18140" d="M39.209,2.428a1.987,1.987,0,0,1-.386,1.282,1.914,1.914,0,0,1-1.065.651l1.348,2.7H37.967L36.66,4.445H35.174V7.057h-.981V.457h2.894A2.752,2.752,0,0,1,37.9.575a1.951,1.951,0,0,1,.674.358,1.681,1.681,0,0,1,.462.613,2.112,2.112,0,0,1,.17.881m-1,.028a1.008,1.008,0,0,0-.306-.792,1.173,1.173,0,0,0-.813-.273H35.174V3.512h1.917a1.218,1.218,0,0,0,.808-.259.98.98,0,0,0,.31-.8" transform="translate(-26.429 -0.354)" fill="#fff"/>
          <path id="Path_18141" data-name="Path 18141" d="M70.7,2.522a2.327,2.327,0,0,1-.16.9,1.784,1.784,0,0,1-.451.651,1.9,1.9,0,0,1-.691.4,2.789,2.789,0,0,1-.879.132H66.8V7.057h-.981V.457H68.58a2.629,2.629,0,0,1,.844.132A1.872,1.872,0,0,1,70.1.98a1.8,1.8,0,0,1,.443.646,2.328,2.328,0,0,1,.16.9m-1.009,0a1.108,1.108,0,0,0-.305-.839,1.141,1.141,0,0,0-.822-.292H66.8V3.663h1.767a1.1,1.1,0,0,0,.846-.3,1.181,1.181,0,0,0,.282-.839" transform="translate(-50.873 -0.354)" fill="#fff"/>
          <rect id="Rectangle_5485" data-name="Rectangle 5485" width="0.98" height="6.6" transform="translate(21.785 0.103)" fill="#fff"/>
          <path id="Path_18142" data-name="Path 18142" d="M111.948,1.428V7.057h-.981V1.428h-1.923V.457h4.827v.971Z" transform="translate(-84.284 -0.354)" fill="#fff"/>
          <path id="Path_18143" data-name="Path 18143" d="M138.086,7.057l-.556-1.565h-2.64l-.547,1.565h-1.028l2.376-6.6h1.047l2.4,6.6ZM136.7,3.083q-.057-.178-.132-.395t-.146-.433l-.132-.4q-.062-.183-.09-.287-.028.1-.085.287l-.123.395-.137.437c-.047.15-.093.285-.137.4l-.528,1.5h2.036Z" transform="translate(-103.045 -0.354)" fill="#fff"/>
          <path id="Path_18144" data-name="Path 18144" d="M180,7.057l-1.9-3.385-1.226,1.48v1.9h-.962V.457h.962V2.979q0,.165,0,.339t-.009.335c0,.107,0,.186,0,.236a1.838,1.838,0,0,1,.132-.188l.208-.269q.113-.146.226-.287l.2-.245L179.578.457H180.7l-1.933,2.395,2.357,4.205Z" transform="translate(-135.976 -0.354)" fill="#fff"/>
          <path id="Path_18145" data-name="Path 18145" d="M210.114,7.057l-.556-1.565h-2.64l-.547,1.565h-1.028l2.376-6.6h1.046l2.4,6.6Zm-1.386-3.974q-.057-.178-.132-.395t-.146-.433q-.071-.216-.132-.4t-.09-.287q-.028.1-.085.287l-.123.395-.137.437q-.071.225-.137.4l-.528,1.5h2.036Z" transform="translate(-158.718 -0.354)" fill="#fff"/>
          <path id="Path_18146" data-name="Path 18146" d="M244.558,2.428a1.987,1.987,0,0,1-.387,1.282,1.914,1.914,0,0,1-1.065.651l1.348,2.7h-1.138l-1.308-2.612h-1.486V7.057h-.981V.457h2.895a2.754,2.754,0,0,1,.816.118,1.952,1.952,0,0,1,.674.358,1.682,1.682,0,0,1,.462.613,2.112,2.112,0,0,1,.17.881m-1,.028a1.008,1.008,0,0,0-.306-.792,1.173,1.173,0,0,0-.813-.273h-1.918V3.512h1.918a1.218,1.218,0,0,0,.808-.259.979.979,0,0,0,.31-.8" transform="translate(-185.152 -0.354)" fill="#fff"/>
          <path id="Path_18147" data-name="Path 18147" d="M275.243,7.057l-1.9-3.385-1.226,1.48v1.9h-.962V.457h.962V2.979q0,.165,0,.339t-.009.335q0,.16,0,.236a1.818,1.818,0,0,1,.132-.188l.207-.269q.114-.146.226-.287t.2-.245L274.818.457h1.122l-1.933,2.395,2.357,4.205Z" transform="translate(-209.592 -0.354)" fill="#fff"/>
          <path id="Path_18148" data-name="Path 18148" d="M305.353,7.057,304.8,5.492h-2.64l-.547,1.565h-1.028l2.376-6.6H304l2.4,6.6Zm-1.386-3.974q-.056-.178-.132-.395t-.146-.433q-.07-.216-.132-.4c-.041-.122-.071-.218-.09-.287q-.028.1-.085.287l-.122.395-.137.437q-.07.225-.136.4l-.528,1.5H304.5Z" transform="translate(-232.333 -0.354)" fill="#fff"/>
          <path id="Path_18149" data-name="Path 18149" d="M339.794,2.428a1.987,1.987,0,0,1-.387,1.282,1.914,1.914,0,0,1-1.065.651l1.348,2.7h-1.138l-1.308-2.612h-1.486V7.057h-.981V.457h2.895a2.753,2.753,0,0,1,.816.118,1.952,1.952,0,0,1,.674.358,1.681,1.681,0,0,1,.462.613,2.112,2.112,0,0,1,.17.881m-1,.028a1.008,1.008,0,0,0-.306-.792,1.172,1.172,0,0,0-.813-.273h-1.918V3.512h1.918a1.219,1.219,0,0,0,.808-.259.979.979,0,0,0,.31-.8" transform="translate(-258.765 -0.354)" fill="#fff"/>
          <path id="Path_18150" data-name="Path 18150" d="M366.4,7.057V.457h4.243v.971h-3.263V3.041h1.9v.971h-1.9V6.086h3.4v.971Z" transform="translate(-283.205 -0.354)" fill="#fff"/>
          <path id="Path_18151" data-name="Path 18151" d="M395.183,4.446V7.058H394.2V4.446L391.836.458H393l1.028,1.82q.085.151.183.339t.2.372q.1.184.173.344t.121.255c.025-.063.064-.146.117-.25s.11-.215.173-.335.128-.242.2-.368.132-.242.188-.349L396.409.458h1.141Z" transform="translate(-302.868 -0.354)" fill="#fff"/>
          <path id="Path_18152" data-name="Path 18152" d="M425.411,3.54h-.764L424.412.457h1.235Z" transform="translate(-328.047 -0.354)" fill="#fff"/>
          <path id="Path_18153" data-name="Path 18153" d="M442.467,4.809a2.176,2.176,0,0,1-.146.811,1.645,1.645,0,0,1-.443.632,2.059,2.059,0,0,1-.759.41,3.645,3.645,0,0,1-1.094.146,3.021,3.021,0,0,1-1.325-.287,3.124,3.124,0,0,1-1.023-.778l.707-.688a2.47,2.47,0,0,0,.788.57,2.185,2.185,0,0,0,.929.212q1.367,0,1.367-.961a.75.75,0,0,0-.075-.339.782.782,0,0,0-.255-.278,2.239,2.239,0,0,0-.462-.24q-.283-.113-.7-.236a8.461,8.461,0,0,1-.915-.311,2.475,2.475,0,0,1-.641-.372,1.339,1.339,0,0,1-.382-.514,1.923,1.923,0,0,1-.127-.745,1.691,1.691,0,0,1,.632-1.348,2.107,2.107,0,0,1,.693-.363A2.8,2.8,0,0,1,440.091,0a2.864,2.864,0,0,1,1.2.236,3.457,3.457,0,0,1,.962.66l-.7.707a2.069,2.069,0,0,0-.679-.476,2.187,2.187,0,0,0-.858-.156,1.2,1.2,0,0,0-.844.245.767.767,0,0,0-.26.575.694.694,0,0,0,.066.306.7.7,0,0,0,.226.255,2.028,2.028,0,0,0,.443.231q.283.113.707.236.49.151.882.311a2.569,2.569,0,0,1,.665.387,1.541,1.541,0,0,1,.42.537,1.764,1.764,0,0,1,.146.754" transform="translate(-338.3 -0.001)" fill="#fff"/>
        </g>
      </g>
    </g>
  </g>
</svg>
